<svg width="96" height="260" viewBox="0 0 96 260" fill="none" xmlns="http://www.w3.org/2000/svg">
<path d="M71.6191 174.476H25.9048V165.333H71.6191V174.476Z" fill="#0593A1"/>
<path d="M70.0953 208.572C70.0953 230.872 48.0007 259.81 48.0007 259.81C48.0007 259.81 25.9048 230.872 25.9048 208.572C25.9048 186.269 35.7975 179.048 48.0007 179.048C60.2025 179.048 70.0953 186.269 70.0953 208.572Z" fill="#F07934"/>
<path d="M62.4762 199.66C62.4762 215.227 47.6197 235.429 47.6197 235.429C47.6197 235.429 32.762 215.227 32.762 199.66C32.762 184.09 39.4143 179.048 47.6197 179.048C55.8239 179.048 62.4762 184.09 62.4762 199.66Z" fill="#F7C31E"/>
<path d="M57.9048 190.746C57.9048 199.582 48.3822 211.048 48.3822 211.048C48.3822 211.048 38.8572 199.582 38.8572 190.746C38.8572 181.91 43.1213 179.048 48.3822 179.048C53.6419 179.048 57.9048 181.91 57.9048 190.746Z" fill="white"/>
<path d="M83.0051 74.9671L79.8692 168.381H16.1246L12.9887 74.9671C12.4573 57.9867 17.7651 40.8879 28.6707 25.6083C29.202 24.8172 29.8297 24.0261 30.4087 23.235L48.0213 4.57764e-05L65.6338 23.235L67.3708 25.6083C78.2276 40.8879 83.5852 57.9867 83.0051 74.9671Z" fill="#EDEDED"/>
<path d="M67.8096 24.9409C61.7771 25.5584 55.3647 25.9048 48.7625 25.9048C42.1603 25.9048 35.7477 25.5584 29.7144 24.9409C30.2374 24.1704 30.8553 23.3999 31.4252 22.6294L48.7625 2.47955e-05L66.0998 22.6294L67.8096 24.9409Z" fill="#DF4937"/>
<path d="M48.7208 100.571C45.6279 100.571 42.5013 99.6796 39.7091 97.8147C31.9257 92.5942 29.657 81.7357 34.6522 73.5986C37.8545 68.3807 43.276 65.5238 48.805 65.5238C51.8969 65.5238 55.0225 66.4183 57.8148 68.2913C65.598 73.5118 67.8667 84.3704 62.8718 92.5075C59.6692 97.7253 54.2498 100.571 48.7208 100.571Z" fill="#A1E8E4"/>
<path d="M60.5733 64.6153C71.7216 71.5476 74.9781 85.9502 67.8196 96.7454C60.6852 107.522 45.8129 110.675 34.6645 103.764C23.5162 96.8342 20.2608 82.4316 27.4182 71.6337C34.5529 60.86 49.4252 57.7073 60.5733 64.6153ZM62.7361 93.5739C68.0876 85.4983 65.657 74.7219 57.3182 69.5409C48.9791 64.3571 37.8524 66.7325 32.502 74.808C27.1502 82.8836 29.5808 93.6599 37.9199 98.841C46.2587 104.001 57.3854 101.647 62.7361 93.5739Z" fill="#DF4937"/>
<path d="M52.5715 68.3826C49.5095 67.6031 46.2564 67.6159 43.1822 68.4388L42.6583 68.5871C40.3893 69.2669 38.3184 70.3683 36.5715 71.8071L39.4238 74.6667C40.7179 73.6036 42.2473 72.7833 43.9239 72.2722L44.4479 72.1214C46.7331 71.5234 49.1492 71.5182 51.4234 72.0983L52.5715 68.3826Z" fill="white"/>
<path d="M45.7144 100.47L46.4749 100.534L47.091 100.562C50.9218 100.68 54.6888 99.6293 57.9048 97.5623L55.9604 94.4762C53.3715 96.1419 50.3426 96.9922 47.2597 96.9094L46.6437 96.8808L46.0866 96.8329L45.7144 100.47Z" fill="white"/>
<path d="M58.6667 159.619C58.6667 180.028 54.2315 196.571 48.7621 196.571C43.2913 196.571 38.8572 180.028 38.8572 159.619C38.8572 139.21 43.2913 122.667 48.7621 122.667C54.2315 122.667 58.6667 139.21 58.6667 159.619Z" fill="#DF4937"/>
<path d="M19.8095 159.619C19.8095 180.028 19.4988 196.571 14.029 196.571C8.55715 196.571 0 180.028 0 159.619C0 139.21 8.55715 122.667 14.029 122.667C19.4988 122.667 19.8095 139.21 19.8095 159.619Z" fill="#DF4937"/>
<path d="M75.4285 159.619C75.4285 180.028 75.7514 196.571 81.4323 196.571C87.113 196.571 95.9999 180.028 95.9999 159.619C95.9999 139.21 87.113 122.667 81.4323 122.667C75.7514 122.667 75.4285 139.21 75.4285 159.619Z" fill="#DF4937"/>
</svg>
