<svg width="192" height="192" viewBox="0 0 192 192" fill="none" xmlns="http://www.w3.org/2000/svg">
<path d="M189.122 72.7605C176.285 21.3294 124.188 -9.95494 72.7605 2.87828C21.3294 15.7151 -9.95495 67.812 2.87826 119.239C15.7151 170.671 67.8121 201.955 119.24 189.122C170.671 176.285 201.955 124.188 189.122 72.7605Z" fill="#F6E6A7"/>
<path d="M30.0616 156.777C33.6459 153.365 37.425 149.837 42.1823 148.456C46.936 147.076 52.9422 148.629 54.9491 153.148C49.885 157.091 47.2392 164.14 49.0981 170.277C50.9533 176.418 57.566 180.934 63.8934 179.835C70.2208 178.739 75.0034 171.665 73.1192 165.538C71.9353 161.686 68.6723 158.817 67.0697 155.123C65.4671 151.429 66.8784 145.75 70.9102 145.649C73.3719 153.613 76.0934 162.01 83.5145 166.699C87.6474 169.308 92.9714 169.931 97.1909 167.463C104.273 163.311 103.731 154.201 101.555 146.986C100.252 142.679 98.5336 138.477 96.1694 134.646C93.3865 130.131 89.7156 126.159 85.4275 123.028C81.1647 119.914 75.2597 117.867 70.3471 118.761C67.5534 119.273 65.0845 116.912 65.431 114.097L65.4671 113.802C65.5646 112.991 64.987 112.31 64.1893 112.123C58.9628 110.897 54.9527 105.344 55.772 99.9814L73.8844 86.0058L79.8076 84.6435C83.0273 80.8775 86.3335 76.971 87.7954 72.2356C89.2572 67.5038 88.4018 61.6872 84.4458 58.6996C82.3234 57.0995 78.3494 57.1031 77.5589 54.5156C71.8451 35.7974 45.1493 45.3439 38.8616 59.6042C36.2699 65.4784 35.4831 72.8158 30.1483 76.4016C35.4181 70.6715 32.3681 61.68 31.1589 53.9967C29.3361 42.4212 32.7977 30.1214 40.3884 21.1875C40.2007 20.4019 39.8939 19.6811 39.5329 19C8.89921 41.077 -6.85259 80.2757 2.85332 119.11C3.31534 120.948 3.83872 122.75 4.39458 124.534C5.78423 124.181 7.15224 123.788 8.47332 123.381L30.0616 156.777Z" fill="#F6D864"/>
<path d="M157.814 105.053C154.948 102.825 152.586 99.1099 153.038 95.6577C153.189 94.5233 153.912 93.5766 154.823 92.9117C161.131 88.325 163.597 78.776 160.062 71.6762C156.94 65.3991 149.548 61.8718 142.803 62.871C140.771 63.1715 138.886 61.6877 138.368 59.6592C136.035 50.5008 126.094 43.5138 116.88 45.655C114.286 39.0999 103.937 37.9429 100.021 43.773C96.7217 45.9893 96.2367 50.8464 97.2985 54.7307C98.3602 58.6186 100.579 62.1047 101.56 66.0152C103.243 72.7093 101.127 79.6625 98.7313 86.1988C98.3271 87.2995 97.4528 88.1109 96.3874 88.5466C88.5694 91.7359 82.3974 98.877 80.1453 107.16C79.5759 109.252 80.7294 111.439 82.739 112.134L90.7921 114.917C93.6099 115.89 96.6114 113.467 96.0457 110.481C95.1015 105.477 96.1669 100.011 99.0251 95.8605C100.26 94.0649 102.622 93.9034 104.44 95.0642C106.928 96.6532 111.281 96.086 113.574 93.648C116.785 90.2409 117.688 85.2034 120.3 81.2966C121.406 79.6363 123.184 78.2726 125.062 77.5476C128.137 76.3643 131.116 79.5874 130.032 82.7579C128.629 86.875 128.831 91.5518 131.877 94.4105C134.213 96.6043 137.556 97.1378 140.653 97.8402C143.747 98.5427 147.094 99.7448 148.611 102.592C148.953 103.231 149.118 103.96 149.129 104.696C149.177 107.108 151.039 109.05 153.391 108.873L153.523 108.862C155.907 108.685 157.876 110.676 157.788 113.118C157.696 115.631 157.928 118.114 158.986 120.353C160.691 123.97 165.43 126.378 168.681 124.128C172.245 121.664 171.341 115.747 168.402 112.536C165.463 109.32 161.238 107.716 157.814 105.053Z" fill="#F6D864"/>
<path d="M98.3376 36.5387C104.31 34.2184 105.258 30.6553 108.832 30.821C110.081 30.8775 111.341 30.8323 112.6 30.7871C114.937 30.7042 117.269 30.6214 119.529 31.1939C123.004 32.0715 126.358 35.2882 125.735 38.9154C127.819 41.6951 132.481 38.6555 132.795 35.1601C133.11 31.661 131.166 28.4066 130.51 24.9602C129.855 21.5137 133.813 20.5646 135 17.1106C135.029 13.9429 131.225 12.0031 128.214 12.6849C125.208 13.3666 122.868 15.6943 120.492 17.7095C118.119 19.7284 115.211 21.6041 112.172 21.0994C114.75 18.2971 112.589 13.2536 109.125 11.7733C105.665 10.2893 101.725 11.231 98.0923 12.1877C94.1338 13.231 90.0508 12.5756 85.9716 11.9165C81.8886 11.2573 77.8057 10.6019 73.8509 11.6453C66.8824 13.4834 60.4083 22.1277 53.4399 23.9658C49.9062 24.8999 46.0686 26.0412 43.985 29.1185C41.8978 32.1996 43.249 37.6837 46.8925 37.8494C50.6202 38.0227 52.3816 33.2052 55.4063 30.9604C60.2618 27.3633 66.7872 31.0432 72.496 32.8851C81.9216 35.9285 85.5724 38.2864 98.3376 36.5387Z" fill="#F6D864"/>
<path d="M97 192C53.5006 192 13.9195 163.301 2.91123 120.326C0.832466 112.219 -0.0983375 104.093 0.0083599 96.1147C-0.0836206 102.903 0.582302 109.803 2.06135 116.703V116.71C2.06871 116.742 2.07604 116.781 2.0834 116.814C2.08708 116.821 2.08708 116.824 2.08708 116.828C2.10916 116.932 2.13125 117.036 2.15333 117.14C2.15701 117.147 2.1607 117.158 2.1607 117.168C2.16805 117.197 2.17539 117.226 2.17906 117.255C2.18274 117.269 2.18643 117.287 2.19011 117.301C2.19747 117.326 2.20117 117.358 2.20853 117.38C2.21221 117.398 2.21585 117.419 2.21953 117.437C2.23057 117.48 2.23796 117.52 2.24899 117.563C2.25267 117.584 2.26005 117.606 2.26372 117.627C2.2674 117.649 2.27473 117.67 2.27841 117.695C2.28209 117.713 2.28946 117.742 2.29314 117.763C2.29682 117.781 2.30419 117.806 2.30787 117.824C2.31523 117.86 2.32625 117.896 2.33361 117.932C2.33729 117.95 2.34097 117.961 2.34097 117.975C2.35201 118.011 2.35935 118.047 2.36671 118.082C2.37039 118.1 2.37408 118.118 2.37776 118.136C2.38512 118.165 2.3925 118.19 2.39985 118.215C2.40353 118.237 2.40718 118.251 2.41086 118.269C2.41822 118.305 2.4256 118.337 2.43295 118.373C2.43663 118.384 2.43664 118.391 2.44032 118.401C2.45136 118.444 2.46238 118.487 2.46974 118.53C2.47342 118.545 2.47711 118.563 2.48079 118.577C2.48814 118.609 2.49548 118.638 2.50284 118.67C2.50652 118.685 2.51021 118.699 2.51389 118.713C2.52492 118.749 2.53231 118.789 2.53967 118.824C2.54335 118.832 2.54331 118.839 2.54699 118.849C2.55802 118.892 2.56909 118.935 2.58013 118.982C2.58013 118.993 2.58377 119.004 2.58745 119.018C2.59481 119.05 2.60587 119.086 2.61323 119.122C2.61691 119.133 2.61692 119.147 2.6206 119.158C2.63164 119.194 2.63897 119.233 2.64633 119.269C2.65001 119.276 2.6537 119.287 2.6537 119.297C2.66474 119.34 2.67576 119.384 2.6868 119.43C2.69048 119.441 2.69416 119.448 2.69416 119.462C2.7052 119.495 2.71259 119.53 2.71994 119.566C2.72362 119.581 2.72727 119.595 2.73095 119.609C2.74199 119.645 2.74937 119.674 2.75673 119.71C2.76041 119.72 2.76409 119.731 2.76409 119.746C2.77513 119.789 2.78984 119.835 2.80088 119.882C2.80088 119.882 2.80088 119.889 2.80456 119.892C2.81192 119.932 2.82294 119.975 2.83398 120.014C2.83766 120.029 2.83767 120.039 2.84503 120.054C2.85238 120.09 2.85972 120.118 2.86708 120.154C2.87076 120.165 2.87445 120.179 2.87813 120.194C2.88916 120.237 2.90019 120.283 2.91123 120.326C2.92594 120.384 2.94066 120.437 2.95538 120.495C2.95538 120.498 2.95538 120.498 2.95906 120.502C14.0298 163.376 53.5594 191.996 97 192ZM0.0119978 96.0036V96C0.0119978 96.0036 0.0119978 96 0.0119978 96.0036Z" fill="#151E35"/>
<path d="M97.1104 192C53.6204 191.996 14.0458 163.08 2.96243 119.761C3.41917 121.547 3.93853 123.299 4.48736 125.034C5.90547 124.679 7.3015 124.284 8.64963 123.875L30.6801 157.434C34.3377 154.005 38.1943 150.46 43.049 149.073C44.1908 148.747 45.399 148.584 46.6108 148.584C50.5557 148.584 54.5117 150.315 56.0772 153.788C50.9094 157.749 48.2094 164.833 50.1064 171C51.8081 176.544 57.429 180.77 63.2377 180.77C63.8934 180.77 64.5527 180.716 65.2047 180.604C71.6617 179.503 76.5422 172.394 74.6195 166.238C73.4113 162.367 70.0815 159.484 68.4461 155.772C66.8106 152.06 68.2509 146.353 72.3652 146.252C74.8773 154.255 77.6546 162.692 85.2277 167.404C87.6182 168.892 90.4029 169.736 93.1507 169.736C95.2466 169.736 97.3203 169.243 99.1841 168.172C104.363 165.18 105.549 159.632 104.986 154.059C113.616 156.518 122.659 157.818 131.874 157.818C139.661 157.818 147.58 156.891 155.478 154.954C164.671 152.698 173.213 149.199 181 144.727C168.252 166.118 147.113 182.657 120.71 189.136C112.809 191.073 104.897 192 97.1104 192ZM2.8814 119.45C2.87772 119.435 2.87402 119.421 2.87034 119.41C2.87402 119.421 2.87772 119.439 2.8814 119.45ZM2.84826 119.309C2.8409 119.294 2.84089 119.283 2.8372 119.269C2.84089 119.28 2.84458 119.298 2.84826 119.309ZM2.80775 119.146C2.80407 119.142 2.80406 119.135 2.80406 119.135C2.80406 119.139 2.80407 119.142 2.80775 119.146ZM2.69723 118.711C2.69723 118.697 2.69354 118.689 2.68986 118.679C2.69354 118.689 2.69723 118.7 2.69723 118.711ZM2.62358 118.403C2.6199 118.393 2.61989 118.378 2.61621 118.367C2.61989 118.382 2.6199 118.389 2.62358 118.403ZM2.48361 117.817C2.47993 117.802 2.47623 117.784 2.47255 117.77C2.47991 117.788 2.47993 117.802 2.48361 117.817ZM2.4431 117.639C2.43941 117.628 2.43941 117.621 2.43572 117.61C2.43941 117.618 2.4431 117.632 2.4431 117.639ZM2.4136 117.505C2.40992 117.487 2.40627 117.473 2.40258 117.451C2.40627 117.469 2.40992 117.491 2.4136 117.505ZM2.34364 117.208C2.34364 117.194 2.33995 117.183 2.33626 117.165C2.33995 117.183 2.33995 117.194 2.34364 117.208ZM2.3105 117.056C2.30682 117.038 2.29943 117.013 2.29575 116.995C2.30312 117.016 2.30682 117.035 2.3105 117.056ZM2.25155 116.792C2.2405 116.748 2.23311 116.709 2.22206 116.665C2.23311 116.705 2.2405 116.748 2.25155 116.792ZM2.21104 116.607C2.20367 116.585 2.19997 116.553 2.19261 116.528C2.19997 116.557 2.20367 116.582 2.21104 116.607ZM2.08577 116.035C2.07841 116.002 2.07106 115.963 2.06369 115.93C2.07106 115.963 2.07841 115.999 2.08577 116.035ZM2.06369 115.923C0.582965 108.952 -0.0837158 101.981 0.00836941 95.1218C0.0120528 95.0819 0.0120115 95.0457 0.0120115 95.0095C0.0120115 95.0059 0.0120115 95.0095 0.0120115 95.0059C0.509272 61.6352 18.9079 30.7886 48.1321 14C38.0358 30.9443 33.1996 50.9341 35.2217 71.4092C34.1536 73.4987 32.7759 75.3383 30.7685 76.6674C36.1462 70.9094 33.0338 61.8742 31.7998 54.1535C29.9397 42.5217 33.4721 30.162 41.2183 21.1847C41.0268 20.3953 40.7137 19.671 40.3453 18.9866C10.0603 40.4792 -5.9735 78.1123 2.06369 115.923Z" fill="#EBDCA0"/>
<path d="M61.9651 180C56.273 180 50.765 175.794 49.0975 170.277C47.2386 164.14 49.8843 157.091 54.9484 153.148C53.4144 149.692 49.5378 147.969 45.6721 147.969C44.4846 147.969 43.3007 148.132 42.1818 148.456C37.4245 149.836 33.6454 153.364 30.0612 156.777L8.47319 123.381C7.15213 123.788 5.78413 124.181 4.3945 124.534C3.85669 122.808 3.34775 121.063 2.90018 119.287C2.89657 119.283 2.89657 119.283 2.89657 119.279C2.88213 119.222 2.8677 119.168 2.85326 119.11C2.84243 119.067 2.83161 119.02 2.82079 118.977C2.81718 118.966 2.81356 118.948 2.80995 118.937C2.80273 118.901 2.79553 118.872 2.78831 118.836C2.7847 118.825 2.78108 118.807 2.77747 118.797C2.76665 118.757 2.75583 118.714 2.74861 118.674C2.745 118.67 2.745 118.667 2.745 118.663C2.73417 118.616 2.71974 118.57 2.70892 118.526C2.70892 118.512 2.7053 118.501 2.70169 118.49C2.69447 118.454 2.68723 118.425 2.6764 118.389C2.67279 118.375 2.66921 118.361 2.6656 118.346C2.65839 118.31 2.65114 118.274 2.64031 118.242C2.64031 118.231 2.6367 118.22 2.63309 118.209C2.62226 118.162 2.61144 118.119 2.60061 118.076C2.60061 118.065 2.597 118.054 2.59339 118.047C2.58617 118.011 2.57897 117.971 2.56814 117.935C2.56453 117.921 2.56453 117.914 2.56092 117.899C2.5537 117.863 2.54284 117.827 2.53563 117.795C2.53202 117.78 2.52844 117.77 2.52844 117.759C2.51762 117.712 2.50675 117.669 2.49593 117.625C2.49232 117.615 2.49235 117.607 2.48874 117.6C2.48153 117.564 2.47428 117.524 2.46345 117.488C2.45984 117.474 2.45622 117.46 2.45262 117.445C2.4454 117.413 2.4382 117.384 2.43098 117.351C2.42737 117.337 2.42736 117.323 2.42014 117.305C2.41292 117.261 2.40211 117.218 2.39128 117.175C2.39128 117.168 2.38767 117.153 2.38406 117.146C2.37684 117.11 2.3696 117.078 2.36238 117.042C2.35877 117.027 2.35519 117.005 2.35158 116.987C2.34437 116.962 2.33713 116.937 2.32991 116.908C2.3263 116.89 2.32268 116.872 2.31907 116.854C2.31185 116.818 2.30465 116.782 2.29382 116.746C2.29021 116.732 2.2902 116.721 2.28659 116.703C2.27938 116.667 2.26857 116.631 2.26135 116.595C2.25774 116.573 2.25412 116.555 2.2469 116.533C2.24329 116.512 2.23605 116.483 2.23244 116.465C2.22883 116.44 2.22165 116.418 2.21804 116.396C2.21443 116.375 2.20719 116.353 2.20358 116.332C2.19276 116.288 2.18551 116.245 2.17468 116.205C2.17107 116.187 2.1675 116.166 2.16389 116.148C2.15667 116.123 2.15304 116.097 2.14582 116.069C2.14221 116.054 2.13859 116.036 2.13498 116.022C2.13137 115.993 2.12418 115.964 2.11696 115.935C2.11696 115.924 2.11334 115.914 2.10974 115.906C2.08808 115.802 2.0664 115.697 2.04475 115.593C2.04475 115.589 2.04474 115.586 2.04113 115.578C2.03391 115.542 2.02672 115.506 2.0195 115.474V115.467C-5.85631 77.8393 9.85558 40.3886 39.5324 19C39.8934 19.6811 40.2002 20.4019 40.3879 21.1875C32.7972 30.1214 29.3358 42.4212 31.1585 53.9966C32.3677 61.6799 35.4177 70.6714 30.1479 76.4014C32.115 75.0788 33.465 73.2481 34.5117 71.1687C34.9629 75.796 35.7606 80.4485 36.9228 85.0974C45.4375 119.161 71.3678 144.304 102.875 153.418C103.427 158.965 102.265 164.486 97.1897 167.462C95.3633 168.529 93.3312 169.019 91.2774 169.019C88.5848 169.019 85.8561 168.18 83.5135 166.698C76.0925 162.01 73.371 153.613 70.9093 145.649C66.8776 145.749 65.4663 151.429 67.0689 155.123C68.6715 158.817 71.9344 161.685 73.1183 165.538C75.0024 171.664 70.22 178.739 63.8926 179.834C63.2537 179.946 62.6076 180 61.9651 180Z" fill="#EBCE60"/>
</svg>
