<svg width="260" height="210" viewBox="0 0 260 210" fill="none" xmlns="http://www.w3.org/2000/svg">
<path fill-rule="evenodd" clip-rule="evenodd" d="M128.656 84.6386L144.262 73.8736L146.917 91.3044L128.656 84.6386Z" fill="#FBB150"/>
<path fill-rule="evenodd" clip-rule="evenodd" d="M142.767 90.4742L161.858 92.8625L150.203 107.905L142.767 90.4742Z" fill="#FBB150"/>
<path fill-rule="evenodd" clip-rule="evenodd" d="M150.068 102.095L161.858 119.12L142.767 122.016L150.068 102.095Z" fill="#FBB150"/>
<path fill-rule="evenodd" clip-rule="evenodd" d="M146.917 118.696L144.415 138.617L128.656 126.455L146.917 118.696Z" fill="#FBB150"/>
<path fill-rule="evenodd" clip-rule="evenodd" d="M132.806 126.314L117.2 138.617L114.545 118.696L132.806 126.314Z" fill="#FBB150"/>
<path fill-rule="evenodd" clip-rule="evenodd" d="M116.205 122.016L97.9446 119.628L109.093 104.585L116.205 122.016Z" fill="#FBB150"/>
<path fill-rule="evenodd" clip-rule="evenodd" d="M109.222 107.905L97.9446 93.0082L116.205 90.4742L109.222 107.905Z" fill="#FBB150"/>
<path fill-rule="evenodd" clip-rule="evenodd" d="M114.545 91.3044L117.047 73.8736L132.806 84.5149L114.545 91.3044Z" fill="#FBB150"/>
<path fill-rule="evenodd" clip-rule="evenodd" d="M128.656 84.6386L144.262 73.8736L146.917 91.3044L128.656 84.6386Z" fill="#FBB150"/>
<path fill-rule="evenodd" clip-rule="evenodd" d="M142.767 90.4742L161.858 92.8625L150.203 107.905L142.767 90.4742Z" fill="#FBB150"/>
<path fill-rule="evenodd" clip-rule="evenodd" d="M150.068 102.095L161.858 119.12L142.767 122.016L150.068 102.095Z" fill="#FBB150"/>
<path fill-rule="evenodd" clip-rule="evenodd" d="M146.917 118.696L144.415 138.617L128.656 126.455L146.917 118.696Z" fill="#FBB150"/>
<path fill-rule="evenodd" clip-rule="evenodd" d="M132.806 126.314L117.2 138.617L114.545 118.696L132.806 126.314Z" fill="#FBB150"/>
<path fill-rule="evenodd" clip-rule="evenodd" d="M116.205 122.016L97.9446 119.628L109.093 104.585L116.205 122.016Z" fill="#FBB150"/>
<path fill-rule="evenodd" clip-rule="evenodd" d="M109.222 107.905L97.9446 93.0082L116.205 90.4742L109.222 107.905Z" fill="#FBB150"/>
<path fill-rule="evenodd" clip-rule="evenodd" d="M114.545 91.3044L117.047 73.8736L132.806 84.5149L114.545 91.3044Z" fill="#FBB150"/>
<path fill-rule="evenodd" clip-rule="evenodd" d="M136.126 83.9697L157.707 78.8537L151.924 97.9446L136.126 83.9697Z" fill="#FBA12B"/>
<path fill-rule="evenodd" clip-rule="evenodd" d="M150.237 94.6245L168.498 105.415L150.237 116.206V94.6245Z" fill="#FBA12B"/>
<path fill-rule="evenodd" clip-rule="evenodd" d="M151.924 112.055L157.707 133.636L136.126 127.853L151.924 112.055Z" fill="#FBA12B"/>
<path fill-rule="evenodd" clip-rule="evenodd" d="M140.277 126.166L129.486 143.597L118.696 126.166H140.277Z" fill="#FBA12B"/>
<path fill-rule="evenodd" clip-rule="evenodd" d="M122.016 127.853L102.095 133.636L107.433 112.055L122.016 127.853Z" fill="#FBA12B"/>
<path fill-rule="evenodd" clip-rule="evenodd" d="M109.565 116.206L90.4744 105.415L109.565 94.6245V116.206Z" fill="#FBA12B"/>
<path fill-rule="evenodd" clip-rule="evenodd" d="M107.433 97.9446L102.095 78.8537L122.016 83.9697L107.433 97.9446Z" fill="#FBA12B"/>
<path fill-rule="evenodd" clip-rule="evenodd" d="M118.696 83.834L129.486 66.4032L140.277 83.834H118.696Z" fill="#FBA12B"/>
<path fill-rule="evenodd" clip-rule="evenodd" d="M154.387 105.413C154.387 105.858 154.378 106.299 154.351 106.737C153.683 119.761 143.167 130.134 130.238 130.31L129.901 130.316C116.38 130.316 105.415 119.163 105.415 105.413C105.415 91.6643 116.38 80.5138 129.901 80.5138C143.422 80.5138 154.387 91.6643 154.387 105.413Z" fill="#FFBE3B"/>
<path d="M133.291 57.1339C131.316 57.0346 129.308 57.0106 127.339 57.0677L127.276 54.8115C129.311 54.7574 131.373 54.7785 133.402 54.8807L133.291 57.1339ZM118.456 57.8408L118.124 55.6087C120.123 55.3139 122.173 55.0943 124.214 54.9589L124.368 57.2091C122.385 57.3414 120.398 57.552 118.456 57.8408ZM142.149 58.0965C140.217 57.7656 138.233 57.5129 136.255 57.3354L136.458 55.0913C138.493 55.2688 140.537 55.5335 142.533 55.8735L142.149 58.0965ZM109.737 59.6668L109.136 57.4949C111.083 56.9564 113.091 56.4931 115.102 56.1111L115.528 58.3251C113.574 58.6951 111.627 59.1464 109.737 59.6668ZM150.827 60.1301C148.958 59.5645 147.022 59.0712 145.072 58.6561L145.543 56.448C147.554 56.8782 149.553 57.3866 151.482 57.9672L150.827 60.1301ZM101.322 62.5757L100.443 60.4971C102.315 59.7119 104.251 58.996 106.192 58.3733L106.889 60.5151C105.008 61.1228 103.133 61.8147 101.322 62.5757ZM159.166 63.2406C157.388 62.4404 155.534 61.7034 153.65 61.0446L154.399 58.9178C156.343 59.5946 158.26 60.3587 160.099 61.1829L159.166 63.2406ZM93.3779 66.5677L92.2215 64.6304C93.9667 63.5956 95.7903 62.6269 97.6382 61.7515L98.6104 63.7881C96.826 64.6364 95.0657 65.5689 93.3779 66.5677ZM167.001 67.431C165.35 66.3932 163.617 65.4095 161.841 64.5191L162.868 62.5035C164.701 63.4301 166.5 64.4469 168.209 65.5238L167.001 67.431ZM86.1043 71.6425L84.6701 69.8978C86.2432 68.6133 87.9099 67.3889 89.6218 66.2608L90.8719 68.141C89.2203 69.2269 87.617 70.4061 86.1043 71.6425ZM174.127 72.7014C172.654 71.4229 171.083 70.2016 169.462 69.0675L170.766 67.2235C172.448 68.4027 174.082 69.6691 175.613 70.9988L174.127 72.7014ZM79.7305 77.7733L78.0276 76.2872C79.3652 74.7651 80.8175 73.291 82.3392 71.9042L83.8669 73.5708C82.4056 74.9004 81.0137 76.3113 79.7305 77.7733ZM180.305 79.0217C179.076 77.5266 177.732 76.0676 176.307 74.6929L177.88 73.0714C179.369 74.5094 180.773 76.0315 182.056 77.5928L180.305 79.0217ZM74.5403 84.8968L72.5928 83.7446C73.6224 82.0119 74.7909 80.3002 76.065 78.6607L77.8555 80.0415C76.6387 81.6058 75.5246 83.2392 74.5403 84.8968ZM185.238 86.3196C184.329 84.6411 183.273 82.9685 182.104 81.3531L183.937 80.0325C185.166 81.7261 186.277 83.4829 187.231 85.2487L185.238 86.3196ZM70.8446 92.8505L68.7039 92.1225C69.3621 90.2003 70.1712 88.29 71.1072 86.446L73.1302 87.4627C72.2395 89.2165 71.4726 91.0275 70.8446 92.8505ZM188.629 94.4148C188.07 92.5557 187.376 90.7177 186.558 88.9428L188.617 88.0012C189.477 89.8693 190.211 91.8097 190.8 93.768L188.629 94.4148ZM68.9182 101.397L66.6658 101.144C66.8983 99.1046 67.2787 97.062 67.8071 95.0796L69.9961 95.6542C69.4979 97.5343 69.1356 99.4656 68.9182 101.397ZM190.202 103.021C190.066 101.093 189.785 99.1467 189.363 97.2395L191.576 96.7521C192.02 98.7676 192.322 100.825 192.46 102.865L190.202 103.021ZM66.6507 110.391C66.4846 108.869 66.4001 107.332 66.4032 105.828C66.4032 105.292 66.4122 104.76 66.4333 104.225L68.6978 104.312C68.6767 104.817 68.6677 105.323 68.6677 105.831C68.6646 107.257 68.7462 108.707 68.9032 110.151L66.6507 110.391ZM192.113 111.989L189.873 111.661C190.16 109.739 190.305 107.774 190.305 105.831H192.569C192.569 107.889 192.415 109.958 192.113 111.989ZM68.6616 119.419C67.9943 117.464 67.469 115.454 67.0976 113.445L69.3259 113.039C69.6761 114.937 70.1743 116.841 70.8053 118.694L68.6616 119.419ZM189.764 120.935L187.648 120.132C188.345 118.306 188.916 116.426 189.335 114.537L191.549 115.03C191.099 117.022 190.501 119.01 189.764 120.935ZM72.5354 127.815C71.4756 126.016 70.5396 124.163 69.7636 122.304L71.85 121.435C72.5928 123.197 73.4775 124.96 74.4859 126.669L72.5354 127.815ZM185.604 129.181L183.686 127.974C184.752 126.299 185.7 124.566 186.506 122.827L188.562 123.775C187.714 125.601 186.718 127.421 185.604 129.181ZM77.9521 135.284C76.5904 133.726 75.3283 132.09 74.187 130.417L76.062 129.148C77.149 130.748 78.3597 132.315 79.661 133.804L77.9521 135.284ZM179.951 136.479L178.288 134.945C179.634 133.492 180.893 131.963 182.032 130.402L183.867 131.729C182.675 133.362 181.358 134.963 179.951 136.479ZM84.5795 141.689C82.9733 140.371 81.4455 138.979 80.0415 137.541L81.6629 135.967C83.0095 137.345 84.4769 138.684 86.0198 139.95L84.5795 141.689ZM173.146 142.685L171.754 140.904C173.309 139.701 174.812 138.401 176.219 137.047L177.796 138.669C176.328 140.083 174.761 141.433 173.146 142.685ZM92.1218 146.971C90.3465 145.916 88.6255 144.769 87.0041 143.572L88.3537 141.761C89.9117 142.913 91.5723 144.014 93.2843 145.031L92.1218 146.971ZM165.468 147.769L164.353 145.807C166.087 144.833 167.774 143.771 169.372 142.658L170.67 144.508C169.015 145.663 167.264 146.758 165.468 147.769ZM100.331 151.12C98.4534 150.326 96.5875 149.438 94.791 148.482L95.8568 146.49C97.5929 147.417 99.3955 148.274 101.216 149.038L100.331 151.12ZM157.161 151.721L156.325 149.625C158.176 148.891 159.994 148.075 161.739 147.2L162.759 149.216C160.957 150.121 159.073 150.963 157.161 151.721ZM109.018 154.134C107.031 153.583 105.072 152.949 103.185 152.248L103.976 150.133C105.802 150.813 107.702 151.427 109.625 151.959L109.018 154.134ZM148.414 154.543L147.853 152.359C149.77 151.875 151.684 151.3 153.544 150.653L154.287 152.786C152.367 153.451 150.389 154.044 148.414 154.543ZM118.007 156.035C115.99 155.734 113.967 155.349 111.989 154.889L112.508 152.69C114.423 153.138 116.385 153.514 118.345 153.803L118.007 156.035ZM139.387 156.258L139.1 154.02C141.077 153.767 143.049 153.43 144.957 153.027L145.428 155.238C143.46 155.653 141.428 155.996 139.387 156.258ZM127.158 156.844C125.099 156.784 123.043 156.643 121.044 156.423L121.292 154.179C123.233 154.396 125.226 154.531 127.222 154.588L127.158 156.844ZM130.22 156.877L130.196 154.621C132.191 154.6 134.193 154.504 136.138 154.332L136.34 156.583C134.332 156.757 132.276 156.856 130.22 156.877Z" fill="#B2B2B2"/>
<path d="M133.908 30.6054C132.163 30.5268 130.416 30.4875 128.656 30.4875L127.904 30.4906L127.879 28.2244L128.656 28.2214C130.452 28.2214 132.236 28.2607 134.011 28.3392L133.908 30.6054ZM118.896 30.8864L118.708 28.6263C120.728 28.4601 122.77 28.3422 124.818 28.2818L124.891 30.548C122.876 30.6084 120.877 30.7202 118.896 30.8864ZM142.885 31.3396C140.913 31.1039 138.92 30.9166 136.905 30.7746L137.063 28.5145C139.114 28.6565 141.15 28.8499 143.159 29.0916L142.885 31.3396ZM109.952 31.9681L109.591 29.7322C111.59 29.4119 113.617 29.1399 115.662 28.9194L115.904 31.1734C113.902 31.388 111.915 31.6539 109.952 31.9681ZM151.781 32.7688C149.83 32.379 147.858 32.0346 145.865 31.7384L146.196 29.4965C148.231 29.7986 150.246 30.1491 152.233 30.548L151.781 32.7688ZM101.123 33.7477L100.583 31.5481C102.552 31.0647 104.551 30.6386 106.575 30.2579L106.994 32.4817C105.012 32.8564 103.058 33.2794 101.123 33.7477ZM160.531 34.8959C158.623 34.349 156.681 33.8505 154.718 33.4003L155.228 31.1915C157.233 31.6508 159.208 32.1615 161.159 32.7174L160.531 34.8959ZM92.4668 36.2315L91.7509 34.0832C93.6744 33.4456 95.6282 32.8534 97.6155 32.3155L98.2132 34.5001C96.2684 35.0319 94.354 35.609 92.4668 36.2315ZM169.069 37.7301C167.215 37.0261 165.325 36.3704 163.404 35.7631L164.093 33.6027C166.053 34.2221 167.986 34.8959 169.882 35.612L169.069 37.7301ZM84.0567 39.4222L83.1556 37.3403C85.0215 36.5396 86.9238 35.7903 88.8564 35.0863L89.6331 37.2195C87.7429 37.9024 85.8801 38.6396 84.0567 39.4222ZM177.342 41.2774C175.549 40.4193 173.72 39.6065 171.86 38.839L172.731 36.7421C174.633 37.5277 176.499 38.3616 178.325 39.2348L177.342 41.2774ZM75.959 43.326L74.8728 41.3318C76.6598 40.371 78.4893 39.4554 80.3613 38.5943L81.3139 40.6459C79.4905 41.4919 77.7035 42.3893 75.959 43.326ZM185.255 45.5347C183.553 44.5225 181.805 43.5466 180.018 42.622L181.071 40.6096C182.898 41.5584 184.685 42.5555 186.423 43.5949L185.255 45.5347ZM68.2496 47.9399L66.9875 46.0514C68.6774 44.9304 70.4159 43.8548 72.1968 42.8244L73.3406 44.7854C71.5991 45.7915 69.9001 46.843 68.2496 47.9399ZM192.728 50.5082C191.138 49.3358 189.478 48.1936 187.794 47.118L189.026 45.2114C190.75 46.3143 192.449 47.4836 194.078 48.6862L192.728 50.5082ZM61.0318 53.2638L59.5846 51.5113C61.1623 50.2241 62.8036 48.9732 64.4662 47.7948L65.786 49.641C64.1659 50.7922 62.567 52.0099 61.0318 53.2638ZM199.676 56.1796C198.222 54.8592 196.684 53.5629 195.109 52.3211L196.52 50.5444C198.137 51.8195 199.715 53.152 201.205 54.5026L199.676 56.1796ZM54.3965 59.2887L52.7733 57.6963C54.1992 56.2581 55.7041 54.844 57.2484 53.4934L58.7472 55.2006C57.2484 56.5089 55.78 57.8867 54.3965 59.2887ZM205.971 62.5398C204.666 61.0714 203.28 59.618 201.851 58.2281L203.438 56.6056C204.909 58.0348 206.335 59.5274 207.679 61.0412L205.971 62.5398ZM48.462 65.9814L46.675 64.5824C47.9159 63.0082 49.2539 61.434 50.6556 59.9111L52.3334 61.44C50.9711 62.9206 49.6695 64.4495 48.462 65.9814ZM211.502 69.5679C210.385 67.9574 209.172 66.3591 207.904 64.812L209.669 63.3798C210.974 64.9722 212.221 66.6189 213.374 68.2747L211.502 69.5679ZM43.3679 73.3176L41.4171 72.1423C42.4699 70.4139 43.6137 68.6947 44.8182 67.0329L46.6629 68.3593C45.4918 69.9698 44.3843 71.6377 43.3679 73.3176ZM216.135 77.1882C215.225 75.4508 214.22 73.7195 213.155 72.0426L215.073 70.8279C216.177 72.5592 217.212 74.348 218.149 76.1367L216.135 77.1882ZM39.2387 81.2159L37.1604 80.3004C37.9735 78.4542 38.8928 76.605 39.8819 74.8042L41.8783 75.895C40.9195 77.6384 40.0306 79.4272 39.2387 81.2159ZM219.733 85.3463C219.066 83.5122 218.301 81.6661 217.458 79.8592L219.518 78.9014C220.391 80.7687 221.183 82.6783 221.872 84.5789L219.733 85.3463ZM36.2108 89.5795L34.0264 88.9601C34.5816 87.0051 35.243 85.0472 35.9833 83.1376L38.104 83.9504C37.3911 85.7995 36.7539 87.691 36.2108 89.5795ZM222.169 93.8972C221.763 91.9665 221.259 90.0327 220.677 88.1594L222.852 87.4916C223.453 89.4314 223.975 91.4286 224.399 93.4319L222.169 93.8972ZM34.3874 98.2845L32.1302 97.9793C32.4032 95.964 32.7794 93.9274 33.2497 91.9332L35.4645 92.4469C35.0155 94.3746 34.6514 96.3386 34.3874 98.2845ZM223.371 102.705C223.243 100.738 223.022 98.7558 222.709 96.813L224.955 96.4534C225.279 98.4658 225.51 100.523 225.64 102.56L223.371 102.705ZM33.817 107.165H31.5415V106.66C31.5415 104.775 31.6265 102.883 31.7842 101.04L34.0536 101.233C33.8989 103.016 33.817 104.838 33.817 106.66V107.165ZM225.476 112.791L223.213 112.579C223.401 110.615 223.495 108.621 223.495 106.66L223.486 105.669L225.762 105.627L225.771 106.66C225.771 108.694 225.674 110.754 225.476 112.791ZM32.2758 116.353C31.9693 114.326 31.7569 112.268 31.6416 110.241L33.9111 110.117C34.0233 112.072 34.2296 114.054 34.53 116.012L32.2758 116.353ZM223.941 121.883L221.732 121.351C222.2 119.423 222.579 117.459 222.861 115.525L225.112 115.849C224.821 117.855 224.427 119.885 223.941 121.883ZM34.3085 125.336C33.7199 123.375 33.2163 121.372 32.8128 119.381L35.0427 118.931C35.4311 120.855 35.9196 122.792 36.4899 124.681L34.3085 125.336ZM221.138 130.657L219.023 129.826C219.751 127.989 220.404 126.104 220.962 124.218L223.143 124.856C222.57 126.805 221.893 128.76 221.138 130.657ZM37.5761 133.945C36.7236 132.086 35.9468 130.171 35.2672 128.255L37.4123 127.5C38.0707 129.355 38.8231 131.207 39.6453 133.008L37.5761 133.945ZM217.185 138.96L215.197 137.857C216.168 136.123 217.069 134.337 217.87 132.555L219.945 133.482C219.117 135.322 218.189 137.168 217.185 138.96ZM41.9663 142.057C40.8771 140.323 39.8546 138.525 38.9232 136.715L40.9499 135.682C41.851 137.434 42.8431 139.178 43.8959 140.858L41.9663 142.057ZM212.191 146.701L210.355 145.363C211.541 143.746 212.664 142.087 213.686 140.426L215.625 141.61C214.569 143.323 213.416 145.037 212.191 146.701ZM47.3212 149.545C46.0439 147.967 44.8061 146.312 43.6471 144.626L45.5282 143.347C46.6538 144.985 47.8522 146.593 49.0931 148.124L47.3212 149.545ZM206.308 153.781L204.642 152.234C205.989 150.789 207.303 149.273 208.538 147.723L210.322 149.134C209.047 150.729 207.697 152.294 206.308 153.781ZM53.5045 156.355C52.0361 154.911 50.6222 153.409 49.2963 151.892L51.0136 150.406C52.3 151.877 53.6775 153.337 55.1065 154.745L53.5045 156.355ZM199.679 160.159L198.192 158.449C199.682 157.162 201.153 155.796 202.567 154.385L204.181 155.983C202.728 157.437 201.214 158.842 199.679 160.159ZM60.3916 162.462C58.7927 161.181 57.2241 159.842 55.7314 158.473L57.2727 156.805C58.726 158.138 60.2551 159.446 61.8145 160.691L60.3916 162.462ZM192.436 165.825L191.123 163.972C192.761 162.821 194.366 161.613 195.898 160.371L197.333 162.129C195.762 163.401 194.114 164.643 192.436 165.825ZM67.8522 167.834C66.1289 166.716 64.4359 165.538 62.8218 164.332L64.1841 162.519C65.7618 163.694 67.4122 164.843 69.0961 165.933L67.8522 167.834ZM184.672 170.75L183.541 168.786C185.285 167.786 186.99 166.743 188.647 165.652L189.9 167.547C188.204 168.659 186.459 169.728 184.672 170.75ZM75.786 172.472C73.9656 171.514 72.1877 170.508 70.4462 169.462L71.6265 167.523C73.3255 168.547 75.067 169.532 76.8479 170.466L75.786 172.472ZM176.49 174.944L175.54 172.883C177.373 172.049 179.163 171.164 180.916 170.23L181.987 172.23C180.194 173.182 178.362 174.088 176.49 174.944ZM84.1082 176.382C82.212 175.59 80.3491 174.747 78.5288 173.862L79.53 171.825C81.3109 172.696 83.1313 173.517 84.9911 174.294L84.1082 176.382ZM167.983 178.4L167.212 176.27C169.105 175.59 170.971 174.865 172.801 174.091L173.689 176.176C171.821 176.968 169.918 177.711 167.983 178.4ZM92.7308 179.56C90.7739 178.932 88.8443 178.252 86.9541 177.524L87.7702 175.412C89.627 176.122 91.5141 176.79 93.4316 177.406L92.7308 179.56ZM159.205 181.138L158.62 178.95C160.568 178.43 162.482 177.859 164.369 177.243L165.082 179.397C163.152 180.026 161.196 180.609 159.205 181.138ZM101.587 182.014C99.5876 181.546 97.6125 181.029 95.6616 180.464L96.3018 178.285C98.2102 178.841 100.143 179.352 102.109 179.808L101.587 182.014ZM150.24 183.156L149.83 180.926C151.814 180.567 153.771 180.153 155.704 179.693L156.238 181.893C154.263 182.367 152.263 182.784 150.24 183.156ZM110.61 183.751C108.577 183.44 106.566 183.077 104.578 182.673L105.037 180.455C106.984 180.854 108.956 181.204 110.953 181.506L110.61 183.751ZM141.147 184.455L140.91 182.201C142.916 181.996 144.9 181.739 146.869 181.431L147.218 183.667C145.216 183.981 143.189 184.244 141.147 184.455ZM119.742 184.776C117.688 184.621 115.659 184.419 113.647 184.168L113.929 181.92C115.901 182.165 117.895 182.367 119.906 182.512L119.742 184.776ZM131.984 185.054L131.918 182.787C133.932 182.733 135.932 182.63 137.919 182.473L138.095 184.733C136.074 184.89 134.032 184.999 131.984 185.054ZM128.917 185.099H128.656C126.69 185.099 124.733 185.051 122.797 184.957L122.91 182.691C124.809 182.784 126.723 182.833 128.656 182.833L128.917 185.099Z" fill="#B2B2B2"/>
<path d="M136.552 2.38832C134.564 2.30722 132.573 2.26216 130.567 2.25316L130.579 0C132.606 0.00901794 134.627 0.0540619 136.64 0.135178L136.552 2.38832ZM121.6 2.46344L121.482 0.216293C123.491 0.111145 125.512 0.0420685 127.546 0.0150299L127.579 2.26819C125.573 2.29523 123.579 2.36429 121.6 2.46344ZM145.498 3.01323C143.522 2.81795 141.534 2.66171 139.534 2.53854L139.67 0.291397C141.7 0.414566 143.718 0.570816 145.721 0.772095L145.498 3.01323ZM112.653 3.18144L112.406 0.940323C114.406 0.724014 116.422 0.540741 118.452 0.399551L118.611 2.64673C116.611 2.78792 114.626 2.96513 112.653 3.18144ZM154.39 4.14281C152.429 3.83337 150.453 3.56297 148.465 3.32864L148.73 1.09354C150.749 1.32787 152.752 1.60425 154.743 1.91969L154.39 4.14281ZM103.77 4.41019L103.4 2.18407C105.382 1.85361 107.382 1.5592 109.4 1.29784L109.689 3.53595C107.701 3.79131 105.731 4.08273 103.77 4.41019ZM163.207 5.78911C161.27 5.36551 159.315 4.98099 157.339 4.63249L157.734 2.41539C159.737 2.76988 161.722 3.16045 163.689 3.58704L163.207 5.78911ZM94.9747 6.14659L94.4687 3.95053C96.4327 3.50291 98.4117 3.09134 100.412 2.71581L100.83 4.92691C98.8574 5.29642 96.9086 5.70197 94.9747 6.14659ZM171.906 7.94911C170.003 7.41437 168.072 6.91267 166.123 6.45001L166.647 4.25697C168.623 4.72864 170.584 5.23633 172.524 5.7831L171.906 7.94911ZM86.2966 8.40576L85.6609 6.23975C87.5948 5.67494 89.5468 5.1492 91.5197 4.6535L92.0709 6.83456C90.1281 7.32425 88.2003 7.84698 86.2966 8.40576ZM180.467 10.6319C178.593 9.97998 176.699 9.36411 174.78 8.78731L175.434 6.62729C177.382 7.21613 179.304 7.84399 181.208 8.50192L180.467 10.6319ZM77.778 11.1846L77.0069 9.06671C78.9016 8.38475 80.8204 7.73582 82.7602 7.12596L83.441 9.27399C81.5313 9.87782 79.6426 10.5147 77.778 11.1846ZM188.832 13.8374C187.003 13.0683 185.151 12.3353 183.274 11.6413L184.061 9.52933C185.967 10.2353 187.85 10.9804 189.705 11.7615L188.832 13.8374ZM69.4493 14.4863L68.5487 12.4224C70.3952 11.6203 72.2687 10.8542 74.1664 10.1242L74.9797 12.2241C73.1121 12.9421 71.2657 13.6962 69.4493 14.4863ZM196.977 17.5686C195.203 16.6853 193.398 15.8352 191.57 15.024L192.492 12.9632C194.35 13.7953 196.179 14.6575 197.983 15.5528L196.977 17.5686ZM61.3495 18.3166L60.3133 16.3159C62.1056 15.3966 63.928 14.5133 65.7745 13.6601L66.7203 15.706C64.9039 16.5442 63.1116 17.4154 61.3495 18.3166ZM204.848 21.8286C203.14 20.8252 201.399 19.8608 199.631 18.9325L200.685 16.9347C202.489 17.884 204.257 18.8664 205.995 19.8878L204.848 21.8286ZM53.5298 22.6757L52.3611 20.744C54.0841 19.7046 55.8402 18.6982 57.6325 17.7308L58.7078 19.7076C56.9517 20.6659 55.2257 21.6543 53.5298 22.6757ZM212.411 26.6112C210.779 25.4937 209.11 24.4122 207.405 23.3637L208.595 21.444C210.327 22.5165 212.026 23.6161 213.686 24.7516L212.411 26.6112ZM46.0295 27.5516L44.7312 25.707C46.3789 24.5534 48.0597 23.4268 49.7766 22.3333L50.9906 24.2349C49.3007 25.3104 47.647 26.413 46.0295 27.5516ZM219.608 31.9167C218.062 30.685 216.475 29.4863 214.854 28.3237L216.174 26.4911C217.827 27.6808 219.445 28.9005 221.02 30.1562L219.608 31.9167ZM38.9056 32.9561L37.4687 31.2107C39.0291 29.9369 40.6256 28.6932 42.2642 27.4795L43.6137 29.294C42.0021 30.4807 40.4358 31.7034 38.9056 32.9561ZM226.388 37.7388C224.945 36.3929 223.454 35.0831 221.921 33.8003L223.373 32.0759C224.936 33.3797 226.457 34.7196 227.93 36.0955L226.388 37.7388ZM32.2094 38.8714L30.6461 37.2461C32.101 35.8522 33.6011 34.4943 35.1403 33.1634L36.6224 34.8638C35.1072 36.1737 33.6372 37.5075 32.2094 38.8714ZM232.681 44.0747C231.349 42.6146 229.97 41.1907 228.542 39.7937L230.123 38.1864C231.581 39.6104 232.991 41.0675 234.352 42.5546L232.681 44.0747ZM26.0104 45.3034L24.3205 43.8073C25.6579 42.3022 27.0436 40.8272 28.4774 39.3761L30.0829 40.9623C28.6792 42.3803 27.3207 43.8284 26.0104 45.3034ZM238.428 50.9003C237.223 49.3411 235.967 47.8029 234.66 46.2978L236.373 44.8257C237.702 46.3639 238.988 47.9321 240.217 49.5273L238.428 50.9003ZM20.3745 52.2161L18.5612 50.8702C19.7631 49.2539 21.0221 47.6647 22.3324 46.1055L24.0614 47.5566C22.7812 49.0797 21.5523 50.6329 20.3745 52.2161ZM243.555 58.1915C242.494 56.5301 241.383 54.8898 240.211 53.2796L242.039 51.9607C243.235 53.607 244.377 55.2804 245.461 56.9838L243.555 58.1915ZM15.3743 59.5914L13.4464 58.4168C14.5007 56.6954 15.6182 55.001 16.7779 53.3367L18.6335 54.6255C17.4949 56.2507 16.4075 57.9091 15.3743 59.5914ZM247.982 65.9243C247.088 64.1759 246.121 62.4244 245.109 60.724L247.052 59.5734C248.088 61.3159 249.076 63.1094 249.995 64.9029L247.982 65.9243ZM11.0819 67.3904L9.05168 66.405C9.92221 64.6205 10.8771 62.8149 11.8922 61.0334L13.8591 62.148C12.8651 63.8844 11.9313 65.6479 11.0819 67.3904ZM251.645 74.0446C250.943 72.2391 250.151 70.4066 249.299 68.598L251.344 67.6397C252.218 69.4963 253.028 71.3769 253.751 73.2305L251.645 74.0446ZM7.58169 75.5528L5.4641 74.7747C6.16293 72.888 6.93711 70.9984 7.76546 69.1538L9.82584 70.0761C9.01857 71.8756 8.26245 73.7172 7.58169 75.5528ZM254.465 82.4745C253.947 80.6059 253.347 78.7072 252.685 76.8296L254.814 76.0785C255.495 78.0072 256.109 79.957 256.64 81.8766L254.465 82.4745ZM4.91895 84.0336L2.72907 83.4718C3.2291 81.5341 3.81044 79.5724 4.44903 77.6407L6.59368 78.3497C5.96714 80.2333 5.40391 82.147 4.91895 84.0336ZM256.39 91.1446C256.064 89.2009 255.667 87.2512 255.209 85.3405L257.402 84.8118C257.875 86.7765 258.284 88.7803 258.619 90.7751L256.39 91.1446ZM3.15678 92.7579L0.921751 92.4274C1.21695 90.4176 1.58742 88.4078 2.02118 86.44L4.22613 86.9207C3.80743 88.8374 3.44595 90.7991 3.15678 92.7579ZM257.396 99.968C257.278 98.0092 257.088 96.0264 256.832 94.0737L259.073 93.7823C259.336 95.7861 259.528 97.82 259.649 99.8328L257.396 99.968ZM2.32843 101.596L0.0692748 101.503C0.153616 99.5053 0.31026 97.4654 0.53015 95.4436L2.77724 95.69C2.56036 97.6637 2.40976 99.6495 2.32843 101.596ZM0.186792 110.63C0.0632915 108.767 0 106.89 0 105V104.555H2.25915V105C2.25915 106.842 2.31942 108.668 2.43991 110.483L0.186792 110.63ZM259.592 111.074L257.338 110.918C257.474 108.957 257.543 106.965 257.543 105C257.543 104.309 257.534 103.618 257.516 102.933L259.775 102.873C259.793 103.582 259.802 104.291 259.802 105C259.802 107.019 259.733 109.062 259.592 111.074ZM1.26209 119.691C0.918704 117.708 0.641584 115.68 0.436754 113.661L2.68686 113.439C2.88265 115.401 3.1538 117.374 3.48514 119.303L1.26209 119.691ZM258.468 120.126L256.242 119.733C256.588 117.78 256.865 115.806 257.073 113.871L259.32 114.106C259.11 116.095 258.823 118.119 258.468 120.126ZM3.28327 128.574C2.72903 126.618 2.2411 124.635 1.82843 122.68L4.04235 122.214C4.44297 124.125 4.91889 126.059 5.46109 127.964L3.28327 128.574ZM256.39 129.022L254.218 128.4C254.772 126.483 255.26 124.551 255.667 122.65L257.878 123.118C257.459 125.074 256.959 127.06 256.39 129.022ZM6.22017 137.202C5.47615 135.33 4.78641 133.405 4.1659 131.479L6.31959 130.794C6.92203 132.669 7.59372 134.546 8.32268 136.367L6.22017 137.202ZM253.41 137.632L251.317 136.793C252.061 134.943 252.745 133.068 253.344 131.227L255.492 131.927C254.877 133.813 254.176 135.733 253.41 137.632ZM10.0156 145.506C9.07576 143.691 8.1932 141.844 7.39497 140.011L9.46733 139.113C10.2445 140.897 11.1029 142.703 12.0217 144.475L10.0156 145.506ZM249.585 145.893L247.585 144.851C248.504 143.096 249.368 141.3 250.16 139.518L252.224 140.429C251.416 142.255 250.528 144.094 249.585 145.893ZM14.5911 153.404C13.4826 151.682 12.4284 149.931 11.4584 148.191L13.4344 147.095C14.3803 148.792 15.4074 150.505 16.4918 152.184L14.5911 153.404ZM244.979 153.764L243.085 152.539C244.166 150.877 245.19 149.183 246.163 147.464L248.133 148.567C247.139 150.327 246.076 152.076 244.979 153.764ZM19.8655 160.836C18.6154 159.232 17.4135 157.598 16.2719 155.933L18.1365 154.66C19.257 156.288 20.4258 157.886 21.6457 159.457L19.8655 160.836ZM239.672 161.179L237.898 159.788C239.124 158.226 240.301 156.63 241.425 155.005L243.286 156.291C242.133 157.949 240.928 159.58 239.672 161.179ZM25.7634 167.782C24.3808 166.289 23.0433 164.763 21.7662 163.209L23.5133 161.776C24.7633 163.3 26.0676 164.793 27.4231 166.259L25.7634 167.782ZM233.747 168.1L232.093 166.562C233.449 165.111 234.759 163.621 236.021 162.104L237.765 163.54C236.473 165.093 235.132 166.613 233.747 168.1ZM32.2125 174.22C30.7154 172.838 29.2635 171.426 27.8598 169.987L29.4774 168.413C30.857 169.831 32.2818 171.213 33.7487 172.565L32.2125 174.22ZM227.274 174.511L225.743 172.85C227.216 171.504 228.647 170.125 230.033 168.716L231.644 170.293C230.232 171.732 228.774 173.135 227.274 174.511ZM39.1466 180.132C37.5471 178.87 35.9868 177.576 34.4746 176.248L35.9687 174.556C37.4537 175.857 38.9809 177.128 40.5473 178.366L39.1466 180.132ZM220.321 180.4L218.927 178.627C220.496 177.395 222.029 176.131 223.52 174.833L225.002 176.536C223.481 177.855 221.921 179.144 220.321 180.4ZM46.4934 185.507C44.8065 184.362 43.1588 183.184 41.5503 181.98L42.9088 180.177C44.4872 181.367 46.1078 182.521 47.7615 183.641L46.4934 185.507ZM212.954 185.75L211.688 183.884C213.345 182.764 214.969 181.616 216.556 180.433L217.909 182.241C216.294 183.44 214.64 184.611 212.954 185.75ZM54.2046 190.346C52.4454 189.325 50.7194 188.271 49.0236 187.177L50.2496 185.284C51.9123 186.357 53.6112 187.396 55.3402 188.4L54.2046 190.346ZM205.221 190.563L204.092 188.616C205.824 187.616 207.526 186.582 209.191 185.519L210.411 187.414C208.712 188.496 206.983 189.547 205.221 190.563ZM62.2321 194.652C60.4097 193.75 58.6144 192.81 56.8523 191.84L57.9397 189.869C59.6808 190.821 61.4429 191.743 63.2381 192.633L62.2321 194.652ZM197.182 194.844L196.188 192.819C197.983 191.939 199.748 191.025 201.486 190.073L202.574 192.053C200.808 193.014 199.01 193.946 197.182 194.844ZM70.5187 198.416C68.6421 197.635 66.7925 196.818 64.9641 195.964L65.9251 193.924C67.7203 194.766 69.5427 195.568 71.3892 196.337L70.5187 198.416ZM188.886 198.581L188.016 196.505C189.868 195.733 191.694 194.937 193.489 194.105L194.444 196.148C192.615 196.992 190.763 197.806 188.886 198.581ZM79.0341 201.648C77.1093 200.984 75.2086 200.287 73.335 199.551L74.1634 197.454C76.0069 198.181 77.8805 198.866 79.7691 199.518L79.0341 201.648ZM180.365 201.787L179.63 199.657C181.527 199.005 183.401 198.323 185.247 197.608L186.064 199.708C184.187 200.438 182.292 201.129 180.365 201.787ZM87.7243 204.34C85.7664 203.799 83.8265 203.217 81.9078 202.604L82.6036 200.456C84.4922 201.065 86.402 201.633 88.3298 202.171L87.7243 204.34ZM171.662 204.457L171.063 202.288C172.997 201.753 174.906 201.189 176.795 200.588L177.485 202.736C175.566 203.343 173.626 203.92 171.662 204.457ZM96.5652 206.512C94.5741 206.086 92.6041 205.626 90.6552 205.124L91.2185 202.943C93.1403 203.439 95.0801 203.892 97.0411 204.313L96.5652 206.512ZM162.816 206.602L162.349 204.397C164.313 203.983 166.252 203.535 168.174 203.048L168.728 205.229C166.777 205.722 164.807 206.185 162.816 206.602ZM105.514 208.155C103.505 207.846 101.508 207.501 99.5352 207.116L99.9689 204.905C101.912 205.283 103.876 205.623 105.858 205.926L105.514 208.155ZM153.86 208.218L153.52 205.989C155.505 205.692 157.469 205.355 159.418 204.986L159.839 207.2C157.863 207.576 155.869 207.915 153.86 208.218ZM114.542 209.276C112.518 209.084 110.509 208.852 108.512 208.585L108.813 206.35C110.78 206.617 112.762 206.843 114.756 207.035L114.542 209.276ZM144.83 209.318L144.619 207.077C146.619 206.888 148.598 206.668 150.562 206.41L150.857 208.645C148.863 208.903 146.854 209.129 144.83 209.318ZM123.621 209.88C121.587 209.805 119.569 209.688 117.563 209.534L117.735 207.287C119.711 207.44 121.705 207.552 123.708 207.627L123.621 209.88ZM135.751 209.901L135.663 207.648C137.67 207.573 139.661 207.464 141.64 207.32L141.805 209.567C139.802 209.712 137.781 209.826 135.751 209.901ZM129.901 210C128.817 210 127.729 209.988 126.654 209.967L126.696 207.714C128.681 207.75 130.69 207.753 132.681 207.723L132.718 209.976C131.781 209.991 130.841 210 129.901 210Z" fill="#B2B2B2"/>
<path d="M234.341 177.872C231.846 168.313 221.71 162.496 211.703 164.883C201.698 167.268 195.612 176.952 198.11 186.512C200.608 196.075 210.74 201.891 220.748 199.504C230.752 197.117 236.839 187.432 234.341 177.872Z" fill="#0593A1"/>
<path d="M198.124 186.966C197.719 185.509 197.535 184.046 197.55 182.609C197.535 184.046 197.719 185.506 198.124 186.966Z" fill="#5D2B67" fill-opacity="0.5"/>
<path d="M216.254 200.04C210.254 200.04 204.643 197.203 201.156 192.551C200.707 191.953 200.292 191.321 199.916 190.665C199.135 189.289 198.521 187.793 198.112 186.193C197.715 184.646 197.535 183.1 197.55 181.577C197.55 181.571 197.55 181.565 197.55 181.559C197.55 181.55 197.55 181.538 197.553 181.529C197.553 181.52 197.553 181.509 197.553 181.5C197.553 181.494 197.553 181.491 197.553 181.485C197.651 175.108 201.196 169.214 206.82 166.008C204.435 169.983 203.574 174.837 204.808 179.658C206.929 187.96 214.562 193.505 222.949 193.505C224.448 193.505 225.975 193.326 227.495 192.957C229.266 192.525 230.912 191.857 232.411 191.002C229.956 195.09 225.883 198.252 220.8 199.491C219.276 199.861 217.753 200.04 216.254 200.04Z" fill="#09818D"/>
<path d="M149.814 24.8055C147.926 17.2475 140.269 12.6476 132.711 14.5335C125.15 16.4223 120.553 24.0791 122.439 31.637C124.325 39.1979 131.981 43.7949 139.542 41.9091C147.1 40.0232 151.7 32.3635 149.814 24.8055Z" fill="#E96B57"/>
<path d="M136.702 42.332C130.105 42.332 124.102 37.9177 122.431 31.3081C124.102 37.9177 130.105 42.329 136.702 42.332Z" fill="#5D2B67" fill-opacity="0.5"/>
<path d="M135.823 42.332C129.631 42.3292 123.998 38.1397 122.43 31.8626C122.262 31.1914 122.145 30.5173 122.08 29.849C122.012 29.1294 121.997 28.4155 122.04 27.713C122.046 27.5936 122.054 27.4741 122.066 27.3546C122.066 27.349 122.066 27.3461 122.066 27.3404C122.066 27.3347 122.066 27.329 122.068 27.3205C122.068 27.3148 122.068 27.3063 122.068 27.3006C122.068 27.2977 122.068 27.2949 122.068 27.292C122.464 22.8665 124.996 18.8562 128.857 16.6008C127.096 19.6071 126.462 23.2761 127.372 26.9223C128.94 33.1994 134.573 37.3889 140.765 37.3889C141.872 37.3889 142.995 37.2552 144.119 36.9765C145.425 36.6494 146.64 36.1431 147.747 35.4975C145.949 38.5664 142.978 40.9413 139.268 41.8941C139.265 41.8941 139.265 41.8941 139.265 41.8941C139.251 41.8969 139.24 41.8997 139.228 41.9054C139.226 41.9054 139.223 41.9054 139.22 41.9054C139.206 41.9082 139.191 41.9139 139.177 41.9168C138.053 42.1955 136.929 42.332 135.823 42.332Z" fill="#CB5F4E"/>
<path d="M86.0623 125.299C84.8983 120.632 80.1686 117.791 75.4987 118.958C70.8288 120.121 67.9904 124.851 69.1543 129.521C70.321 134.191 75.0508 137.029 79.7178 135.866C84.3877 134.699 87.229 129.969 86.0623 125.299Z" fill="#F89F26"/>
<path d="M76.9079 136.126C73.3135 136.126 70.0447 133.423 69.1336 129.375C69.131 129.36 69.1283 129.346 69.1257 129.334C69.1257 129.331 69.1231 129.328 69.1231 129.325C69.1205 129.311 69.1178 129.299 69.1152 129.284C69.1152 129.281 69.1126 129.279 69.1126 129.279C69.1099 129.264 69.1073 129.252 69.1047 129.238C69.1047 129.238 69.1047 129.238 69.1047 129.235C69.1021 129.223 69.0995 129.208 69.0969 129.194C69.0942 129.191 69.0942 129.188 69.0942 129.185C69.0916 129.174 69.089 129.159 69.0863 129.147C69.0863 129.144 69.0837 129.141 69.0837 129.139C69.0811 129.127 69.0785 129.115 69.0758 129.101V129.098C69.0732 129.083 69.0706 129.071 69.0679 129.057C69.0679 129.054 69.0679 129.051 69.0653 129.048C69.0627 129.034 69.0627 129.022 69.0601 129.007C69.0574 129.004 69.0574 129.004 69.0574 129.001C69.0548 128.99 69.0522 128.975 69.0522 128.964C69.0496 128.961 69.0496 128.961 69.0496 128.958C69.0469 128.946 69.0443 128.931 69.0417 128.92C69.0417 128.914 69.0417 128.911 69.0417 128.908C69.039 128.896 69.0365 128.882 69.0338 128.87C69.0338 128.867 69.0338 128.864 69.0338 128.864C69.0312 128.85 69.0286 128.838 69.026 128.826C69.026 128.824 69.026 128.821 69.026 128.818C69.0233 128.806 69.0207 128.791 69.0181 128.777C69.0181 128.777 69.0181 128.774 69.0181 128.771C69.0155 128.756 69.0128 128.745 69.0128 128.73H69.0102C69.0102 128.716 69.0076 128.701 69.0049 128.686C69.0049 128.684 69.0049 128.684 69.0049 128.681C69.0023 128.666 68.9997 128.654 68.9971 128.64C68.9971 128.637 68.9971 128.637 68.9971 128.634C68.9918 128.605 68.9892 128.576 68.9839 128.546V128.544C68.9813 128.529 68.9813 128.514 68.9787 128.5V128.497C68.9734 128.468 68.9708 128.439 68.9656 128.406C68.5271 124.805 70.1155 121.313 72.8671 119.526C71.8431 121.465 71.4756 123.833 72.0033 126.187C72.9144 130.235 76.1832 132.939 79.7802 132.939C80.4208 132.939 81.0746 132.854 81.7257 132.673C82.4845 132.463 83.1908 132.137 83.834 131.72C82.7812 133.715 81.0352 135.257 78.856 135.861C78.2049 136.042 77.5511 136.126 76.9079 136.126Z" fill="#D78C24"/>
<path fill-rule="evenodd" clip-rule="evenodd" d="M154.387 105.413C154.387 105.858 154.378 106.299 154.351 106.737C153.683 119.761 143.167 130.134 130.238 130.31L129.901 130.316C116.38 130.316 105.415 119.163 105.415 105.413C105.415 91.6643 116.38 80.5138 129.901 80.5138C143.422 80.5138 154.387 91.6643 154.387 105.413Z" fill="#FFBE3B"/>
</svg>
