<svg width="239" height="239" viewBox="0 0 239 239" fill="none" xmlns="http://www.w3.org/2000/svg">
<path d="M124.062 92.0593L114.189 81.4813L116.711 78.7815L126.582 89.3595L124.062 92.0593Z" fill="#575756"/>
<path d="M149.596 117.596L160.172 127.467L162.874 124.947L152.295 115.074L149.596 117.596Z" fill="#575756"/>
<path d="M89.3566 125.696L78.7812 115.118L81.4803 112.419L92.059 122.994L89.3566 125.696Z" fill="#575756"/>
<path d="M114.189 151.936L124.059 161.104L126.582 158.762L116.708 149.596L114.189 151.936Z" fill="#575756"/>
<path d="M74.308 119.5L0 45.192L45.192 0L119.5 74.308L74.308 119.5Z" fill="#DADADA"/>
<path d="M119.5 165.244L193.806 239L239 194.141L164.694 120.385L119.5 165.244Z" fill="#DADADA"/>
<path d="M35.4075 205.363L47.3936 172.611L51.9051 174.178L43.3067 197.669L67.4353 189.301L69.0445 193.69L35.4075 205.363Z" fill="#575756"/>
<path d="M61.9629 173.166L73.6794 160.218L78.7814 165.86L67.0679 178.807L61.9629 173.166Z" fill="#DADADA"/>
<path d="M61.9629 163.087L69.5366 155.793L85.8629 171.513L78.2893 178.807L61.9629 163.087Z" fill="#706F6F"/>
<path d="M78.7812 138.8L130.028 89.4037L152.252 110.822L101.005 160.219L78.7812 138.8Z" fill="#575756"/>
<path d="M61.9629 154.731L112.592 105.337L134.548 126.758L83.9192 176.152L61.9629 154.731Z" fill="#575756"/>
<path d="M143.879 84.4784C140.879 81.5785 140.879 76.8788 143.879 73.9789L143.987 73.8749C146.987 70.975 151.849 70.975 154.848 73.8749L165.935 84.5919C168.935 87.4887 168.935 92.1915 165.935 95.0883L165.824 95.1954C162.827 98.0953 157.962 98.0953 154.966 95.1954L143.879 84.4784Z" fill="#575756"/>
<path d="M64.6187 146.614L93.9376 116.844L122.156 145.5L92.8398 175.267L64.6187 146.614Z" fill="#DADADA"/>
<path d="M111.533 99.6795L140.398 70.8147L168.185 98.5986L139.32 127.467L111.533 99.6795Z" fill="#DADADA"/>
<path d="M66.5625 174.339C53.117 161.42 35.3171 155.268 17.7036 155.828L85.8269 221.296C86.4055 204.368 80.008 187.261 66.5625 174.339Z" fill="#DADADA"/>
<path d="M32.752 200.984L38.2005 193.856L44.2594 201.779L38.8109 208.904L32.752 200.984Z" fill="#706F6F"/>
<path d="M44.7398 6.19629L66.389 28.4163L54.4011 40.7185L32.752 18.5017L44.7398 6.19629Z" fill="#0593A1"/>
<path d="M70.4123 29.2112L92.0594 51.4279L80.0727 63.7334L58.4224 41.5166L70.4123 29.2112Z" fill="#0593A1"/>
<path d="M93.4269 53.111L115.074 74.7582L103.084 86.748L81.437 65.0978L93.4269 53.111Z" fill="#0593A1"/>
<path d="M32.3473 18.5889L53.9964 40.8077L42.0085 53.1111L20.3594 30.8922L32.3473 18.5889Z" fill="#0593A1"/>
<path d="M55.3639 41.6038L77.0111 64.3903L65.0211 77.0112L43.374 54.2248L55.3639 41.6038Z" fill="#0593A1"/>
<path d="M78.3786 66.3888L100.026 88.0359L88.0358 100.026L66.3887 78.3787L78.3786 66.3888Z" fill="#0593A1"/>
<path d="M17.301 33.6371L38.9481 55.2863L26.9613 67.2742L5.31104 45.625L17.301 33.6371Z" fill="#0593A1"/>
<path d="M42.4016 56.6519L64.6184 79.4417L52.313 92.0593L30.0962 69.2729L42.4016 56.6519Z" fill="#0593A1"/>
<path d="M66.2982 81.4369L88.5183 103.084L76.2129 115.074L53.9961 93.4268L66.2982 81.4369Z" fill="#0593A1"/>
<path d="M235.459 194.258L213.242 172.611L200.937 184.601L223.157 206.248L235.459 194.258Z" fill="#0593A1"/>
<path d="M211.559 171.246L189.91 149.596L177.922 161.584L199.572 183.233L211.559 171.246Z" fill="#0593A1"/>
<path d="M187.659 147.915L165.439 125.696L153.137 138L175.354 160.219L187.659 147.915Z" fill="#0593A1"/>
<path d="M220.411 209.31L198.194 187.659L185.889 199.649L208.109 221.296L220.411 209.31Z" fill="#0593A1"/>
<path d="M197.396 183.323L175.177 161.104L162.874 173.407L185.093 195.626L197.396 183.323Z" fill="#0593A1"/>
<path d="M172.611 160.306L150.391 138.089L138.089 150.391L160.306 172.611L172.611 160.306Z" fill="#0593A1"/>
<path d="M206.248 221.387L184.601 199.167L172.611 211.472L194.258 233.689L206.248 221.387Z" fill="#0593A1"/>
<path d="M183.233 198.371L161.584 176.152L149.596 188.455L171.245 210.674L183.233 198.371Z" fill="#0593A1"/>
<path d="M160.219 175.354L138.569 153.137L126.582 165.439L148.231 187.659L160.219 175.354Z" fill="#0593A1"/>
</svg>
