<svg width="263" height="152" viewBox="0 0 263 152" fill="none" xmlns="http://www.w3.org/2000/svg">
<path d="M204.419 57.6021C214.516 98.3146 189.9 139.56 149.435 149.722C108.967 159.88 67.9759 135.114 57.8756 94.398C47.7753 53.6855 72.3912 12.4404 112.859 2.27829C153.324 -7.88046 194.318 16.8862 204.419 57.6021Z" fill="#F6D864"/>
<path d="M86.9302 66.7317C86.7394 66.0054 86.5581 65.2722 86.3896 64.5321C85.2511 59.6227 84.5769 54.7029 84.3416 49.8311C86.5232 49.6393 88.7016 49.4166 90.8737 49.1631C91.0963 49.1357 91.3189 49.1219 91.5384 49.1219C95.0493 49.1219 98.3185 52.3219 99.0373 56.7072C99.7973 61.3631 97.2372 65.6182 93.2938 66.0773C91.1758 66.3239 89.0546 66.5433 86.9302 66.7317Z" fill="#F7C14B"/>
<path d="M167.549 80.6342C164.122 80.6342 160.951 78.2932 159.835 74.6456C158.427 70.0336 160.675 65.1317 164.814 63.5594C177.543 58.7343 189.984 52.9694 202.087 46.3415C203.315 49.486 204.376 52.7319 205.217 56.093C205.217 56.1 205.217 56.1034 205.22 56.1069C205.231 56.1593 205.244 56.2083 205.258 56.2607C205.265 56.2991 205.275 56.3375 205.286 56.3759C205.867 58.7518 206.323 61.1242 206.683 63.4931C194.836 69.852 182.688 75.4247 170.271 80.131C169.368 80.4734 168.448 80.6342 167.549 80.6342Z" fill="#F7C14B"/>
<path d="M129.918 45.4146C126.62 45.4146 123.52 42.6479 122.611 38.6724C121.56 34.0636 123.681 29.6157 127.327 28.6158C142.906 24.3391 158.089 18.4804 172.746 11.1219C177.684 14.5221 182.238 18.5351 186.293 23.0858C168.727 32.6083 150.385 40.0182 131.484 45.2057C130.962 45.3495 130.44 45.4146 129.918 45.4146Z" fill="#F7C14B"/>
<path d="M98.891 91.7561C94.38 86.1388 90.6965 79.8082 88.0488 72.8879C101.165 71.7911 114.128 69.8066 126.87 66.9536C127.548 66.8046 128.227 66.7317 128.899 66.7317C133.254 66.7317 137.368 69.7686 138.652 74.3652C140.138 79.6687 137.047 85.1053 131.699 86.3005C120.9 88.7192 109.952 90.542 98.891 91.7561Z" fill="#F7C14B"/>
<path d="M87.1221 30.5854C88.6509 23.3721 91.2686 16.4718 94.8327 10.1207C95.5638 9.70559 96.3013 9.30013 97.0515 8.91057C102.255 8.01011 107.437 6.99789 112.571 5.7877C113.216 5.63443 113.869 5.561 114.511 5.561C118.677 5.561 122.611 8.62314 123.839 13.2532C125.26 18.5952 122.304 24.0715 117.189 25.2753C107.291 27.6094 97.2572 29.3752 87.1221 30.5854Z" fill="#F7C14B"/>
<path d="M159.544 123.268C150.525 123.268 141.72 121.683 133.463 118.714C135.652 118.233 137.843 117.738 140.049 117.223C164.024 111.61 186.089 104.388 204.829 96.3903C203.52 100.934 201.807 105.336 199.715 109.544C187.733 114.828 175.499 119.382 163.062 123.189C161.887 123.244 160.715 123.268 159.544 123.268Z" fill="#F7C14B"/>
<path d="M261.94 45.374C258.355 30.1348 228.078 23.1343 186.293 25.4623C188.916 28.3101 191.315 31.3798 193.484 34.6416C221.101 33.7508 241.955 37.8803 244.655 49.3677C247.358 60.8518 230.494 73.6968 205.322 84.9988C204.831 88.8732 204.036 92.6814 202.953 96.3903C241.48 80.1642 265.525 60.6133 261.94 45.374Z" fill="#F89F26"/>
<path d="M17.4204 102.613C14.7533 90.678 31.4094 77.3363 56.2748 65.5909C56.76 61.5657 57.5456 57.6093 58.6151 53.7561C20.5562 70.6173 -3.19345 90.9258 0.348368 106.762C3.89019 122.594 33.7993 129.864 75.0732 127.449C72.4853 124.49 70.1153 121.297 67.973 117.908C40.6914 118.837 20.0908 114.547 17.4204 102.613Z" fill="#F89F26"/>
<path d="M239.91 50.8547C238.303 44.2572 222.435 40.3997 197.415 40.8103C199.124 43.8793 200.632 47.0917 201.895 50.4409C211.533 50.8514 217.515 52.5684 218.274 55.6798C219.033 58.7944 214.454 62.8701 205.984 67.3205C206.399 70.8555 206.542 74.3741 206.423 77.8536C229.063 67.6301 241.517 57.4521 239.91 50.8547Z" fill="#F89F26"/>
<path d="M21.4556 101.317C23.0626 108.409 38.9278 112.556 63.9513 112.114C62.2388 108.812 60.7306 105.362 59.4709 101.758C49.8292 101.32 43.8474 99.4709 43.0882 96.1262C42.329 92.7779 46.9081 88.3965 55.3786 83.6123C54.9632 79.8158 54.8202 76.0332 54.9394 72.2927C32.2991 83.2831 19.8487 94.2243 21.4556 101.317Z" fill="#F89F26"/>
<path d="M240.977 50.6644C242.625 57.4367 229.855 67.8845 206.641 78.379C206.564 80.6933 206.376 82.9908 206.076 85.2683C232.372 73.8541 249.991 60.8814 247.167 49.2832C244.346 37.6817 222.559 33.5112 193.707 34.4108C195.023 36.3271 196.263 38.307 197.404 40.3537C223.059 39.9323 239.33 43.8921 240.977 50.6644Z" fill="#F89F26"/>
<path d="M16.047 101.52C18.8222 113.333 40.2321 117.579 68.5854 116.659C67.2886 114.708 66.0742 112.696 64.9525 110.612C39.7381 111.041 23.7519 107.009 22.1327 100.114C20.5135 93.2187 33.0589 82.5812 55.8718 71.896C55.9508 69.5363 56.136 67.1969 56.4276 64.8781C30.5855 76.5031 13.2751 89.7081 16.047 101.52Z" fill="#F89F26"/>
<path d="M261.941 45.6705C258.531 30.9046 230.882 23.7652 192.167 25.2066L192.822 25.7677C195.418 28.4252 198.203 31.4187 200.698 34.6709C224.7 34.6574 242.271 39.0687 244.73 49.7223C249.481 70.2971 193.521 95.1756 138.46 108.137C83.3947 121.099 22.3109 123.773 17.5597 103.195C15.1075 92.5752 28.8554 80.8096 50.2825 70.1258C50.2526 66.42 50.5753 62.6538 51.1975 59.0085C17.4865 74.7184 -2.96906 92.8709 0.351473 107.247C5.6051 130.006 68.4223 134.672 140.659 117.669C212.895 100.665 267.195 68.4291 261.941 45.6705Z" fill="#F89F26"/>
<path d="M239.911 51.1208C238.487 45.0428 225.764 41.2202 205.349 40.7805C207.253 44.1299 208.609 47.6674 209.018 51.3155C214.549 52.1579 217.911 53.7352 218.464 56.0913C220.526 64.8978 182.899 81.1448 134.419 92.3845C85.9386 103.624 44.964 105.598 42.8986 96.7911C42.2472 94.0123 45.558 90.4917 51.9095 86.622C50.5191 83.6384 49.6213 80.242 49.1252 76.651C30.209 86.2495 19.9965 95.5493 21.4545 101.765C24.3029 113.917 72.3344 117.059 136.704 102.137C201.077 87.2127 242.76 63.2734 239.911 51.1208Z" fill="#F89F26"/>
<path d="M247.176 49.1462C244.674 38.6327 226.797 34.2795 202.376 34.2927C203.896 36.2091 205.304 38.2182 206.506 40.3004C226.983 40.7347 239.745 44.5111 241.174 50.5155C244.031 62.5209 202.22 86.1704 137.65 100.914C73.0842 115.655 24.9057 112.552 22.0486 100.546C20.5862 94.4061 30.8298 85.2189 49.804 75.7365C49.5095 73.6378 49.3538 71.4761 49.3368 69.2812C27.536 79.8245 13.5483 91.4354 16.0432 101.916C20.8773 122.223 83.0266 119.584 139.052 106.793C195.074 94.0016 252.01 69.4503 247.176 49.1462Z" fill="#F89F26"/>
<path d="M261.94 45.374C258.355 30.1348 228.078 23.1343 186.293 25.4623C188.916 28.3101 191.315 31.3798 193.484 34.6416C221.101 33.7508 241.955 37.8803 244.655 49.3677C247.358 60.8518 230.494 73.6968 205.322 84.9988C204.831 88.8732 204.036 92.6814 202.953 96.3903C241.48 80.1642 265.525 60.6133 261.94 45.374Z" fill="#F89F26"/>
<path d="M17.4204 102.613C14.7533 90.678 31.4094 77.3363 56.2748 65.5909C56.76 61.5657 57.5456 57.6093 58.6151 53.7561C20.5562 70.6173 -3.19345 90.9258 0.348368 106.762C3.89019 122.594 33.7993 129.864 75.0732 127.449C72.4853 124.49 70.1153 121.297 67.973 117.908C40.6914 118.837 20.0908 114.547 17.4204 102.613Z" fill="#F89F26"/>
<path d="M239.91 50.8547C238.303 44.2572 222.435 40.3997 197.415 40.8103C199.124 43.8793 200.632 47.0917 201.895 50.4409C211.533 50.8514 217.515 52.5684 218.274 55.6798C219.033 58.7944 214.454 62.8701 205.984 67.3205C206.399 70.8555 206.542 74.3741 206.423 77.8536C229.063 67.6301 241.517 57.4521 239.91 50.8547Z" fill="#F89F26"/>
<path d="M21.4556 101.317C23.0626 108.409 38.9278 112.556 63.9513 112.114C62.2388 108.812 60.7306 105.362 59.4709 101.758C49.8292 101.32 43.8474 99.4709 43.0882 96.1262C42.329 92.7779 46.9081 88.3965 55.3786 83.6123C54.9632 79.8158 54.8202 76.0332 54.9394 72.2927C32.2991 83.2831 19.8487 94.2243 21.4556 101.317Z" fill="#F89F26"/>
<path d="M240.977 50.6644C242.625 57.4367 229.855 67.8845 206.641 78.379C206.564 80.6933 206.376 82.9908 206.076 85.2683C232.372 73.8541 249.991 60.8814 247.167 49.2832C244.346 37.6817 222.559 33.5112 193.707 34.4108C195.023 36.3271 196.263 38.307 197.404 40.3537C223.059 39.9323 239.33 43.8921 240.977 50.6644Z" fill="#F89F26"/>
<path d="M244.683 49.1219C242.047 38.6499 224.568 34.2994 200.741 34.2994C224.571 34.2994 242.047 38.6499 244.683 49.1219ZM204.703 40.3807C203.413 40.3538 202.09 40.3405 200.741 40.3405C200.738 40.3405 200.731 40.3405 200.728 40.3405C199.638 40.3405 198.529 40.3471 197.399 40.3672C197.346 40.3672 197.289 40.3706 197.236 40.3706C196.146 38.3178 194.963 36.332 193.707 34.41C196.07 34.3329 198.379 34.2927 200.634 34.2927C200.634 34.2927 200.638 34.296 200.638 34.2994C200.668 34.2994 200.698 34.2994 200.724 34.2994C200.694 34.2994 200.668 34.2994 200.638 34.2994C202.134 36.2382 203.52 38.2708 204.703 40.3773V40.3807Z" fill="#E39531"/>
<path d="M16.047 101.52C18.8222 113.333 40.2321 117.579 68.5854 116.659C67.2886 114.708 66.0742 112.696 64.9525 110.612C39.7381 111.041 23.7519 107.009 22.1327 100.114C20.5135 93.2187 33.0589 82.5812 55.8718 71.896C55.9508 69.5363 56.136 67.1969 56.4276 64.8781C30.5855 76.5031 13.2751 89.7081 16.047 101.52Z" fill="#F89F26"/>
<path d="M59.2811 112.146C37.2565 112.146 23.388 108.063 21.8551 101.319C23.388 108.063 37.2598 112.146 59.2811 112.146ZM16.1197 103.082C16.1033 103.015 16.0869 102.952 16.0738 102.885C16.0673 102.86 16.0607 102.836 16.0542 102.811C16.0542 102.8 16.0509 102.793 16.0509 102.786C16.0706 102.885 16.0968 102.983 16.1197 103.082ZM48.2491 68.0966C48.2491 68.0931 48.2491 68.0896 48.2491 68.0861C50.2865 67.0062 52.3959 65.9368 54.5709 64.8781C54.2892 67.2735 54.1123 69.6901 54.037 72.1277C52.1863 73.0669 50.4077 74.006 48.7011 74.9382C48.4162 72.7116 48.2655 70.4217 48.2491 68.0966Z" fill="#E39531"/>
<path d="M130.522 152C123.929 152 117.448 150.402 111.219 147.366C117.448 150.402 123.929 152 130.526 152C134.865 152 139.258 151.31 143.659 149.878C139.255 151.31 134.868 152 130.522 152Z" fill="#5D2B67" fill-opacity="0.5"/>
<path d="M131.225 152C124.715 152 118.319 151.13 112.173 149.477C97.9252 145.642 84.9989 137.593 75.0732 126.359C75.08 126.359 75.08 126.359 75.0901 126.359C78.2829 129.968 81.7859 133.249 85.5417 136.169C87.6152 136.061 89.6988 136.016 91.7689 135.87C95.5719 135.595 98.2219 132.313 97.7061 128.631C97.4768 127.003 96.6879 125.569 95.5585 124.497C102.247 123.683 109.139 122.653 116.178 121.4C118.397 126.832 123.744 130.521 129.695 130.521C130.669 130.521 131.654 130.42 132.648 130.215C143.036 128.078 153.305 125.409 163.437 122.218C168.41 121.985 173.443 121.24 178.457 119.945C185.254 118.195 191.595 115.532 197.415 112.146C187.509 130.215 170.736 144.222 149.684 149.647C147.854 150.117 146.016 150.518 144.186 150.845C139.843 151.624 135.507 152 131.225 152ZM181.245 132.64C172.617 136.061 163.848 139.016 154.947 141.449C151.788 142.315 149.772 145.715 149.887 149.588C161.903 146.456 172.506 140.519 181.245 132.64Z" fill="#D6BC59"/>
<path d="M149.224 149.219C149.115 145.407 151.022 142.06 154.009 141.207C162.427 138.812 170.719 135.904 178.878 132.537C170.614 140.292 160.587 146.136 149.224 149.219Z" fill="#D7A944"/>
<path d="M85.7509 136.244C81.9139 133.462 78.3351 130.335 75.0732 126.896C81.7761 126.531 88.7648 125.941 95.9843 125.122C97.1382 126.143 97.9442 127.51 98.1784 129.061C98.7054 132.57 95.9981 135.697 92.1128 135.959C89.9979 136.098 87.8693 136.141 85.7509 136.244Z" fill="#D7A944"/>
<path d="M128.446 128.829C122.494 128.829 117.146 126.159 114.927 122.226C120.926 121.455 127.043 120.566 133.231 119.561C141.311 121.722 149.927 122.876 158.752 122.876C159.899 122.876 161.045 122.859 162.195 122.818C152.062 125.128 141.79 127.061 131.4 128.608C130.405 128.756 129.421 128.829 128.446 128.829Z" fill="#D7A944"/>
<path d="M59.3172 101.024H59.3141C58.5199 98.4571 57.83 95.8112 57.2504 93.1007C56.4961 89.5631 55.9502 86.0183 55.6099 82.4878C55.6099 82.4878 55.6099 82.4878 55.6129 82.4878C55.941 85.9037 56.4623 89.3339 57.1799 92.7641C57.1829 92.7677 57.1829 92.7749 57.1829 92.7785C57.1952 92.825 57.2044 92.8679 57.2136 92.9145C57.2136 92.9252 57.2167 92.9396 57.2197 92.9503C57.232 92.9969 57.2412 93.0541 57.2535 93.1007C57.833 95.8112 58.523 98.4571 59.3172 101.024Z" fill="#5D2B67" fill-opacity="0.5"/>
<path d="M64.7854 101.024C63.1397 101.024 61.5814 100.991 60.107 100.927C60.1036 100.924 60.1036 100.92 60.1036 100.917C59.2337 98.5101 58.4781 96.0294 57.8433 93.4883C57.9239 93.8173 58.0246 94.1361 58.112 94.4651C60.6913 94.5289 63.2707 94.5625 65.8433 94.5625C77.2859 94.5625 88.6512 93.9146 99.9024 92.6222C101.145 94.2369 102.445 95.7945 103.805 97.295C88.5303 99.7589 75.0625 101.021 64.7854 101.024ZM57.8433 93.4883C57.8299 93.4447 57.8198 93.391 57.8064 93.3473C57.8198 93.3943 57.8299 93.4413 57.8433 93.4883ZM57.7627 93.1728C56.9768 89.9569 56.4059 86.741 56.0465 83.5386C56.0465 83.5352 56.0498 83.5353 56.0532 83.5353C56.4092 86.7377 56.9768 89.9569 57.7627 93.1728ZM64.1507 73.7165C61.3093 73.7165 58.4613 73.6728 55.6099 73.5889C55.6166 73.2834 55.6233 72.9813 55.6334 72.6759C55.6871 71.0545 55.7912 69.4399 55.9457 67.8387C58.6023 67.9092 61.2522 67.946 63.8988 67.946C71.6671 67.946 79.3984 67.6339 87.0761 66.9961C87.6134 68.9162 88.2213 70.7993 88.8998 72.6423C80.7049 73.3573 72.4496 73.7165 64.1507 73.7165ZM58.5385 54.2199C63.9861 35.4115 76.6344 19.1005 94.082 9.26832C94.082 9.26832 94.082 9.26832 94.082 9.27168C83.8955 15.0085 75.3514 22.9509 68.9164 32.3165C74.6058 31.9607 80.2649 31.4538 85.9006 30.7857C84.537 37.1537 83.9896 43.7499 84.3422 50.4367C77.0643 51.0309 69.7359 51.3296 62.374 51.3296C61.4034 51.3296 60.4327 51.3229 59.4621 51.3128C59.1397 52.2729 58.8408 53.2397 58.5587 54.2132C58.552 54.2132 58.5452 54.2166 58.5385 54.2199Z" fill="#D6BC59"/>
<path d="M63.6605 66.7317C60.9815 66.7317 58.2991 66.6946 55.6099 66.6237C55.6779 65.9249 55.756 65.2259 55.8444 64.5305C56.3442 60.5804 57.1534 56.6979 58.2549 52.9167C58.5405 51.941 58.843 50.9686 59.1694 50.0031C60.1519 50.0132 61.1345 50.0199 62.117 50.0199C69.5692 50.0199 76.9875 49.7195 84.3547 49.1219C84.6063 53.9228 85.327 58.7708 86.5441 63.6088C86.7243 64.338 86.9181 65.0606 87.1221 65.7763C79.3502 66.4178 71.5241 66.7317 63.6605 66.7317Z" fill="#D7A944"/>
<path d="M65.687 93.6097C63.1578 93.6097 60.622 93.5771 58.0862 93.5151C58.0004 93.1951 57.9014 92.885 57.8221 92.5651C57.8089 92.5194 57.799 92.4737 57.7858 92.428C57.7825 92.415 57.7825 92.4084 57.7792 92.3954C57.7693 92.3529 57.7594 92.3138 57.7462 92.2714C57.7462 92.2681 57.7462 92.2615 57.7429 92.2583C56.9702 89.1309 56.4122 86.0003 56.0622 82.886C56.0655 82.8827 56.0721 82.8794 56.0754 82.8762C55.7651 80.1373 55.6099 77.4081 55.6099 74.7019C55.6099 74.2057 55.6165 73.7095 55.6264 73.2133C58.4296 73.2949 61.2296 73.3374 64.0229 73.3374C72.1817 73.3374 80.2976 72.988 88.3541 72.2927C90.9955 79.419 94.6705 85.9382 99.1708 91.7229C88.1097 92.9797 76.9363 93.6097 65.687 93.6097Z" fill="#D7A944"/>
<path d="M68.5854 30.5854C74.7473 21.9219 82.9289 14.5751 92.683 9.26831C89.0618 15.4445 86.4021 22.1548 84.8488 29.1694C79.4523 29.7873 74.0334 30.2562 68.5854 30.5854Z" fill="#D7A944"/>
<path d="M55.6099 64.8781C55.8004 61.0986 56.1089 57.3838 56.5289 53.7658C56.5315 53.7626 56.5341 53.7593 56.5367 53.7561C56.1167 57.3741 55.8082 61.0889 55.6176 64.8684C55.615 64.8748 55.6125 64.8748 55.6099 64.8781Z" fill="#D78C24"/>
<path d="M59.3172 101.024H59.3144C59.3144 101.021 59.3117 101.018 59.3117 101.014H59.3144C59.3144 101.018 59.3144 101.021 59.3172 101.024ZM55.9955 83.3402C55.6606 79.636 55.5481 75.949 55.6414 72.303C55.6496 72.2995 55.6551 72.2961 55.6606 72.2927C55.6524 72.6034 55.6469 72.9106 55.6414 73.2213C55.6332 73.7402 55.6277 74.2591 55.6277 74.7781C55.6277 77.6082 55.7567 80.4623 56.0147 83.3266C56.012 83.33 56.0065 83.3334 56.0038 83.3368C56.001 83.3368 55.9983 83.3368 55.9983 83.3402C55.9955 83.3402 55.9955 83.3402 55.9955 83.3402Z" fill="#D78C24"/>
<path d="M261.941 45.6705C258.531 30.9046 230.882 23.7652 192.167 25.2066L192.822 25.7677C195.418 28.4252 198.203 31.4187 200.698 34.6709C224.7 34.6574 242.271 39.0687 244.73 49.7223C249.481 70.2971 193.521 95.1756 138.46 108.137C83.3947 121.099 22.3109 123.773 17.5597 103.195C15.1075 92.5752 28.8554 80.8096 50.2825 70.1258C50.2526 66.42 50.5753 62.6538 51.1975 59.0085C17.4865 74.7184 -2.96906 92.8709 0.351473 107.247C5.6051 130.006 68.4223 134.672 140.659 117.669C212.895 100.665 267.195 68.4291 261.941 45.6705Z" fill="#F89F26"/>
<path d="M239.911 51.1208C238.487 45.0428 225.764 41.2202 205.349 40.7805C207.253 44.1299 208.609 47.6674 209.018 51.3155C214.549 52.1579 217.911 53.7352 218.464 56.0913C220.526 64.8978 182.899 81.1448 134.419 92.3845C85.9386 103.624 44.964 105.598 42.8986 96.7911C42.2472 94.0123 45.558 90.4917 51.9095 86.622C50.5191 83.6384 49.6213 80.242 49.1252 76.651C30.209 86.2495 19.9965 95.5493 21.4545 101.765C24.3029 113.917 72.3344 117.059 136.704 102.137C201.077 87.2127 242.76 63.2734 239.911 51.1208Z" fill="#F89F26"/>
<path d="M247.176 49.1462C244.674 38.6327 226.797 34.2795 202.376 34.2927C203.896 36.2091 205.304 38.2182 206.506 40.3004C226.983 40.7347 239.745 44.5111 241.174 50.5155C244.031 62.5209 202.22 86.1704 137.65 100.914C73.0842 115.655 24.9057 112.552 22.0486 100.546C20.5862 94.4061 30.8298 85.2189 49.804 75.7365C49.5095 73.6378 49.3538 71.4761 49.3368 69.2812C27.536 79.8245 13.5483 91.4354 16.0432 101.916C20.8773 122.223 83.0266 119.584 139.052 106.793C195.074 94.0016 252.01 69.4503 247.176 49.1462Z" fill="#F89F26"/>
<path d="M60.7387 116.781C36.3686 116.781 18.5421 112.414 16.0438 101.917C15.8509 101.098 15.7561 100.272 15.7561 99.4401C15.7832 89.6261 29.2394 78.9997 49.3373 69.2818C49.3543 71.4767 49.51 73.6385 49.8045 75.7372C32.0152 84.6262 21.9002 93.2566 21.9104 99.3606C21.9104 99.7684 21.9578 100.163 22.0492 100.547C23.5692 106.937 37.9191 110.803 60.7455 110.803C80.8164 110.803 107.441 107.812 137.651 100.916C200.138 86.6454 241.313 64.0366 241.309 51.7127C241.309 51.3015 241.265 50.9036 241.174 50.5157C239.745 44.5112 226.983 40.7348 206.506 40.3005C205.304 38.2183 203.896 36.2091 202.376 34.2927C202.406 34.2927 202.433 34.2927 202.464 34.2927C226.837 34.2927 244.677 38.6461 247.176 49.1464C247.369 49.9587 247.463 50.7777 247.463 51.6032C247.453 71.3971 192.833 94.5165 139.052 106.794C138.825 106.847 138.602 106.897 138.375 106.95C138.297 106.966 138.216 106.983 138.138 107.003C138.033 107.026 137.932 107.049 137.823 107.073C111.144 113.084 83.1793 116.781 60.759 116.781C60.7523 116.781 60.7455 116.781 60.7387 116.781Z" fill="#E39531"/>
</svg>
