<svg width="210" height="202" viewBox="0 0 210 202" fill="none" xmlns="http://www.w3.org/2000/svg">
<path d="M0.916992 143.974H203.581V101.79H0.916992V143.974Z" fill="#BDAE95"/>
<path d="M210 105.458C209.593 47.1483 162.749 -2.28882e-05 104.998 -2.28882e-05C47.2515 -2.28882e-05 0.403801 47.1483 0 105.458H210Z" fill="#CBBBA0"/>
<path d="M0 125.633H207.249V115.546H0V125.633Z" fill="#CBBBA0"/>
<path d="M0 201.747H207.249V134.803H0V201.747Z" fill="#CBBBA0"/>
<path d="M23.8428 163.231H74.2795V154.978H23.8428V163.231Z" fill="#634E42"/>
<path d="M182.489 163.231H132.052V154.978H182.489V163.231Z" fill="#634E42"/>
<path d="M195.328 86.2009H157.293C152.572 62.0717 139.706 40.8957 121.686 25.7269C112.344 17.8404 101.572 11.5647 89.8691 7.33624H127.737C162.048 19.6525 188.146 49.4533 195.328 86.2009Z" fill="#575756"/>
<path d="M195.328 86.2009H158.385C157.19 79.9588 155.478 73.9181 153.283 68.1123L153.056 67.5754C147.76 53.7154 139.687 41.3655 129.58 31.1634L129.192 30.7608C127.448 29.0157 125.672 27.3377 123.799 25.7269L129.677 7.33624C136.458 9.81963 142.917 13.0749 148.923 16.9342H148.955C161.646 25.0892 172.497 36.0296 180.667 48.95C187.707 60.0917 192.744 72.6764 195.328 86.2009Z" fill="#3C3C3B"/>
<path d="M195.328 38.6464L181.392 47.5879L152.7 66.0262L152.686 66.0197C147.071 52.304 138.386 40.1087 127.467 30.0987L148.144 16.7928H148.177L170.061 2.75108L195.328 38.6464Z" fill="#575756"/>
<path d="M194.365 11.9167C201.516 21.9155 201.79 33.513 194.978 37.8206C188.162 42.1249 176.844 37.5114 169.697 27.5125C162.545 17.5137 162.271 5.91933 169.084 1.61178C175.896 -2.69252 187.217 1.92106 194.365 11.9167Z" fill="#706F6F"/>
<path d="M191.198 15.6693C191.856 16.5278 192.437 17.4323 192.96 18.3244C196.195 24.0834 196.136 29.9891 192.652 32.9831C192.34 33.2612 192.001 33.5056 191.641 33.7225C186.585 36.7196 178.174 33.5238 172.859 26.5458C167.543 19.5739 167.339 11.4624 172.395 8.46223C172.717 8.26976 173.032 8.13231 173.382 7.97039L173.478 7.95816C177.921 6.1556 184.227 8.37977 189.075 13.2283C189.816 13.9921 190.543 14.8078 191.198 15.6693Z" fill="#9D9D9C"/>
<path d="M191.341 15.977C191.976 16.8672 192.538 17.8051 193.043 18.7301C196.165 24.7018 196.108 30.8255 192.745 33.9301C194.881 29.8814 193.781 23.197 189.496 17.1525C185.16 11.0446 179.009 7.57876 174.236 7.98109C178.525 6.11198 184.612 8.41828 189.292 13.4459C190.007 14.2379 190.709 15.0836 191.341 15.977Z" fill="#3C3C3B"/>
<path d="M191.516 31.179C189.574 21.9235 181.244 11.6708 176.07 8.25325C180.349 9.10511 183.98 11.2212 187.604 16.6163C191.188 21.9539 192.046 24.7766 191.516 31.179Z" fill="#DBDBDB"/>
<path d="M42.1834 134.803H0.916992V125.81H39.9603V129.332H42.1834V134.803ZM42.1834 114.452H0.916992V105.458H38.4238C38.4202 105.638 38.4202 105.821 38.4167 106.001H42.1834V114.452Z" fill="#AD9F89"/>
<path d="M37.7567 105.458H0C0 105.405 0 105.349 0 105.296C0 105.28 0 105.256 0 105.24C0 105.207 0.00325694 105.17 0.00325694 105.137C0.00325694 105.114 0.00325694 105.094 0.00325694 105.071C0.00325694 105.038 0.00325694 105.005 0.00325694 104.975C0.00325694 104.952 0.00325694 104.928 0.00325694 104.905C0.00651071 104.875 0.00651389 104.842 0.00651389 104.813C0.00651389 104.789 0.00651389 104.766 0.00651389 104.743C0.00651389 104.71 0.00651706 104.683 0.00977083 104.65C0.00977083 104.624 0.00977083 104.604 0.00977083 104.577C0.00977083 104.547 0.00977083 104.518 0.00977083 104.491C0.00977083 104.465 0.0130278 104.441 0.0130278 104.415C0.0130278 104.388 0.0130278 104.359 0.0130278 104.329C0.0130278 104.306 0.0130278 104.276 0.0130278 104.253C0.0162815 104.223 0.0162847 104.196 0.0162847 104.166C0.0162847 104.14 0.0162847 104.12 0.0162847 104.094C0.0195385 104.064 0.0195417 104.034 0.0195417 104.004C0.0195417 103.978 0.0195417 103.958 0.0195417 103.931C0.0227954 103.901 0.0227986 103.875 0.0227986 103.845C0.0227986 103.819 0.0228018 103.795 0.0260555 103.769C0.0260555 103.742 0.0260555 103.713 0.0260555 103.689C0.0260555 103.66 0.0260587 103.636 0.0293125 103.607C0.0293125 103.58 0.0293125 103.557 0.0293125 103.53C0.0325663 103.411 0.0358296 103.298 0.0390833 103.183C0.0390833 103.166 0.0390833 103.146 0.0390833 103.133C0.0423371 103.1 0.0423403 103.063 0.0423403 103.03C0.045594 103.01 0.0455972 102.997 0.0455972 102.974C0.0455972 102.944 0.0488541 102.908 0.0488541 102.878C0.0488541 102.858 0.0488541 102.831 0.0488541 102.812C0.0521079 102.785 0.0521111 102.749 0.0521111 102.722C0.0553649 102.702 0.055368 102.672 0.055368 102.656C0.055368 102.623 0.058625 102.59 0.058625 102.56C0.058625 102.537 0.0585487 102.517 0.0618025 102.494C0.0618025 102.464 0.0618057 102.431 0.0650594 102.397C0.0650594 102.378 0.0650594 102.361 0.0650594 102.341C0.0683132 102.305 0.0683164 102.272 0.0683164 102.238C0.0715701 102.219 0.0715733 102.199 0.0715733 102.182C0.0715733 102.146 0.0748303 102.109 0.0748303 102.076C0.0748303 102.063 0.0780872 102.046 0.0780872 102.03C0.0780872 101.993 0.0813441 101.954 0.0813441 101.914C0.0813441 101.901 0.0813473 101.897 0.0846011 101.881C0.0846011 101.841 0.087858 101.794 0.087858 101.755C0.087858 101.748 0.087858 101.751 0.087858 101.748C2.20931 50.5121 40.646 8.85992 89.869 2.75108C59.0884 23.0454 38.1927 61.3682 37.7567 105.458Z" fill="#B9AB92"/>
<path d="M40.0271 125.633H0V115.546H42.1834V117.198H40.0271V125.633Z" fill="#B9AB92"/>
<path d="M40.0271 201.747H0V134.803H42.1834V139.757H40.0271V153.872H23.4912V164.135H40.0271V201.747Z" fill="#B9AB92"/>
<path d="M23.8428 163.231H39.4323V154.978H23.8428V163.231Z" fill="#5C493E"/>
</svg>
