<svg width="238" height="215" viewBox="0 0 238 215" fill="none" xmlns="http://www.w3.org/2000/svg">
<path d="M238 172.726V215H0V172.726C0 167.443 1.12483 162.344 3.18538 157.682C3.62264 156.625 4.15335 155.601 4.68371 154.606C9.18121 146.463 16.6754 140.092 25.9486 137.044L26.9166 136.641L29.8513 135.458L40.9372 130.983L63.2009 122C98.3488 151.126 143.769 150.466 176.642 122.746L197.094 130.983L212.051 137.044C227.538 142.111 238 156.503 238 172.726Z" fill="#F6F6F6"/>
<path d="M15 196.002C15 204.309 8.71254 211 1.02294 211L0 210.965V181.035L1.02294 181C8.71254 181 15 187.727 15 196.002Z" fill="#DF4937"/>
<path d="M9 194.502C9 199.191 5.39933 203 0.972207 203L0 202.938V186.066L0.972207 186C5.39933 186 9 189.809 9 194.502Z" fill="#F7C31E"/>
<path d="M76.1884 169L75 165.633L77.8126 165L79 168.367L76.1884 169Z" fill="#9D9D9C"/>
<path d="M78.541 179.859L76 171.825L79.3004 171L81.8399 179.031L78.541 179.859ZM81.9269 190.574L79.3875 182.54L82.6863 181.711L85.227 189.749L81.9269 190.574ZM85.314 201.285L82.773 193.251L86.0735 192.426L88.6145 200.46L85.314 201.285ZM88.7015 212L86.1605 203.966L89.461 203.141L92 211.171L88.7015 212Z" fill="#9D9D9C"/>
<path d="M163.109 169L164 165.633L161.891 165L161 168.367L163.109 169Z" fill="#9D9D9C"/>
<path d="M161.618 179.859L164 171.825L160.906 171L158.526 179.031L161.618 179.859ZM158.444 190.574L160.825 182.54L157.731 181.711L155.351 189.749L158.444 190.574ZM155.269 201.285L157.649 193.251L154.557 192.426L152.175 200.46L155.269 201.285ZM152.093 212L154.475 203.966L151.382 203.141L149 211.171L152.093 212Z" fill="#9D9D9C"/>
<path d="M89 166.291L65.6856 174L63 161.709L86.3144 154L89 166.291Z" fill="#3E8DB8"/>
<path d="M149 166.291L175.004 174L178 161.709L151.997 154L149 166.291Z" fill="#3E8DB8"/>
<path d="M120 205C109.507 205 101 196.269 101 185.5C101 174.731 109.507 166 120 166C130.493 166 139 174.731 139 185.5C139 196.269 130.493 205 120 205Z" fill="#3E8DB8"/>
<path d="M120.5 177C117.463 177 115 174.539 115 171.502C115 168.461 117.463 166 120.5 166C123.537 166 126 168.461 126 171.502C126 174.539 123.537 177 120.5 177Z" fill="#35799E"/>
<path d="M120.5 203C117.463 203 115 201.211 115 199C115 196.792 117.463 195 120.5 195C123.537 195 126 196.792 126 199C126 201.211 123.537 203 120.5 203Z" fill="#35799E"/>
<path d="M105.499 181C107.985 181 110 183.237 110 186C110 188.759 107.985 191 105.499 191C103.015 191 101 188.759 101 186C101 183.237 103.015 181 105.499 181Z" fill="#35799E"/>
<path d="M133 181C131.343 181 130 183.237 130 186C130 188.759 131.343 191 133 191C134.657 191 136 188.759 136 186C136 183.237 134.657 181 133 181Z" fill="#35799E"/>
<path d="M53 182.374L50.1167 183C49.4704 179.455 48.3533 175.47 46.9406 171.269L46.9113 171.237C42.8818 159.346 36.1762 145.824 29 136.194L31.7642 135C41.6169 148.521 50.4409 168.663 53 182.374Z" fill="#3E8DB8"/>
<path d="M185 182.374L188.242 183C188.971 179.455 190.228 175.47 191.815 171.269L191.848 171.237C196.383 159.346 203.925 145.824 212 136.194L208.89 135C197.804 148.521 187.879 168.663 185 182.374Z" fill="#3E8DB8"/>
<path d="M53 182.367L49.952 183C48.8955 177.607 44.5428 172.34 37.3301 167.801C27.3811 161.521 14.0421 157.806 4 157.14C4.43537 156.061 4.96381 155.016 5.49189 154C16.3431 154.983 29.5565 159.172 38.9465 165.106C41.932 166.976 44.4808 168.975 46.5635 171.103L46.5946 171.136C50.0775 174.655 52.253 178.465 53 182.367Z" fill="#3E8DB8"/>
<path d="M185 182.367L188.171 183C189.271 177.607 193.802 172.34 201.309 167.801C211.665 161.521 225.547 157.806 236 157.14C235.547 156.061 234.997 155.016 234.447 154C223.153 154.983 209.4 159.172 199.627 165.106C196.52 166.976 193.867 168.975 191.698 171.103L191.665 171.136C188.042 174.655 185.776 178.465 185 182.367Z" fill="#3E8DB8"/>
<path d="M55 215V180.716C55 179.217 53.2087 178 51.0012 178C48.7913 178 47 179.217 47 180.716V215H55Z" fill="#C6C6C6"/>
<path d="M185 215V180.716C185 179.217 186.569 178 188.5 178C190.433 178 192 179.217 192 180.716V215H185Z" fill="#C6C6C6"/>
<path d="M53 154H187V102H53V154Z" fill="#F6F6F6"/>
<path d="M119.501 153.993L119.455 154C78.811 150.324 47 117.252 47 77C47 36.7446 74.3881 0 119.455 0L119.501 0.00366211L119.545 0C164.612 0 192 36.7446 192 77C192 117.252 160.189 150.324 119.545 154L119.501 153.993Z" fill="#F6F6F6"/>
<path d="M119.938 140L119.711 139.978C62.0945 136.155 50 102.254 50 74.4927C50 42.7462 74.516 9 119.955 9H120.045C165.484 9 190 42.7462 190 74.4927C190 102.254 177.906 136.155 120.289 139.978L120.062 140H119.938Z" fill="#3C3C3B"/>
<path d="M120.001 134.996L119.956 135C71.201 131.742 55 105.888 55 74C55 42.1116 79.5531 13 119.956 13L120.001 13.0036L120.044 13C160.447 13 185 42.1116 185 74C185 105.888 168.799 131.742 120.044 135L120.001 134.996Z" fill="#575756"/>
<path d="M120.501 127.971L120.274 128C81.7359 125.217 63 107.552 63 74.0127C63 47.2683 82.5914 20.1928 120.048 20L120.501 20.0545L120.952 20C158.409 20.1928 178 47.2683 178 74.0127C178 107.552 159.264 125.217 120.726 128L120.501 127.971Z" fill="#1D1D1B"/>
<path d="M171.571 89H161.151C161.813 84.7964 162.197 80.4911 162.197 76.1671C162.197 70.2249 161.768 64.881 161 60H171.265C172.375 64.7681 173 70.0969 173 76.1671C173 80.5062 172.48 84.8265 171.571 89Z" fill="#8A8A89"/>
<path d="M96 105H80.6766C73.5571 97.35 70 87.18 70 74.3568C70 66.2712 72.3497 58.182 76.8818 51H93.7599C90.5615 58.3692 88.9111 66.3684 88.9111 74.3568C88.9111 86.6184 91.3158 96.7704 96 105Z" fill="#8A8A89"/>
<path d="M120.001 153.998H119.955C93.4549 154.133 67.8224 145.331 50 127.082C51.6883 119.23 51.6883 119.23 52.0702 115C67.7602 130.932 96.7976 142.134 119.955 142.021H120.001H120.045C143.202 142.134 172.24 130.932 187.93 115C188.312 119.23 188.312 119.23 190 127.082C172.178 145.331 146.545 154.133 120.045 153.998H120.001Z" fill="#DADADA"/>
<path d="M81.9252 140L67 133.357L72.0748 123L87 129.643L81.9252 140Z" fill="#706F6F"/>
<path d="M157.314 140L170 133.357L165.686 123L153 129.643L157.314 140Z" fill="#706F6F"/>
</svg>
