<svg width="178" height="245" viewBox="0 0 178 245" fill="none" xmlns="http://www.w3.org/2000/svg">
<path d="M73.1711 234.312V222.802H103.591V234.312H73.1711Z" fill="#575756"/>
<path d="M75.6376 64.9496V224.446L4.21727 215.019C1.65484 214.662 -0.192521 212.401 0.0160487 209.844L0.760942 200.654L1.35686 193.219L1.8634 187.033C2.84666 175.048 8.53763 163.925 17.7147 156.133L24.7465 150.185C32.0464 143.999 38.0652 136.445 42.5346 127.999L75.6376 64.9496Z" fill="#F6F6F6"/>
<path d="M103.591 64.9496V224.446L173.458 215.019C175.965 214.662 177.772 212.401 177.568 209.844L176.839 200.654L176.257 193.219L175.761 187.033C174.799 175.048 169.232 163.925 160.254 156.133L153.375 150.185C146.234 143.999 140.346 136.445 135.974 127.999L103.591 64.9496Z" fill="#F6F6F6"/>
<path d="M11.3335 204.77L70.0909 212.013L64.4928 105.56L51.1233 131.875C46.1075 141.671 39.4778 150.217 31.4138 157.278L24.5871 163.245C17.7748 169.226 13.4458 177.952 12.7127 187.186L11.3335 204.77ZM73.1711 215.403L8.22144 207.397L9.82378 186.941C10.6177 176.927 15.3148 167.46 22.7123 160.964L29.5391 154.997C37.322 148.184 43.7199 139.937 48.5589 130.485L66.8167 94.5469L73.1711 215.403Z" fill="#DF4937"/>
<path d="M112.489 105.56L106.749 212.013L166.994 204.77L165.58 187.183C164.828 177.952 160.389 169.226 153.402 163.242L146.405 157.278C138.137 150.217 131.336 141.671 126.2 131.881L112.489 105.56ZM103.591 215.403L110.106 94.5469L128.829 130.491C133.787 139.937 140.347 148.184 148.327 154.997L155.324 160.964C162.909 167.46 167.728 176.927 168.542 186.941L170.185 207.397L103.591 215.403Z" fill="#DF4937"/>
<path d="M65.7718 193.205V201.426H0L0.594413 193.205H65.7718Z" fill="#9D9D9C"/>
<path d="M110.99 193.205V201.426H177.584L176.982 193.205H110.99Z" fill="#9D9D9C"/>
<path d="M88.7813 229.379L65.8734 227.864L64.1274 52.7988C64.1876 44.8359 65.9938 36.9918 69.4255 29.7717L77.3123 13.222L81.4062 4.60539C82.8813 1.5153 85.8313 -3.05176e-05 88.7813 -3.05176e-05H88.7903H88.8024C91.7524 -3.05176e-05 94.7025 1.5153 96.1775 4.60539L100.271 13.222L108.158 29.7717C111.59 36.9918 113.396 44.8359 113.456 52.7988L111.71 227.864L88.8024 229.379H88.7813Z" fill="#EDEDED"/>
<path d="M78.9028 203.049L77.3483 233.126L76.9298 240.82L76.7206 245H57.2897L57.0804 240.82L56.6619 233.126L55.1074 203.049C54.6889 194.689 59.9203 187.45 66.8855 187.45H67.1247C74.0899 187.45 79.3213 194.689 78.9028 203.049Z" fill="#DADADA"/>
<path d="M97.0369 203.049L98.5913 233.126L99.0099 240.82L99.2191 245H118.65L118.859 240.82L119.278 233.126L120.832 203.049C121.251 194.689 116.019 187.45 109.054 187.45H108.815C101.85 187.45 96.6184 194.689 97.0369 203.049Z" fill="#DADADA"/>
<path d="M78.104 233.49L77.6882 240.889H57.9661L57.5503 233.49H78.104Z" fill="#DF4937"/>
<path d="M99.4797 233.49L99.9122 240.889H120.423L120.856 233.49H99.4797Z" fill="#DF4937"/>
<path d="M65.7717 173.473V171.007H113.456V173.473H65.7717Z" fill="#DADADA"/>
<path d="M65.8018 133.188L65.7717 129.899H113.456L113.426 133.188H65.8018Z" fill="#DADADA"/>
<path d="M65.7717 92.0804V90.4361H113.456V92.0804H65.7717Z" fill="#DADADA"/>
<path d="M64.1274 52.6176L64.1666 50.9733H113.417L113.456 52.6176H64.1274Z" fill="#DADADA"/>
<path d="M87.9684 33.8578C82.8976 33.8578 77.8238 36.2723 74.7492 41.1074C72.853 39.9047 70.9568 38.7049 69.0605 37.5022C73.4589 30.588 80.7136 27.1309 87.9684 27.1309C95.2262 27.1309 102.481 30.588 106.879 37.5022C104.983 38.7049 103.087 39.9047 101.188 41.1074C98.113 36.2723 93.0422 33.8578 87.9684 33.8578Z" fill="#3C3C3B"/>
<path d="M89.6126 14.7957H89.6035C87.8228 14.8226 86.0722 14.6612 84.2914 14.2308C83.8085 14.1501 83.2954 14.0155 82.8125 13.881C81.243 13.4237 79.6735 12.805 78.104 11.9711L82.2088 4.16965C83.0238 2.60937 84.3216 1.50637 85.8005 0.833833C86.3438 0.564818 86.9173 0.376521 87.4908 0.242014C88.185 0.0806046 88.9093 -7.34329e-05 89.6035 -7.34329e-05H89.6246C90.3188 -7.34329e-05 91.0432 0.0806046 91.7374 0.242014C92.3109 0.376521 92.8843 0.564818 93.4276 0.833833C94.9066 1.50637 96.2044 2.60937 97.0193 4.16965L101.124 11.9711C99.5547 12.805 97.9852 13.4237 96.4157 13.881C95.9328 14.0155 95.4197 14.1501 94.9367 14.2308C93.156 14.6612 91.4054 14.8226 89.6246 14.7957H89.6126Z" fill="#3C3C3B"/>
<path d="M87.1476 3.43323e-05L83.4504 15.8061L83.1016 17.2651L81.3926 16.9612L81.7414 15.4109L85.1944 0.668737C85.8222 0.364775 86.4849 0.152016 87.1476 3.43323e-05Z" fill="#EDEDED"/>
<path d="M90.4363 3.43323e-05L93.6053 15.8061L93.9042 17.2651L95.3692 16.9612L95.0702 15.4109L92.1105 0.668737C91.5723 0.364775 91.0043 0.152016 90.4363 3.43323e-05Z" fill="#EDEDED"/>
<path d="M90.4363 229.379H87.1477V50.9731H90.4363V229.379Z" fill="#DADADA"/>
<path d="M51.7954 174.706C51.7954 178.565 48.2981 181.695 43.985 181.695C39.6719 181.695 36.1746 178.565 36.1746 174.706C36.1746 170.847 39.6719 167.718 43.985 167.718C48.2981 167.718 51.7954 170.847 51.7954 174.706Z" fill="#DF4937"/>
<path d="M47.6846 174.706C47.6846 177.204 45.4764 179.228 42.7518 179.228C40.0271 179.228 37.8188 177.204 37.8188 174.706C37.8188 172.209 40.0271 170.185 42.7518 170.185C45.4764 170.185 47.6846 172.209 47.6846 174.706Z" fill="#FDD303"/>
<path d="M138.943 174.706C138.943 178.565 135.814 181.695 131.955 181.695C128.096 181.695 124.967 178.565 124.967 174.706C124.967 170.847 128.096 167.718 131.955 167.718C135.814 167.718 138.943 170.847 138.943 174.706Z" fill="#DF4937"/>
<path d="M137.299 174.706C137.299 177.204 135.091 179.228 132.366 179.228C129.641 179.228 127.433 177.204 127.433 174.706C127.433 172.209 129.641 170.185 132.366 170.185C135.091 170.185 137.299 172.209 137.299 174.706Z" fill="#FDD303"/>
</svg>
