<svg width="207" height="236" viewBox="0 0 207 236" fill="none" xmlns="http://www.w3.org/2000/svg">
<path d="M88.2725 129.935V158.118C77.6372 160.473 67.2361 163.311 57.2546 167.013C55.0788 167.72 52.6916 168.635 50.158 169.816L50.0507 169.858L50.0539 169.868C34.5369 177.121 13.4323 194.411 0 235.675H17.1855C27.5443 206.956 41.653 193.326 52.6851 186.847L60.2339 235.522H146.766L154.315 186.847C165.347 193.326 179.456 206.956 189.815 235.675H207C193.568 194.411 172.463 177.121 156.949 169.868V169.858L156.842 169.816C154.309 168.635 151.921 167.72 149.745 167.013C139.767 163.311 129.363 160.473 118.728 158.118V129.935H88.2725Z" fill="#00A683"/>
<path d="M102.156 -1.52588e-05C64.5749 -1.52588e-05 41.2418 16.3529 43.1185 57.5151C44.0082 77.0837 71.7995 146.657 101.701 144.21H102.611C132.512 146.657 160.304 77.0837 161.194 57.5151C163.07 16.3529 139.737 -1.52588e-05 102.156 -1.52588e-05Z" fill="#61BC6E"/>
<path d="M96.3939 89.852C94.391 97.6707 85.118 101.493 75.6792 98.3881C66.2404 95.2861 60.2123 86.4324 62.2152 78.6137C64.218 70.7983 73.4943 66.9758 82.9331 70.0777C92.3719 73.1829 98.4 82.0333 96.3939 89.852Z" fill="#FDD303"/>
<path d="M107.907 89.852C109.858 97.6707 118.897 101.493 128.091 98.3881C137.288 95.2861 143.161 86.4324 141.21 78.6137C139.258 70.7983 130.22 66.9758 121.023 70.0777C111.826 73.1829 105.955 82.0333 107.907 89.852Z" fill="#FDD303"/>
<path d="M62.2324 78.9574C63.8365 72.7692 69.8887 69 77.0648 69C69.8887 69 63.8365 72.7726 62.2324 78.9574Z" fill="#539C5D"/>
<path d="M73.9963 97.6753C66.7924 94.5295 61.9817 88.2841 61.8339 82.0783C61.8339 82.0717 61.8339 82.0652 61.8339 82.0586C61.8339 82.0553 61.8339 82.0552 61.8339 82.0519C61.8098 80.923 61.9405 79.7974 62.2362 78.6883C63.8558 72.6707 69.9662 69 77.2113 69C79.4499 69 81.7916 69.3499 84.1471 70.086C86.8704 70.9409 89.3152 72.2349 91.4025 73.8161C90.6013 73.4662 89.7829 73.1394 88.9233 72.872C86.5712 72.1359 84.2261 71.786 81.991 71.786C74.7459 71.786 68.6355 75.4533 67.0159 81.4743C65.4754 87.2014 68.436 93.4699 73.9963 97.6753Z" fill="#D0AF08"/>
<path d="M141.278 78.9574C140.051 72.7726 135.423 69 129.935 69C135.423 69 140.051 72.7692 141.278 78.9574Z" fill="#539C5D"/>
<path d="M130.525 97.6753C135.58 93.4699 138.271 87.2014 136.871 81.4743C135.398 75.4533 129.844 71.786 123.257 71.786C121.225 71.786 119.093 72.1359 116.955 72.872C116.174 73.1394 115.43 73.4662 114.701 73.8161C116.599 72.2349 118.821 70.9409 121.297 70.086C123.438 69.3499 125.567 69 127.602 69C134.189 69 139.744 72.6707 141.216 78.6883C141.485 79.7974 141.604 80.923 141.582 82.0519C141.582 82.0552 141.582 82.0553 141.582 82.0586C141.582 82.0685 141.582 82.0717 141.582 82.0783C141.447 88.2841 137.074 94.5295 130.525 97.6753Z" fill="#D0AF08"/>
<path d="M103.169 132.623L102.604 132.62L102.043 132.623C94.1871 132.623 87.8184 130.016 87.8184 126.797C87.8184 123.581 94.1871 120.974 102.043 120.974L102.604 120.978L103.169 120.974C111.021 120.974 117.39 123.581 117.39 126.797C117.39 130.016 111.021 132.623 103.169 132.623Z" fill="#467C4D"/>
<path d="M79.7533 235.675H59.7264L51.9741 186.39C61.6603 192.151 77.5255 214.503 79.7533 235.675Z" fill="#068B6E"/>
<path d="M145.731 235.675H126.351C128.507 214.503 143.86 192.151 153.234 186.39L145.731 235.675Z" fill="#068B6E"/>
<path d="M103.598 60.9351C101.686 60.8691 100.111 60.7441 98.3367 60.2891C96.6439 59.8097 95.0196 59.0248 93.6725 58.3996C92.2733 57.7362 90.9621 57.3923 89.6509 57.1144L87.3677 56.9165C87.1981 56.8922 87.0122 56.8817 86.8198 56.8817C86.5752 56.8817 86.3207 56.8956 86.0631 56.9095C85.8054 56.9269 85.5478 56.9443 85.3032 56.9443C85.2999 56.9443 85.2999 56.9443 85.2966 56.9443C82.4459 57.0277 80.1073 58.0592 77.3414 59.195C75.9552 59.7021 74.4907 59.9764 73.0914 60.1536C73.0719 60.1536 73.0491 60.1536 73.0295 60.1536C72.6511 60.1536 72.2662 60.1675 71.8748 60.1814C71.4834 60.1953 71.0888 60.2092 70.6974 60.2092C70.2017 60.2092 69.7124 60.1849 69.233 60.1154C66.7313 60.0564 64.4448 59.1533 62.6737 58.2398C60.8961 57.2881 59.4186 56.5065 58.0813 56.1453C56.7734 55.7389 55.6644 55.5584 54.9142 55.482C54.1673 55.3744 53.7661 55.3187 53.7661 55.3187C53.7661 55.3187 54.1706 55.3084 54.924 55.2945C55.2045 55.284 55.5307 55.27 55.9025 55.27C56.5385 55.27 57.3083 55.3118 58.2151 55.489C59.6437 55.6939 61.3267 56.3434 63.1337 57.052C64.8428 57.6668 66.7247 58.1739 68.8807 58.1739C69.0274 58.1739 69.171 58.1738 69.321 58.1703C69.5069 58.1842 69.6961 58.1912 69.8853 58.1912C70.8507 58.1912 71.8455 58.0105 72.961 57.9307C74.1287 57.6736 75.2931 57.375 76.4967 56.8366C77.7002 56.2913 78.9429 55.5619 80.4205 54.9819C81.1511 54.6728 81.9012 54.4052 82.6971 54.2698C83.4864 54.0718 84.2789 53.9259 85.0748 53.9016C85.7369 53.8773 86.3403 53.7662 87.0318 53.7662C87.1981 53.7662 87.3677 53.7732 87.5471 53.7871L89.8695 53.8982C91.621 54.1378 93.3659 54.5894 94.8663 55.3014C96.4221 56.003 97.7202 56.5969 99.1228 56.9824C99.8403 57.0936 100.525 57.3055 101.266 57.3506L103.399 57.4722L105.803 57.3367C106.579 57.2707 107.176 57.0727 107.874 56.9685C109.267 56.5691 110.571 55.9752 112.13 55.2736C114.44 54.1587 116.997 53.7696 119.414 53.7696C120.265 53.7696 121.1 53.8183 121.902 53.8982C122.62 53.919 123.438 54.0718 124.267 54.2698C125.102 54.4087 125.855 54.6832 126.579 54.9888C128.054 55.5724 129.296 56.3017 130.5 56.8436C132.734 57.8855 135.141 58.1669 137.346 58.1669C137.454 58.1669 137.561 58.1668 137.666 58.1633C137.793 58.1668 137.917 58.1703 138.041 58.1703C140.334 58.1703 142.069 57.6701 143.863 57.0415C145.67 56.3364 147.359 55.6869 148.782 55.4854C149.675 55.3118 150.452 55.27 151.094 55.27C151.469 55.27 151.795 55.284 152.076 55.2945C152.829 55.3084 153.234 55.3187 153.234 55.3187C153.234 55.3187 152.832 55.3744 152.086 55.482C151.335 55.5619 150.249 55.7389 148.922 56.1453C147.578 56.5065 146.107 57.2881 144.326 58.2363C142.624 59.1498 140.138 60.0668 137.78 60.1154C137.072 60.1779 136.342 60.2161 135.591 60.2161C133.696 60.2161 131.684 59.9695 129.658 59.2123C126.84 58.08 124.603 57.052 121.726 56.9512C121.23 56.92 120.738 56.9026 120.249 56.9026C117.868 56.9026 115.539 57.302 113.321 58.3787C111.977 59.0005 110.359 59.782 108.66 60.2787C107.782 60.4524 106.824 60.7024 106.002 60.7753L103.598 60.9351Z" fill="#4C8C55"/>
<path d="M103.174 45.7013C102.227 45.6631 101.698 45.5901 100.94 45.531C100.234 45.4442 99.5216 45.1872 98.8187 45.01C97.4515 44.4925 96.187 43.7007 95.2017 43.1103C94.1618 42.4712 93.2215 42.1586 92.3003 41.8877C91.7515 41.787 91.1033 41.7523 90.516 41.6828C90.4036 41.6585 90.2752 41.648 90.134 41.648C89.9543 41.648 89.7618 41.662 89.566 41.6759C89.3702 41.6932 89.1712 41.7071 88.9915 41.7071C88.9851 41.7071 88.9818 41.7071 88.9786 41.7071C86.8283 41.8078 85.1658 42.7629 83.0026 43.9021C81.9146 44.4161 80.7239 44.7253 79.5589 44.9129C79.0454 44.9302 78.5415 44.9476 78.0473 44.9615C77.8419 44.9615 77.7199 44.9788 77.5145 44.9788C77.4343 44.9788 77.3444 44.9754 77.2321 44.9685L76.4683 44.8781C74.4431 44.8121 72.6169 43.8675 71.3042 42.9714C69.9787 42.0405 68.8972 41.2937 67.8766 40.9186C66.8881 40.5192 66.0151 40.3212 65.4213 40.2482C64.834 40.1406 64.5195 40.0851 64.5195 40.0851C64.5195 40.0851 64.8404 40.0781 65.4342 40.0642C65.6428 40.0503 65.8835 40.04 66.1531 40.04C66.6666 40.04 67.2957 40.085 68.0435 40.2691C69.1796 40.4983 70.4858 41.1443 71.8563 41.832C73.1721 42.4399 74.5939 42.94 76.2692 42.94C76.3687 42.94 76.4714 42.9401 76.5773 42.9366L77.2481 42.9575L77.8964 42.8845C78.3875 42.822 78.8881 42.763 79.3984 42.697C80.2425 42.4365 81.0962 42.1516 81.982 41.6341C83.6221 40.5644 86.0227 38.8486 88.6994 38.6749C89.245 38.6437 89.7168 38.5325 90.2913 38.5325C90.4357 38.5325 90.5833 38.536 90.7438 38.5569C91.3536 38.5986 91.9281 38.595 92.586 38.6783C94.0656 38.9353 95.4937 39.4461 96.6331 40.1407C97.8366 40.8423 98.7738 41.384 99.7944 41.7661C100.324 41.8703 100.818 42.0683 101.373 42.1204C101.877 42.1551 102.612 42.1933 102.927 42.242L104.824 42.1031C105.401 42.0232 105.796 41.846 106.3 41.7557C107.317 41.3598 108.255 40.8214 109.464 40.1129C110.626 39.4078 112.045 38.925 113.415 38.6749C114.092 38.602 114.766 38.5847 115.431 38.543C115.569 38.536 115.697 38.5325 115.813 38.5325C116.461 38.5325 116.814 38.6402 117.373 38.668C117.925 38.6853 118.618 38.859 119.305 39.064C120.007 39.2168 120.592 39.5155 121.166 39.8176C122.318 40.422 123.233 41.1131 124.119 41.6375C125.727 42.6413 127.562 42.933 129.251 42.933C129.337 42.933 129.424 42.9331 129.511 42.9296C129.979 42.9088 130.47 42.9192 130.891 42.8671C131.282 42.7802 131.664 42.6934 132.049 42.6344C132.813 42.4364 133.554 42.1794 134.245 41.8217C135.612 41.1375 136.931 40.4914 138.054 40.2691C138.795 40.0815 139.434 40.04 139.954 40.04C140.227 40.04 140.464 40.0502 140.67 40.0607C141.267 40.0746 141.584 40.0851 141.584 40.0851C141.584 40.0851 141.27 40.144 140.683 40.2482C140.092 40.3246 139.245 40.5157 138.231 40.9186C137.2 41.2937 136.128 42.037 134.8 42.9678C134.145 43.4367 133.356 43.8674 132.479 44.2391C131.545 44.5933 130.563 44.8156 129.652 44.8781C129.1 44.9441 128.522 44.9824 127.932 44.9824C126.378 44.9824 124.716 44.7115 123.101 43.9196C120.88 42.7769 119.327 41.8391 117.154 41.721C116.772 41.6862 116.4 41.6689 116.028 41.6689C114.214 41.6689 112.51 42.0717 110.893 43.0894C109.914 43.6764 108.652 44.4648 107.285 44.9997C106.56 45.1942 105.741 45.4477 105.071 45.538L103.174 45.7013Z" fill="#4C8C55"/>
<path d="M103.657 30.4675C102.747 30.4363 102.366 30.353 101.7 30.2836C101.101 30.1725 100.495 29.9086 99.9025 29.7073C98.7909 29.1414 97.8106 28.3569 97.0994 27.8084C96.3274 27.1939 95.6708 26.9161 95.0813 26.6696C94.7065 26.5516 94.1427 26.5273 93.6878 26.4509C93.6205 26.4266 93.534 26.4162 93.4379 26.4162C93.313 26.4162 93.1688 26.4337 93.0247 26.4476C92.8773 26.4614 92.7332 26.4752 92.6019 26.4752C92.5923 26.4752 92.5858 26.4752 92.5762 26.4752C90.9937 26.5759 89.8341 27.4507 88.1555 28.5998C87.6974 28.8394 87.2649 29.0894 86.8036 29.2908C86.2943 29.4505 85.7849 29.5962 85.2948 29.7073C84.8784 29.7246 84.4715 29.742 84.0711 29.7593C83.8917 29.7593 83.818 29.7732 83.6354 29.7732C83.5682 29.7732 83.4849 29.7697 83.3759 29.7663L82.7385 29.6656C81.0438 29.5614 79.5798 28.5582 78.6284 27.6972C77.6514 26.7946 76.8761 26.0968 76.1105 25.701C75.7165 25.524 75.3674 25.3608 75.063 25.222C74.7235 25.1421 74.4319 25.0762 74.198 25.0242C73.7303 24.9131 73.4805 24.8575 73.4805 24.8575C73.4805 24.8575 73.7368 24.8506 74.2141 24.8367C74.3678 24.8263 74.5377 24.8158 74.7299 24.8158C75.1527 24.8158 75.6813 24.8643 76.3252 25.0726C77.2349 25.333 78.2536 25.9719 79.2916 26.6315C80.2846 27.2147 81.329 27.6972 82.5943 27.6972C82.6904 27.6972 82.7865 27.6938 82.8826 27.6869L83.3952 27.7041L83.8757 27.6243C84.2633 27.5549 84.6573 27.482 85.061 27.4126C85.3525 27.2564 85.6408 27.1348 85.9419 27.0237L86.8805 26.4198C88.0401 25.4512 89.9077 23.691 92.2142 23.4514C92.6787 23.4237 93.0535 23.3056 93.5501 23.3056C93.6814 23.3056 93.8191 23.3126 93.9729 23.3334C94.4758 23.3855 94.8987 23.3613 95.4753 23.4758C96.7888 23.7605 97.9644 24.3575 98.8197 25.0276C99.7455 25.7219 100.415 26.2044 101.139 26.5759C101.52 26.6627 101.863 26.8363 102.26 26.8988C102.606 26.93 103.237 26.9613 103.34 27.0134L104.858 26.8746C105.262 26.7704 105.492 26.6418 105.842 26.555C106.569 26.1801 107.235 25.6906 108.171 24.9928C109.048 24.3054 110.234 23.7465 111.4 23.4792C111.976 23.3751 112.546 23.3648 113.113 23.3162C113.258 23.3162 113.27 23.2987 113.421 23.2987C113.479 23.2987 113.556 23.3023 113.671 23.3092L114.026 23.3543L114.741 23.448C115.628 23.5383 117.124 24.0764 117.896 24.677C118.796 25.2984 119.469 25.9302 120.11 26.4301C121.285 27.3883 122.711 27.6833 124.044 27.6833C124.063 27.6833 124.079 27.6834 124.098 27.6799C124.463 27.6591 124.883 27.6869 125.187 27.6209C125.469 27.5376 125.751 27.4611 126.039 27.409C126.61 27.2007 127.18 26.9578 127.702 26.6176C128.74 25.9614 129.768 25.3227 130.672 25.0693C131.303 24.8679 131.841 24.8123 132.276 24.8123C132.465 24.8123 132.638 24.8228 132.786 24.8367C133.266 24.8506 133.519 24.8575 133.519 24.8575C133.519 24.8575 133.27 24.9131 132.802 25.0242C132.328 25.0901 131.668 25.3053 130.896 25.701C130.117 26.0933 129.349 26.7911 128.368 27.6902C127.894 28.1381 127.285 28.5686 126.594 28.9679C125.825 29.3324 124.989 29.5996 124.277 29.6656L123.707 29.7629C123.573 29.7802 123.473 29.7871 123.39 29.7871C123.32 29.7871 123.259 29.7802 123.201 29.7768C123.14 29.7733 123.083 29.7698 123.012 29.7698C122.999 29.7698 122.983 29.7698 122.97 29.7698C122.525 29.749 122.07 29.7316 121.606 29.7073C120.661 29.5059 119.719 29.1657 118.841 28.6276C118.018 28.1 117.272 27.5272 116.583 27.1592C116.237 26.996 115.881 26.7703 115.58 26.7252C115.273 26.6384 115.013 26.4891 114.478 26.4891C114.472 26.4891 114.469 26.4891 114.462 26.4891L113.745 26.4406L113.386 26.4162L113.219 26.4579C112.825 26.5273 112.415 26.5482 112.034 26.6384C111.297 26.8988 110.64 27.1904 109.888 27.7806C109.18 28.3222 108.206 29.1102 107.097 29.683C106.486 29.9226 105.758 30.1759 105.172 30.3009L103.657 30.4675Z" fill="#4C8C55"/>
</svg>
