<svg width="256" height="190" viewBox="0 0 256 190" fill="none" xmlns="http://www.w3.org/2000/svg">
<path d="M12.6223 81.5972L39.0471 164.106L108.053 136.781L82.724 51.9811L12.6223 81.5972ZM37.4213 167.605L9.3916 80.0809L84.3811 48.4031L111.255 138.369L37.4213 167.605Z" fill="#DADADA"/>
<path d="M230.987 180.608L186.281 177.409L158.308 137.089L109.276 140.647L109.087 138.043L159.613 134.373L187.719 174.893L231.179 178.004L230.987 180.608Z" fill="#DADADA"/>
<path d="M4.66939 72.4387L10.2856 75.8643L14.3153 70.7985L15.0057 77.1206L21.673 76.9623L16.9162 81.4187L21.2052 86.2859L14.583 85.5208L13.2614 91.749L9.76147 86.3396L3.824 89.239L6.08119 83.2603L0 80.6456L6.3151 78.5972L4.66939 72.4387Z" fill="#FCEA10"/>
<path d="M34.588 159.457L37.9578 162.058L40.3748 158.213L40.7906 163.01L44.7909 162.889L41.9375 166.268L44.5099 169.962L40.537 169.381L39.7443 174.106L37.6425 170.003L34.0808 172.202L35.4356 167.666L31.7871 165.682L35.5749 164.13L34.588 159.457Z" fill="#FCEA10"/>
<path d="M77.8361 46.5312L81.9539 48.6568L84.9077 45.5134L85.413 49.4359L90.3042 49.3391L86.8145 52.1043L89.958 55.1261L85.1031 54.6509L84.1343 58.5172L81.5687 55.1598L77.2163 56.959L78.8691 53.2481L74.4106 51.6246L79.0422 50.3524L77.8361 46.5312Z" fill="#FCEA10"/>
<path d="M103.167 126.33L108.785 130.237L112.491 124.981L113.437 131.778L119.924 131.889L115.483 136.463L119.869 141.855L113.388 140.758L112.369 147.376L108.725 141.435L103.07 144.29L105.009 137.979L98.9734 134.925L105.035 132.997L103.167 126.33Z" fill="#FCEA10"/>
<path d="M154.942 128.665L158.19 131.671L161.375 128.593L161.103 133.064L165.437 133.692L161.853 136.264L164.076 140.123L159.875 138.858L158.312 143.042L156.66 138.894L152.489 140.253L154.627 136.344L150.989 133.853L155.309 133.13L154.942 128.665Z" fill="#FCEA10"/>
<path d="M183.314 170.563L186.724 173.417L190.067 170.494L189.782 174.741L194.335 175.338L190.568 177.782L192.904 181.449L188.493 180.245L186.852 184.221L185.117 180.28L180.735 181.57L182.984 177.858L179.164 175.491L183.698 174.803L183.314 170.563Z" fill="#FCEA10"/>
<path d="M225.225 168.437L230.419 172.942L235.514 168.327L235.08 175.034L242.015 175.976L236.279 179.833L239.835 185.623L233.116 183.726L230.613 190L227.971 183.778L221.295 185.817L224.72 179.953L218.897 176.219L225.81 175.133L225.225 168.437Z" fill="#FCEA10"/>
<path d="M151.584 53.0787L174.318 100.321L236.681 87.089L220.767 18.289L151.584 53.0787ZM172.836 103.308L148.099 51.8989L222.578 14.4487L239.848 89.0928L172.836 103.308Z" fill="#DADADA"/>
<path d="M148.346 54.1825L124.609 28.2722L68.6533 8.61005L17.018 33.4563L15.8936 31.0923L68.4968 5.77945L126.088 26.0129L150.266 52.4081L148.346 54.1825Z" fill="#DADADA"/>
<path d="M255.741 75.8212L251.65 74.96L252.089 70.3039L248.944 73.3654L245.983 70.0761L246.146 74.7544L242.015 75.3072L245.368 78.0797L243.178 82.058L247.193 80.8384L248.593 85.2472L250.247 80.9523L254.183 82.4691L252.23 78.3353L255.741 75.8212Z" fill="#FCEA10"/>
<path d="M179.164 99.4642L176.15 98.8501L176.474 95.5248L174.156 97.7104L171.973 95.3613L172.096 98.7026L169.05 99.0968L171.52 101.079L169.908 103.921L172.865 103.047L173.898 106.198L175.117 103.13L178.018 104.213L176.577 101.261L179.164 99.4642Z" fill="#FCEA10"/>
<path d="M236.958 4.10291L233.513 3.48887L233.884 0.163589L231.232 2.35185L228.74 4.57764e-05L228.88 3.34136L225.399 3.73824L228.223 5.71726L226.377 8.55983L229.76 7.6883L230.94 10.8365L232.333 7.76876L235.646 8.85484L234.002 5.89966L236.958 4.10291Z" fill="#FCEA10"/>
<path d="M158.213 51.0892L153.489 50.3028L154.073 45.625L150.377 48.7571L146.999 45.5133L147.115 50.2048L142.319 50.8389L146.16 53.5547L143.558 57.5904L148.23 56.2869L149.78 60.6844L151.767 56.344L156.303 57.7918L154.107 53.6799L158.213 51.0892Z" fill="#FCEA10"/>
<path d="M130.038 25.7499L126.949 25.6867L126.763 22.3954L124.79 24.9335L122.261 23.0364L122.892 26.2644L119.924 27.1871L122.684 28.676L121.512 31.7258L124.321 30.3518L125.828 33.2319L126.572 30.0327L129.623 30.5731L127.741 27.9574L130.038 25.7499Z" fill="#FCEA10"/>
<path d="M73.6881 5.29897L70.377 5.23885L70.1774 2.1673L68.0635 4.53734L65.3564 2.76361L66.0305 5.77747L62.8516 6.63935L65.8067 8.02976L64.5502 10.8759L67.562 9.59315L69.1744 12.2814L69.9725 9.29497L73.2404 9.80105L71.2263 7.35835L73.6881 5.29897Z" fill="#FCEA10"/>
<path d="M33.9543 19.6443L29.5383 19.5588L29.2754 15.1711L26.457 18.5549L22.8448 16.024L23.7447 20.3286L19.5056 21.5614L23.4464 23.5439L21.773 27.6096L25.7871 25.778L27.9382 29.6198L29.0024 25.3528L33.3602 26.0724L30.6733 22.5853L33.9543 19.6443Z" fill="#FCEA10"/>
</svg>
