<svg width="197" height="232" viewBox="0 0 197 232" fill="none" xmlns="http://www.w3.org/2000/svg">
<path d="M125 145.125V131C118.035 138.801 112.321 140.708 99.1424 140.708H98.9574H98.7687C85.6456 140.708 79.9242 138.819 73 131.1V145.125L98.9981 169L125 145.125Z" fill="#F2C28D"/>
<path d="M73 145.125V131C79.9649 138.801 85.6789 140.708 98.8575 140.708H99.0425H99.2313C112.354 140.708 118.076 138.819 125 131.1V145.125L99.0019 169L73 145.125Z" fill="#F2C28D"/>
<path d="M91 186.675L89.8673 176.25L80.9917 184.082L55.8906 157L21.2993 166.066C8.58971 170.356 0 182.525 0 196.247V232H7.9787H31.0467H37.4819H87.0267L91 186.675Z" fill="#66DFFF"/>
<path d="M106 186.675L107.133 176.25L116.008 184.082L141.109 157L175.701 166.066C188.41 170.356 197 182.525 197 196.247V232H189.021H165.953H159.518H109.973L106 186.675Z" fill="#66DFFF"/>
<path d="M81.7985 183L90.9208 175.437L99 168.733L73.2015 145L56 156.847L81.7985 183Z" fill="#52CBEB"/>
<path d="M116.201 183L107.079 175.437L99 168.733L124.799 145L142 156.847L116.201 183Z" fill="#52CBEB"/>
<path d="M98.4983 169L91 175.795L92.0804 186H104.92L106 175.795L98.4983 169Z" fill="#28324E"/>
<path d="M93.8978 186L90 232H111L107.102 186H93.8978Z" fill="#485678"/>
<path d="M98.2805 140C85.6069 140 80.1 138.088 73.4224 130.242C70.478 126.759 67.3087 122.164 63.1972 116.042C59.7281 110.875 57.0122 103.145 54.9743 93.3471L54.1819 93.5788C53.3146 93.7309 52.4081 93.6151 51.5408 93.2711C47.8433 91.8554 44.4493 86.4605 43.3571 79.5703C41.9973 71.0761 44.6384 63.574 49.2781 62.8064C50.7485 62.5783 52.2975 63.0382 53.693 64.1099C54.7101 64.8377 55.6524 65.8298 56.4839 67.0934V44.2069C56.4839 41.6434 57.0121 39.232 57.9543 37.0125C72.6086 24.9737 85.1858 30.7958 98.4982 37.0053C111.814 30.7958 124.391 24.9737 139.046 37.0125C139.988 39.232 140.516 41.6434 140.516 44.2069V67.0934C141.348 65.8298 142.29 64.8377 143.307 64.1099C144.703 63.0382 146.251 62.5783 147.722 62.8064C152.362 63.574 155.003 71.0761 153.643 79.5703C152.551 86.4605 149.157 91.8554 145.459 93.2711C144.592 93.6151 143.685 93.7309 142.818 93.5788L142.026 93.3471C139.988 103.145 137.272 110.875 133.803 116.042C129.688 122.164 126.522 126.759 123.578 130.242C116.9 138.088 111.393 140 98.7194 140H98.2805Z" fill="#FFD2A1"/>
<path d="M91.6506 116C88.5283 116 86 113.762 86 111.002C86 108.238 88.5283 106 91.6506 106H105.353C108.475 106 111 108.238 111 111.002C111 113.762 108.475 116 105.353 116H91.6506Z" fill="#FFD2A1"/>
<path d="M56.6715 68V44.4631C56.6715 41.8227 57.2085 39.3163 58.1475 37.0445C86.4186 13.0682 106.922 57.9596 140.023 41.3013C140.194 42.3329 140.329 43.3794 140.329 44.4631L140.123 68C142.968 65.0393 144.988 63.1585 147.51 63.5943L148.975 43.2788C149.348 32.6909 145.529 22.4383 138.597 14.7404C128.575 3.60876 118.549 0 98.5002 0C78.4483 0 68.4259 3.60876 58.4 14.7404C51.4682 22.4383 47.6485 32.6909 48.0255 43.2788L49.4908 63.5943C52.0088 63.1585 54.6052 64.8903 56.6715 68Z" fill="#7D4E24"/>
<path d="M96 63.3894V71.0333C96 78.756 89.3293 85 81.0827 85H77.0397C68.7511 85 62 78.7166 62 70.9582V64.1485C62 61.3093 64.4671 59 67.5003 59H91.3526C93.9383 59 96 60.9692 96 63.3894ZM91.957 71.0333V63.3894C91.957 63.0493 91.6778 62.7844 91.3526 62.7844H67.5003C66.6894 62.7844 66.043 63.3895 66.043 64.1485V70.9582C66.043 76.6365 70.9772 81.2156 77.0397 81.2156H81.0827C87.107 81.2156 91.957 76.6723 91.957 71.0333Z" fill="#575756"/>
<path d="M102 63.3894V71.0333C102 78.756 108.278 85 116.042 85H119.847C127.647 85 134 78.7166 134 70.9582V64.1485C134 61.3093 131.678 59 128.824 59H106.377C103.944 59 102 60.9692 102 63.3894ZM105.805 71.0333V63.3894C105.805 63.0493 106.071 62.7844 106.377 62.7844H128.824C129.587 62.7844 130.195 63.3895 130.195 64.1485V70.9582C130.195 76.6365 125.552 81.2156 119.847 81.2156H116.042C110.373 81.2156 105.805 76.6723 105.805 71.0333Z" fill="#575756"/>
<path d="M65 68H54.0831L53 63H65V68Z" fill="#575756"/>
<path d="M133 68H143.917L145 63H133V68Z" fill="#575756"/>
<path d="M94 68V63H103V68H94Z" fill="#575756"/>
<path d="M72.7339 66L70 69.3238V72.2958C70 73.6311 70.2959 74.8765 70.7767 76L79 66H72.7339Z" fill="#F6F6F6"/>
<path d="M111.341 66L108 69.3238V72.2958C108 73.6311 108.358 74.8765 108.946 76L119 66H111.341Z" fill="#F6F6F6"/>
<path d="M48.5117 91.7243L44.5606 91.9943C38.8938 92.437 36.5388 66.7303 42.4201 66.2726L46.3712 66.0025C51.0111 65.7062 52.9206 91.4429 48.5117 91.7243Z" fill="#575756"/>
<path d="M45.9154 79.833C46.4191 83.9598 44.6221 87.6041 41.907 87.9697C39.1954 88.339 36.5874 85.2902 36.0837 81.1671C35.5835 77.0403 37.3769 73.3959 40.0921 73.0303C42.8072 72.661 45.4152 75.7099 45.9154 79.833Z" fill="#575756"/>
<path d="M148.281 91.7243L151.906 91.9943C157.096 92.437 159.258 66.7303 153.864 66.2726L150.242 66.0025C145.99 65.7062 144.24 91.4429 148.281 91.7243Z" fill="#575756"/>
<path d="M151.092 79.833C150.542 83.9598 152.515 87.6041 155.501 87.9697C158.488 88.339 161.357 85.2902 161.907 81.1671C162.461 77.0403 160.484 73.3959 157.502 73.0303C154.515 72.661 151.646 75.7099 151.092 79.833Z" fill="#575756"/>
<path d="M84.5972 123C46.536 123 43.0324 85.7089 43 85.3286L46.7878 85C46.9101 86.4253 50.0756 120.031 85.9137 119.082L86 122.985C85.5288 122.996 85.0576 123 84.5972 123Z" fill="#575756"/>
<path d="M111 120.998C111 123.762 108.457 126 105.317 126H91.6833C88.5468 126 86 123.762 86 120.998C86 118.238 88.5468 116 91.6833 116H105.317C108.457 116 111 118.238 111 120.998Z" fill="#575756"/>
<path d="M168 225H123V200H168V225Z" fill="#F6F6F6"/>
<path d="M149 205H142V194H149V205Z" fill="#878787"/>
</svg>
