<svg width="247" height="192" viewBox="0 0 247 192" fill="none" xmlns="http://www.w3.org/2000/svg">
<path d="M142.49 161.535C145.809 163.488 151.191 163.488 154.51 161.535C156.17 160.56 157 159.281 157 157.999C157 156.72 156.17 155.441 154.51 154.462C151.191 152.513 145.809 152.513 142.49 154.462C140.83 155.441 140 156.72 140 157.999C140 159.281 140.83 160.56 142.49 161.535Z" fill="#A4A4A4"/>
<path d="M153.977 120H143.024L140 158H157L153.977 120Z" fill="#A4A4A4"/>
<path d="M162.029 129.469C144.388 119.806 130.098 96.3033 130.098 76.9813C130.098 67.8922 133.246 61.3345 138.454 58C123.6 66.7413 119.119 92.4705 130.098 113.133C140.674 132.993 165.016 138.479 181 132.993C175.713 134.413 169.133 133.38 162.029 129.469Z" fill="#6D6D6C"/>
<path d="M162.02 59.2439C154.999 55.0508 148.547 54.0722 143.423 55.8352L142.855 56.0698C142.132 56.385 141.449 56.7369 140.767 57.1291L139.856 57.7155C134.96 61.1243 132 67.8282 132 77.1199C132 96.8724 145.435 120.899 162.02 130.777C168.699 134.776 174.885 135.831 179.856 134.38C181.26 133.991 182.588 133.365 183.803 132.54H183.842C188.889 129.168 192 122.391 192 112.905C192 93.1484 178.565 69.1221 162.02 59.2439Z" fill="#EFEFEF"/>
<path d="M161.419 105.108L190 79.9839L187.622 77L154.014 92.2401L154.023 92.2622C152.802 92.6601 152 93.9421 152 95.9498C152 99.3831 154.305 103.561 157.148 105.277C158.804 106.279 160.261 106.195 161.202 105.299L161.21 105.314L161.399 105.13L161.419 105.108Z" fill="#6D6D6C"/>
<path d="M164 166H132V158H164V166Z" fill="#EFEFEF"/>
<path d="M186 192H111V172.765C111 169.03 114.105 166 117.935 166H179.065C182.895 166 186 169.03 186 172.765V192Z" fill="#C2C2C2"/>
<path d="M192 78.5C192 81.5398 190.656 84 188.999 84C187.343 84 186 81.5398 186 78.5C186 75.4603 187.343 73 188.999 73C190.656 73 192 75.4603 192 78.5Z" fill="#EFEFEF"/>
<path d="M213.757 171.976C216.1 173.341 219.9 173.341 222.242 171.976C223.415 171.292 224 170.396 224 169.5C224 168.604 223.415 167.708 222.242 167.024C219.9 165.659 216.1 165.659 213.757 167.024C212.585 167.708 212 168.604 212 169.5C212 170.396 212.585 171.292 213.757 171.976Z" fill="#9C9C9C"/>
<path d="M221.867 141H214.133L212 169H224L221.867 141Z" fill="#9C9C9C"/>
<path d="M228.351 148.121C216.592 141.343 207.066 124.861 207.066 111.311C207.066 104.937 209.164 100.339 212.636 98C202.733 104.13 199.746 122.172 207.066 136.666C214.117 150.593 230.343 154.438 241 150.594C237.474 151.588 233.089 150.864 228.351 148.121Z" fill="#676766"/>
<path d="M225.513 98.9714C220.482 96.0371 215.859 95.3495 212.186 96.585L211.779 96.7505C211.262 96.9674 210.772 97.2174 210.282 97.4895L209.63 97.9014C206.12 100.288 204 104.979 204 111.484C204 125.309 213.628 142.128 225.513 149.044C230.301 151.842 234.734 152.582 238.297 151.567C239.304 151.295 240.256 150.853 241.125 150.28H241.154C244.77 147.919 247 143.172 247 136.532C247 122.706 237.372 105.884 225.513 98.9714Z" fill="#E3E3E3"/>
<path d="M226.444 131.415L246 114.958L244.373 113L221.377 122.986L221.384 123C220.548 123.259 220 124.1 220 125.414C220 127.666 221.577 130.402 223.521 131.526C224.654 132.183 225.652 132.128 226.296 131.54L226.301 131.55L226.431 131.429L226.444 131.415Z" fill="#676766"/>
<path d="M229 175H204V169H229V175Z" fill="#E3E3E3"/>
<path d="M242.999 192H192V179.423C192 176.981 194.111 175 196.715 175H238.284C240.888 175 243 176.981 243 179.423L242.999 192Z" fill="#B8B8B8"/>
<path d="M247 112.5C247 113.881 246.105 115 244.999 115C243.895 115 243 113.881 243 112.5C243 111.119 243.895 110 244.999 110C246.105 110 247 111.119 247 112.5Z" fill="#E3E3E3"/>
<path d="M44.5144 149.655C49.201 152.782 56.7986 152.782 61.4838 149.655C63.8277 148.096 65 146.047 65 143.998C65 141.954 63.8277 139.905 61.4838 138.342C56.7986 135.219 49.201 135.219 44.5144 138.342C42.1719 139.905 41 141.954 41 143.998C41 146.047 42.1719 148.096 44.5144 149.655Z" fill="#BCBCBC"/>
<path d="M60.7319 89H45.2677L41 144H65L60.7319 89Z" fill="#BCBCBC"/>
<path d="M72.7035 104.951C49.1839 90.896 30.1325 56.7113 30.1325 28.6048C30.1325 15.3894 34.3287 5.85221 41.273 1C21.4653 13.7138 15.4917 51.1346 30.1325 81.1953C44.2326 110.082 76.6867 118.059 98 110.082C90.9492 112.148 82.177 110.639 72.7035 104.951Z" fill="#939392"/>
<path d="M72.0263 5.83672C61.964 0.0706482 52.7156 -1.27574 45.3716 1.14773L44.5577 1.47446C43.5227 1.90171 42.5431 2.39001 41.565 2.92856C41.1305 3.14398 40.6945 3.41325 40.2597 3.73638C33.2411 8.42535 29 17.6417 29 30.4125C29 57.5733 48.2552 90.6079 72.0263 104.19C81.6012 109.687 90.4672 111.145 97.5934 109.148C99.6065 108.61 101.511 107.748 103.252 106.617H103.305C110.541 101.982 115 92.658 115 79.6179C115 52.4535 95.7433 19.4189 72.0263 5.83672Z" fill="#F3F3F3"/>
<path d="M68.8802 70.7108L111 34.3254L107.497 30L57.9659 52.0753L57.9818 52.1019C56.1811 52.6796 55 54.5382 55 57.4459C55 62.4212 58.3962 68.4683 62.5854 70.954C65.026 72.4021 67.1731 72.2843 68.5608 70.9845L68.5723 71.0072L68.851 70.7412L68.8802 70.7108Z" fill="#939392"/>
<path d="M75 156H29V144H75V156Z" fill="#F3F3F3"/>
<path d="M103 192H0V165.372C0 160.195 4.26438 156 9.52425 156H93.4761C98.7356 156 103 160.195 103 165.372V192Z" fill="#D2D2D2"/>
<path d="M115 33.5015C115 35.9878 112.313 38 109 38C105.687 38 103 35.9878 103 33.5015C103 31.0152 105.687 29 109 29C112.313 29 115 31.0152 115 33.5015Z" fill="#EFEFEF"/>
<path d="M30 30C17.4438 30 6.01843 21.6301 2.83977 9.09549C2.24806 6.76126 1.97766 4.42081 2.00144 2.12221C1.9785 4.42081 2.2489 6.76126 2.84061 9.09549C6.01927 21.6301 17.4438 30 30 30ZM2.00312 2.00415C2.00312 2.00166 2.00312 2.00166 2.00312 2C2.00312 2 2.00312 2.00166 2.00312 2.00415Z" fill="#5D2B67" fill-opacity="0.5"/>
</svg>
