<svg width="352" height="434" viewBox="0 0 352 434" fill="none" xmlns="http://www.w3.org/2000/svg">
<path d="M450.3 360.888C461.593 425.703 382.888 492.453 275.627 510.342C168.382 528.228 72.7035 490.311 61.9213 425.662C68.2167 463.408 160.257 479.515 267.502 461.629C374.764 443.739 456.869 398.587 450.3 360.888Z" fill="#773CA8"/>
<path d="M68.6665 442.1C91.7449 495.219 178.921 524.52 275.31 508.444C345.18 496.791 405.917 463.369 433.818 421.221C443.04 407.288 448.281 392.819 449.348 378.611C448.382 380.72 447.191 382.843 445.779 384.977C424.028 417.835 352.512 449.401 267.819 463.527C215.767 472.208 165.613 473.23 126.597 466.402C99.0608 461.584 79.2649 453.189 68.6665 442.1ZM275.943 512.24C167.889 530.261 71.0809 491.557 60.1406 425.96C59.9658 424.912 60.6217 423.929 61.6059 423.765C62.5902 423.601 63.5294 424.317 63.7043 425.366C66.5593 442.484 89.6715 456.06 127.115 462.611C165.759 469.373 215.504 468.349 267.186 459.73C350.991 445.753 421.565 414.807 442.802 382.725C447.776 375.211 449.7 367.97 448.52 361.201C448.337 360.154 448.986 359.166 449.969 358.993L449.983 358.991C450.961 358.828 451.897 359.534 452.08 360.576C455.671 381.19 450.385 402.94 436.794 423.473C408.363 466.42 346.729 500.434 275.943 512.24Z" fill="#582285"/>
<path d="M450.3 360.888C456.596 398.634 374.764 443.739 267.502 461.628C160.257 479.515 68.2167 463.408 61.9214 425.662C55.6262 387.916 137.458 342.811 244.703 324.925C351.964 307.035 444.005 323.142 450.3 360.888Z" fill="#A06ACC"/>
<path d="M245.02 326.824C193.337 335.443 145.953 350.619 111.595 369.556C78.3043 387.904 60.8491 408.246 63.7043 425.366C66.5595 442.485 89.6715 456.06 127.115 462.611C165.759 469.372 215.504 468.349 267.186 459.73C318.875 451.109 366.264 435.932 400.625 416.995C433.917 398.647 451.373 378.306 448.518 361.186C445.662 344.066 422.549 330.49 385.105 323.94C346.459 317.178 296.71 318.203 245.02 326.824ZM267.819 463.527C215.767 472.208 165.613 473.23 126.597 466.402C86.9341 459.463 63.3319 445.1 60.1397 425.96C56.9474 406.819 74.6107 385.574 109.875 366.137C144.563 347.018 192.334 331.708 244.386 323.027C296.446 314.344 346.604 313.322 385.623 320.148C425.288 327.087 448.89 341.451 452.082 360.592C455.274 379.732 437.611 400.977 402.345 420.413C367.654 439.533 319.879 454.844 267.819 463.527Z" fill="#582285"/>
<path d="M357.98 373.571L346.086 357.694L159.455 388.821L153.358 407.698C152.718 408.557 152.443 409.373 152.57 410.137C153.948 418.401 202.149 421.914 259.296 412.383C316.442 402.852 360.895 383.886 359.517 375.622C359.389 374.858 358.864 374.176 357.98 373.571Z" fill="#CACFF7"/>
<path d="M160.823 390.544L155.071 408.355C155.006 408.555 154.91 408.743 154.786 408.908C154.405 409.421 154.335 409.741 154.352 409.84C155.199 414.918 197.817 420.687 258.98 410.486C320.143 400.285 358.582 380.998 357.735 375.919C357.717 375.814 357.546 375.539 357.022 375.179C356.851 375.063 356.699 374.917 356.574 374.748L345.35 359.768L160.823 390.544ZM259.613 414.282C205.51 423.305 152.622 421.435 150.787 410.434C150.584 409.216 150.903 407.982 151.735 406.759L157.741 388.165C157.954 387.507 158.489 387.031 159.138 386.923L345.77 355.797C346.418 355.689 347.079 355.965 347.493 356.518L359.21 372.156C360.393 373.042 361.095 374.107 361.298 375.325C363.133 386.326 313.716 405.259 259.613 414.282Z" fill="#582285"/>
<path d="M262.662 399.939C263.181 403.053 261.232 405.973 258.309 406.461C255.385 406.949 252.594 404.819 252.074 401.705C251.555 398.591 253.504 395.672 256.428 395.184C259.351 394.697 262.143 396.825 262.662 399.939Z" fill="#8F97D9"/>
<path d="M256.744 397.083C254.809 397.405 253.512 399.345 253.856 401.408C254.2 403.471 256.057 404.886 257.992 404.563C259.928 404.24 261.224 402.299 260.88 400.237C260.536 398.174 258.681 396.76 256.744 397.083ZM258.625 408.359C254.724 409.01 250.986 406.159 250.292 402.002C249.599 397.847 252.21 393.937 256.111 393.287C260.013 392.636 263.751 395.487 264.444 399.642C265.137 403.799 262.527 407.708 258.625 408.359Z" fill="#626BB5"/>
<path d="M218.087 404.945C218.607 408.059 216.658 410.979 213.734 411.467C210.811 411.954 208.02 409.825 207.501 406.711C206.981 403.596 208.93 400.676 211.853 400.189C214.778 399.701 217.568 401.831 218.087 404.945Z" fill="#8F97D9"/>
<path d="M212.17 402.088C210.234 402.411 208.938 404.352 209.282 406.414C209.626 408.476 211.482 409.89 213.417 409.568C215.354 409.245 216.649 407.305 216.306 405.243C215.962 403.18 214.106 401.765 212.17 402.088ZM214.05 413.365C210.149 414.015 206.411 411.163 205.718 407.009C205.025 402.852 207.635 398.942 211.536 398.291C215.439 397.64 219.177 400.492 219.87 404.649C220.563 408.803 217.953 412.714 214.05 413.365Z" fill="#626BB5"/>
<path d="M180.052 404.849C180.572 407.964 178.623 410.883 175.699 411.37C172.775 411.858 169.984 409.73 169.465 406.615C168.945 403.501 170.895 400.581 173.818 400.094C176.742 399.606 179.533 401.735 180.052 404.849Z" fill="#8F97D9"/>
<path d="M174.135 401.991C172.198 402.314 170.903 404.255 171.247 406.318C171.59 408.38 173.446 409.796 175.383 409.473C177.319 409.15 178.614 407.208 178.27 405.147C177.926 403.084 176.071 401.668 174.135 401.991ZM176.016 413.269C172.114 413.92 168.376 411.068 167.683 406.912C166.99 402.756 169.599 398.845 173.501 398.194C177.403 397.544 181.14 400.396 181.833 404.552C182.526 408.708 179.917 412.619 176.016 413.269Z" fill="#626BB5"/>
<path d="M295.861 391.974C296.38 395.088 299.17 397.217 302.094 396.73C305.018 396.242 306.967 393.322 306.447 390.208C305.928 387.094 303.137 384.964 300.213 385.452C297.289 385.94 295.341 388.86 295.861 391.974Z" fill="#8F97D9"/>
<path d="M300.53 387.351C298.593 387.674 297.299 389.615 297.643 391.677C297.986 393.739 299.841 395.154 301.777 394.831C303.714 394.508 305.01 392.568 304.666 390.506C304.322 388.443 302.466 387.028 300.53 387.351ZM302.41 398.628C298.509 399.278 294.772 396.426 294.079 392.272C293.386 388.115 295.995 384.205 299.896 383.554C303.799 382.903 307.536 385.755 308.229 389.912C308.922 394.066 306.313 397.977 302.41 398.628Z" fill="#626BB5"/>
<path d="M331.806 379.54C332.325 382.654 335.116 384.782 338.04 384.295C340.964 383.807 342.913 380.888 342.394 377.774C341.874 374.66 339.083 372.53 336.159 373.018C333.236 373.506 331.286 376.426 331.806 379.54Z" fill="#8F97D9"/>
<path d="M336.476 374.916C334.54 375.239 333.245 377.18 333.589 379.242C333.932 381.304 335.788 382.721 337.724 382.398C339.66 382.075 340.956 380.133 340.612 378.071C340.268 376.008 338.412 374.593 336.476 374.916ZM338.357 386.194C334.456 386.844 330.717 383.992 330.024 379.837C329.331 375.681 331.941 371.77 335.843 371.119C339.745 370.468 343.483 373.32 344.176 377.477C344.869 381.632 342.259 385.543 338.357 386.194Z" fill="#626BB5"/>
<path d="M346.086 357.694C347.465 365.959 306.803 379.627 255.267 388.222C203.73 396.818 160.834 397.086 159.455 388.821C158.077 380.556 198.739 366.888 250.275 358.293C301.811 349.697 344.708 349.429 346.086 357.694Z" fill="#7940A8"/>
<path d="M250.592 360.191C190.494 370.214 160.477 383.964 161.237 388.524C161.998 393.084 194.853 396.348 254.95 386.325C315.046 376.302 345.065 362.552 344.304 357.992C343.544 353.432 310.688 350.168 250.592 360.191ZM255.583 390.12C217.357 396.496 159.736 401.491 157.673 389.118C155.609 376.746 211.732 362.77 249.958 356.395C288.185 350.019 345.805 345.025 347.868 357.397C349.932 369.77 293.809 383.745 255.583 390.12Z" fill="#582285"/>
<path d="M133.512 354.564C115.019 327.222 90.4934 282.786 74.7735 222.276C61.4699 171.064 66.6825 129.745 86.0559 98.7694C83.4283 102.974 81.0632 107.368 78.9677 111.952C101.103 81.7774 137.834 62.5532 184.431 54.7817C279.899 38.8595 351.785 81.8196 360.283 192.875C364.123 243.05 359.186 285.221 352.618 316.383C320.031 314.393 282.725 316.633 244.386 323.027C203.323 329.875 164.925 340.85 133.512 354.564Z" fill="#CDEDFF"/>
<path d="M158.176 386.278C155.93 383.903 147.166 374.315 135.717 357.786C166.724 344.34 204.554 333.573 245.02 326.824C282.85 320.514 319.638 318.274 351.799 320.176C348.923 333.175 345.803 344.113 343.001 352.761C328.033 346.643 282.127 351.03 249.958 356.395C214.632 362.287 164.023 374.668 158.176 386.278Z" fill="#9B9FE4"/>
<path d="M135.717 357.786C134.991 356.738 134.258 355.667 133.512 354.565C164.925 340.85 203.323 329.875 244.386 323.027C282.725 316.633 320.031 314.393 352.618 316.383C352.348 317.664 352.073 318.933 351.799 320.176C319.639 318.274 282.85 320.514 245.02 326.824C204.554 333.573 166.724 344.34 135.717 357.786Z" fill="#7679BF"/>
<path d="M254.95 386.325C194.853 396.348 161.998 393.084 161.237 388.524C160.477 383.965 190.494 370.214 250.592 360.191C301.844 351.643 333.283 352.759 341.898 356.102C341.092 358.492 340.322 360.678 339.601 362.65C329.028 368.902 300.708 378.693 254.95 386.325Z" fill="#8789D2"/>
<path d="M255.267 388.222C203.73 396.818 160.834 397.086 159.455 388.821C159.341 388.135 158.736 386.863 158.736 386.863C158.736 386.863 158.544 386.669 158.176 386.277C164.023 374.668 214.632 362.287 249.958 356.395C282.127 351.03 328.033 346.642 343.001 352.761C342.628 353.915 342.26 355.028 341.898 356.101C333.283 352.758 301.844 351.643 250.592 360.191C190.494 370.214 160.477 383.964 161.237 388.524C161.998 393.084 194.853 396.348 254.95 386.325C300.708 378.693 329.028 368.901 339.601 362.65C339.25 363.609 338.911 364.519 338.587 365.377C340.103 364.551 341.408 363.742 342.484 362.955C331.52 371.001 296.951 381.27 255.267 388.222Z" fill="#7679BF"/>
<path d="M359.508 316.873L359.507 316.872C368.126 285.009 376.904 235.02 372.134 172.688C369.222 134.636 358.872 104.579 342.683 82.1432C358.872 104.577 369.224 134.635 372.135 172.682C376.904 235.018 368.127 285.009 359.508 316.873Z" fill="#CDEDFF"/>
<path d="M346.472 354.875C346.471 354.874 346.471 354.874 346.47 354.874C347.823 351.898 353.001 339.986 358.467 320.636L358.468 320.636C353.002 339.989 347.823 351.901 346.472 354.875Z" fill="#9B9FE4"/>
<path d="M346.062 358.662C346.128 358.336 346.136 358.015 346.084 357.703C345.969 357.015 346.129 355.61 346.129 355.61C346.129 355.61 346.248 355.362 346.47 354.874C346.471 354.873 346.471 354.873 346.472 354.874C346.25 355.362 346.131 355.609 346.131 355.609C346.131 355.609 345.972 357.009 346.086 357.694C346.139 358.009 346.13 358.332 346.062 358.662Z" fill="#7679BF"/>
<path d="M86.0574 98.7664C86.0637 98.7585 86.0661 98.7536 86.0713 98.7459C86.067 98.7523 86.0628 98.7598 86.0574 98.7664Z" fill="#CDEDFF"/>
<path d="M239.646 342.339C231.905 346.771 224.792 352.561 218.631 359.325C210.63 368.131 204.209 378.607 200.071 389.929C199.521 391.464 198.993 393.016 198.538 394.575C193.721 394.792 189.229 394.878 185.156 394.836C186.017 391.434 187.055 388.1 188.25 384.837C194.667 367.301 205.835 351.567 219.832 339.947C220.909 339.045 222.01 338.179 223.132 337.328C226.447 334.804 229.893 332.513 233.472 330.473C236.513 328.716 240.384 329.963 242.087 333.25C243.803 336.514 242.704 340.58 239.646 342.339Z" fill="#2CC96B"/>
<path d="M187.558 392.924C190.587 392.919 193.814 392.847 197.192 392.708C197.517 391.675 197.899 390.552 198.378 389.215C202.534 377.838 209.083 367.042 217.316 357.976C223.703 350.967 230.917 345.135 238.761 340.644C239.827 340.031 240.594 339.012 240.921 337.778C241.243 336.56 241.097 335.276 240.51 334.161C239.916 333.012 238.948 332.18 237.782 331.806C236.623 331.436 235.408 331.563 234.362 332.164C230.9 334.138 227.487 336.402 224.205 338.897C223.105 339.733 222.026 340.581 220.97 341.465C207.172 352.92 196.154 368.581 189.94 385.565C189.048 387.997 188.25 390.463 187.558 392.924ZM198.855 396.473L198.652 396.495C193.836 396.711 189.301 396.8 185.175 396.757C184.61 396.751 184.074 396.464 183.727 395.983C183.38 395.5 183.261 394.879 183.407 394.301C184.268 390.901 185.33 387.472 186.562 384.11C193.002 366.508 204.415 350.283 218.699 338.424C219.791 337.509 220.914 336.625 222.059 335.757C225.46 333.169 229.004 330.82 232.59 328.776C234.472 327.689 236.666 327.456 238.763 328.129C240.865 328.803 242.608 330.302 243.668 332.351C244.726 334.361 244.99 336.685 244.407 338.886C243.82 341.106 242.444 342.934 240.533 344.032L240.53 344.034C233.004 348.344 226.079 353.943 219.945 360.675C212.033 369.384 205.744 379.751 201.76 390.656C201.112 392.466 200.651 393.865 200.27 395.176C200.068 395.866 199.518 396.362 198.855 396.473Z" fill="#17733C"/>
<path d="M330.579 369.099C326.946 370.602 322.767 372.119 318.091 373.621C317.333 372.596 316.565 371.612 315.779 370.631C307.847 360.853 297.91 352.775 286.942 346.976L286.903 346.963C282.728 344.772 278.422 342.895 274.02 341.425C270.365 340.162 266.648 339.181 262.902 338.46C259.438 337.789 257.079 334.3 257.643 330.656C258.162 327.175 261.119 324.807 264.362 325.145C264.55 325.172 264.719 325.202 264.889 325.233C268.523 325.934 272.138 326.853 275.696 327.976L275.734 327.989C277.454 328.522 279.167 329.134 280.849 329.77C297.877 336.216 313.546 347.474 325.307 361.979C327.154 364.266 328.924 366.644 330.579 369.099Z" fill="#2CC96B"/>
<path d="M287.574 345.189L287.722 345.259C298.996 351.22 309.168 359.567 317.14 369.395C317.674 370.06 318.197 370.724 318.713 371.399C321.956 370.336 324.972 369.26 327.718 368.183C326.535 366.522 325.271 364.857 323.943 363.212C312.551 349.161 297.04 337.926 280.272 331.577C278.346 330.85 276.753 330.295 275.261 329.832L275.235 329.824L275.212 329.817C271.723 328.714 268.152 327.808 264.601 327.123L264.158 327.05C261.897 326.818 259.795 328.545 259.431 330.993C259.237 332.25 259.515 333.512 260.215 334.56C260.925 335.622 261.983 336.337 263.191 336.57C267.078 337.319 270.9 338.338 274.548 339.599C278.84 341.032 283.228 342.915 287.574 345.189ZM318.407 375.519C317.76 375.627 317.092 375.352 316.674 374.787C315.934 373.783 315.181 372.82 314.411 371.86C306.792 362.465 297.059 354.473 286.265 348.747L286.128 348.682C281.918 346.472 277.673 344.647 273.508 343.257C269.999 342.044 266.34 341.067 262.614 340.35C260.448 339.931 258.554 338.649 257.278 336.739C256.012 334.846 255.507 332.562 255.858 330.305C256.512 325.91 260.309 322.8 264.502 323.233L265.094 323.328C268.849 324.051 272.539 324.987 276.146 326.126L276.219 326.149C277.779 326.632 279.434 327.208 281.425 327.961C298.791 334.536 314.859 346.178 326.669 360.744C328.606 363.144 330.414 365.587 332.044 368.002C332.37 368.487 332.472 369.098 332.321 369.662C332.169 370.226 331.779 370.679 331.266 370.891C327.568 372.423 323.322 373.959 318.647 375.461L318.407 375.519Z" fill="#17733C"/>
<path d="M303.164 378.023C300.429 378.751 297.601 379.477 294.677 380.179C282.801 383.096 269.45 385.85 255.265 388.216C240.349 390.703 226.161 392.504 213.484 393.584C214.363 382.824 216.331 371.121 218.631 359.325C220.06 351.965 221.627 344.563 223.132 337.328C223.906 333.629 224.674 329.989 225.396 326.416L270.357 318.917C272.1 321.904 273.904 324.92 275.734 327.989C276.549 329.355 277.366 330.741 278.186 332.146C281.109 337.043 284.063 342.013 286.942 346.976C287.739 348.346 288.516 349.718 289.298 351.11C289.812 351.999 290.331 352.907 290.831 353.819C291.846 355.62 292.846 357.443 293.822 359.231C294.801 361.039 295.758 362.83 296.681 364.627C297.157 365.504 297.619 366.402 298.062 367.303C299.421 369.964 300.703 372.599 301.91 375.227C302.343 376.17 302.771 377.093 303.182 378.02C303.535 378.819 303.871 379.621 304.203 380.405C303.871 379.621 303.518 378.822 303.164 378.023Z" fill="#2CC96B"/>
<path d="M303.164 378.023C300.429 378.752 297.601 379.477 294.677 380.179C289.233 367.742 281.725 354.46 274.02 341.425C270.792 335.915 267.521 330.471 264.362 325.145C263.417 323.547 262.474 321.948 261.554 320.385L270.339 318.92C272.08 321.887 273.886 324.923 275.696 327.976C276.513 329.362 277.348 330.744 278.186 332.146C281.092 337.046 284.042 341.997 286.903 346.963C287.72 348.349 288.499 349.721 289.298 351.11C289.812 351.999 290.331 352.907 290.831 353.82C291.846 355.62 292.846 357.443 293.822 359.231C294.801 361.039 295.741 362.833 296.681 364.627C297.157 365.504 297.619 366.402 298.062 367.304C299.404 369.968 300.703 372.599 301.91 375.227C302.343 376.17 302.754 377.096 303.164 378.023Z" fill="#33E87B"/>
<path d="M284.445 342.725C273.997 349.267 262.414 353.949 249.904 356.035C239.605 357.753 229.303 357.599 219.3 355.931C221.282 345.963 223.478 335.959 225.402 326.409L270.345 318.914C274.873 326.626 279.729 334.654 284.445 342.725Z" fill="#0DA14D"/>
<path d="M215.492 391.476C227.845 390.36 241.108 388.626 254.948 386.318C268.744 384.017 281.963 381.321 294.236 378.306C296.411 377.785 298.529 377.251 300.595 376.711L300.285 376.038C299.116 373.493 297.834 370.853 296.475 368.193C296.029 367.289 295.581 366.414 295.118 365.561C294.18 363.736 293.229 361.958 292.257 360.164C291.289 358.389 290.292 356.573 289.283 354.78C288.778 353.861 288.269 352.967 287.761 352.091C286.972 350.685 286.198 349.321 285.407 347.96C282.531 343.002 279.582 338.04 276.664 333.15C275.835 331.735 275.021 330.353 274.211 328.991L273.673 328.092C272.25 325.706 270.845 323.35 269.474 321.015L226.911 328.114C226.347 330.874 225.76 333.672 225.166 336.508L224.078 341.72C222.846 347.627 221.572 353.735 220.404 359.749C217.888 372.649 216.313 382.816 215.492 391.476ZM255.581 390.113C240.83 392.574 226.728 394.386 213.666 395.499C213.13 395.545 212.597 395.335 212.214 394.924C211.83 394.515 211.635 393.948 211.681 393.379C212.441 384.068 214.087 373.113 216.859 358.899C218.031 352.858 219.308 346.737 220.542 340.816L221.631 335.599C222.314 332.343 222.987 329.133 223.626 325.976C223.779 325.215 224.354 324.638 225.079 324.517L270.04 317.018C270.766 316.897 271.497 317.257 271.889 317.929C273.459 320.617 275.078 323.329 276.72 326.083L277.258 326.985C278.076 328.357 278.896 329.748 279.719 331.158C282.637 336.045 285.594 341.023 288.478 345.993C289.278 347.369 290.062 348.75 290.849 350.15C291.357 351.031 291.883 351.953 292.39 352.879C293.398 354.667 294.402 356.498 295.383 358.294C296.373 360.121 297.338 361.925 298.266 363.735C298.733 364.593 299.207 365.516 299.661 366.441C301.034 369.124 302.341 371.815 303.534 374.413L303.846 375.091C304.176 375.81 304.502 376.519 304.817 377.232C305.246 378.199 304.861 379.337 303.958 379.772C303.833 379.832 303.704 379.876 303.575 379.904C300.846 380.63 298.026 381.353 295.111 382.054C282.764 385.086 269.462 387.798 255.581 390.113Z" fill="#17733C"/>
<path d="M333.76 172.831C343.7 232.43 307.338 321.554 245.858 331.808C184.377 342.062 121.059 269.563 111.119 209.963C98.6486 135.193 133.866 92.1266 203.935 80.4406C265.415 70.1869 319.458 87.076 333.76 172.831Z" fill="#2CC96B"/>
<path d="M333.765 172.822C340.337 212.229 326.677 264.529 298.897 298.388C316.352 266.427 324.004 226.756 318.758 195.302C304.456 109.543 250.407 92.6486 188.927 102.902C157.973 108.065 133.81 119.353 117.581 136.808C131.49 106.317 161.238 87.5615 203.937 80.4403C265.417 70.1865 319.465 87.0813 333.765 172.822Z" fill="#33E87B"/>
<path d="M204.25 82.3387C132.591 94.2901 101.002 138.319 112.902 209.666C117.752 238.748 135.943 271.708 160.374 295.682C187.578 322.377 217.825 334.532 245.54 329.91C273.257 325.287 297.92 303.974 314.99 269.896C330.319 239.29 336.829 202.21 331.978 173.128C325.43 133.864 309.852 106.671 285.68 92.3038C265.151 80.1026 237.755 76.7506 204.25 82.3387ZM246.173 333.706C217.332 338.516 185.999 326.006 157.946 298.479C132.947 273.947 114.321 240.145 109.337 210.26C103.137 173.088 108.455 142.834 125.145 120.338C141.271 98.5988 167.672 84.5366 203.617 78.5417C278.667 66.0248 323.053 97.6484 335.542 172.534C340.526 202.418 333.878 240.436 318.194 271.753C300.592 306.894 275.015 328.896 246.173 333.706Z" fill="#17733C"/>
<path d="M260.77 259.999C253.389 217.146 282.481 186.89 320.41 197.001C326.174 241.37 286.593 263.413 260.77 259.999Z" fill="black"/>
<path d="M262.315 258.247C277.222 259.683 294.464 252.755 305.647 240.722C312.945 232.87 321.057 219.231 318.777 198.551C302.241 194.521 286.613 198.349 275.741 209.142C264.14 220.659 259.282 238.493 262.315 258.247ZM274.533 261.572C269.799 262.361 265.081 262.498 260.583 261.905C259.784 261.798 259.135 261.147 258.99 260.306C255.265 238.678 260.459 218.998 273.24 206.312C285.281 194.358 302.622 190.286 320.818 195.139C321.549 195.334 322.1 195.985 322.203 196.777C325.186 219.736 316.261 234.83 308.25 243.451C299.384 252.988 286.907 259.508 274.533 261.572Z" fill="black"/>
<path d="M312.922 219.047C313.53 222.694 311.247 226.113 307.824 226.684C304.4 227.255 301.133 224.762 300.524 221.114C299.916 217.468 302.198 214.048 305.621 213.477C309.045 212.906 312.314 215.4 312.922 219.047Z" fill="white"/>
<path d="M303.037 231.624C303.408 233.848 302.015 235.934 299.926 236.282C297.837 236.631 295.843 235.11 295.472 232.885C295.101 230.66 296.493 228.574 298.582 228.226C300.671 227.877 302.665 229.398 303.037 231.624Z" fill="white"/>
<path d="M283.384 212.246C275.672 222.522 270.45 234.242 268.415 247.322C268.1 249.4 265.173 249.382 264.795 247.316C262.73 236.294 266.266 224.536 273.004 216.209C275.28 213.42 277.964 210.994 281.031 209.276C281.926 208.774 283.051 209.147 283.541 210.108C283.904 210.82 283.819 211.656 283.384 212.246Z" fill="#4D4D4D"/>
<path d="M212.41 268.064C205.485 225.135 168.148 205.958 135.553 227.832C144.501 271.669 189.093 279.674 212.41 268.064Z" fill="black"/>
<path d="M137.602 228.768C142.157 249.068 154.255 259.337 163.707 264.395C178.191 272.149 196.748 273.105 210.38 266.909C206.839 247.238 196.456 231.947 181.745 224.819C167.955 218.14 151.932 219.591 137.602 228.768ZM199.903 274.019C187.528 276.083 173.612 273.964 162.131 267.821C151.755 262.267 138.415 250.886 133.786 228.202C133.625 227.42 133.936 226.625 134.565 226.202C150.201 215.709 167.925 213.935 183.191 221.329C199.399 229.181 210.698 246.111 214.194 267.777C214.331 268.62 213.928 269.447 213.206 269.807C209.145 271.828 204.637 273.229 199.903 274.019Z" fill="black"/>
<path d="M193.895 238.898C194.503 242.546 192.221 245.965 188.797 246.536C185.373 247.107 182.105 244.614 181.497 240.966C180.889 237.319 183.171 233.9 186.594 233.329C190.019 232.758 193.287 235.252 193.895 238.898Z" fill="white"/>
<path d="M184.009 251.475C184.38 253.699 182.988 255.785 180.899 256.134C178.81 256.482 176.816 254.961 176.445 252.736C176.073 250.511 177.466 248.425 179.555 248.077C181.644 247.728 183.638 249.249 184.009 251.475Z" fill="white"/>
<path d="M145.311 232.849C153.537 242.13 160.664 252.263 170.326 259.922C171.925 261.178 170.686 263.925 168.795 263.36C162.402 261.535 156.987 256.989 152.516 251.976C148.165 246.931 144.549 241.219 142.257 234.845C141.899 233.822 142.383 232.701 143.339 232.341C144.046 232.075 144.815 232.299 145.311 232.849Z" fill="#4D4D4D"/>
<path d="M280.532 177.644C272.986 174.952 264.392 176.048 257.796 180.543C251.2 185.038 246.738 192.841 245.991 201.185C254.965 190.359 267.529 182.023 280.532 177.644Z" fill="#128240"/>
<path d="M268.134 178.46C264.8 179.016 261.586 180.264 258.795 182.166C254.47 185.115 251.09 189.683 249.245 194.844C256.174 187.955 264.717 182.16 273.813 178.185C271.918 178.053 270.007 178.147 268.134 178.46ZM246.307 203.083C245.969 203.139 245.612 203.093 245.28 202.937C244.556 202.592 244.114 201.795 244.189 200.965C244.992 191.994 249.705 183.753 256.796 178.919C263.888 174.088 272.964 172.93 281.077 175.824C281.823 176.09 282.334 176.832 282.341 177.664C282.349 178.495 281.852 179.227 281.111 179.476C268.158 183.839 255.858 192.22 247.361 202.471C247.082 202.808 246.707 203.016 246.307 203.083Z" fill="#0E6932"/>
<path d="M163.028 197.242C169.292 192.247 177.777 190.494 185.474 192.605C193.172 194.717 199.925 200.649 203.339 208.299C191.338 200.97 176.749 197.164 163.028 197.242Z" fill="#128240"/>
<path d="M169.56 195.573C179.451 196.38 189.415 199.09 198.204 203.357C194.784 199.074 190.105 195.85 185.055 194.465C179.97 193.07 174.425 193.518 169.56 195.573ZM203.656 210.196C203.257 210.263 202.835 210.188 202.461 209.959C191.099 203.021 176.742 199.086 163.075 199.162C162.292 199.167 161.585 198.637 161.323 197.847C161.061 197.059 161.302 196.191 161.922 195.697C168.659 190.326 177.619 188.478 185.893 190.745C194.169 193.016 201.302 199.281 204.972 207.505C205.312 208.267 205.154 209.164 204.58 209.725C204.317 209.981 203.994 210.14 203.656 210.196Z" fill="#0E6932"/>
<path d="M243.555 297.8C235.458 299.15 226.788 296.68 220.309 291.162C219.522 290.491 219.383 289.28 219.998 288.459C220.612 287.636 221.751 287.512 222.539 288.183C228.284 293.077 235.986 295.209 243.165 293.961C250.333 292.686 256.834 287.997 260.555 281.418C261.062 280.517 262.176 280.238 263.035 280.798C263.895 281.358 264.178 282.542 263.669 283.443C259.425 290.948 252.011 296.297 243.835 297.751C243.742 297.767 243.648 297.784 243.555 297.8Z" fill="black"/>
<path d="M342.484 362.955C344.559 361.431 345.79 359.988 346.062 358.662C345.795 359.991 344.564 361.434 342.484 362.955Z" fill="#B69EC9"/>
<path d="M342.683 82.1428C311.617 39.0947 259.049 24.1146 196.286 34.5823C146.18 42.9391 107.483 64.5292 86.0702 98.7466C107.47 64.5218 146.171 42.9363 196.28 34.5791C259.051 24.1102 311.618 39.0913 342.683 82.1428Z" fill="white"/>
<path d="M359.507 316.872C357.236 316.687 354.938 316.524 352.618 316.383C359.186 285.221 364.123 243.05 360.283 192.875C351.785 81.8197 279.899 38.8596 184.431 54.7817C137.834 62.5533 101.103 81.7775 78.9678 111.952C81.0633 107.368 83.4284 102.974 86.056 98.7694L86.0575 98.766C86.0624 98.7599 86.0663 98.7528 86.0703 98.7469C107.483 64.5294 146.18 42.9394 196.286 34.5826C259.049 24.1149 311.617 39.095 342.683 82.143C358.873 104.579 369.222 134.636 372.134 172.688C376.904 235.02 368.126 285.009 359.507 316.872Z" fill="#E9F7FF"/>
<path d="M346.471 354.874C345.64 354.062 344.47 353.361 343.001 352.761C345.804 344.113 348.924 333.175 351.799 320.176C354.043 320.309 356.268 320.462 358.467 320.636C353.001 339.986 347.824 351.898 346.471 354.874Z" fill="#D3D5F3"/>
<path d="M358.467 320.636C356.268 320.462 354.043 320.309 351.799 320.176C352.073 318.933 352.347 317.664 352.618 316.383C354.937 316.525 357.236 316.688 359.507 316.872C359.159 318.158 358.813 319.409 358.467 320.636Z" fill="#C3C4E3"/>
<path d="M339.601 362.65C340.322 360.678 341.092 358.492 341.898 356.102C343.385 356.678 344.193 357.321 344.304 357.992C344.486 359.08 342.914 360.692 339.601 362.65Z" fill="#CACBEB"/>
<path d="M338.587 365.377C338.911 364.519 339.25 363.609 339.601 362.65C342.914 360.692 344.486 359.079 344.304 357.992C344.193 357.321 343.385 356.678 341.898 356.102C342.26 355.029 342.628 353.915 343.001 352.761C344.47 353.361 345.639 354.062 346.471 354.874C346.248 355.362 346.129 355.61 346.129 355.61C346.129 355.61 345.969 357.016 346.084 357.703C346.136 358.015 346.128 358.336 346.062 358.662C345.79 359.988 344.559 361.431 342.484 362.955C341.408 363.742 340.103 364.551 338.587 365.377Z" fill="#C3C4E3"/>
<path d="M196.603 36.4806C145.022 45.0833 106.965 67.5772 86.5431 101.528C67.4189 133.327 64.0462 173.792 76.5185 221.8C104.051 327.783 159.417 384.924 159.973 385.488C160.126 385.644 160.253 385.826 160.348 386.026C160.519 386.385 161.087 387.625 161.237 388.524C161.998 393.084 194.853 396.348 254.95 386.325C315.046 376.302 345.065 362.552 344.305 357.992C344.155 357.093 344.289 355.736 344.334 355.341C344.359 355.12 344.42 354.907 344.514 354.71C344.857 353.995 378.683 281.98 370.33 172.798C366.547 123.341 350.225 86.1593 321.815 62.2894C291.481 36.8034 248.184 27.8778 196.603 36.4806ZM255.583 390.121C217.357 396.496 159.736 401.491 157.673 389.118C157.641 388.938 157.455 388.444 157.252 387.982C153.148 383.671 99.9037 326.196 73.0304 222.752C60.2736 173.649 63.7893 132.153 83.4805 99.4143C104.46 64.5333 143.358 41.4594 195.97 32.6847C248.582 23.9101 292.863 33.1114 324.026 59.296C353.276 83.8712 370.069 121.981 373.939 172.566C382.091 279.133 350.381 350.777 347.898 356.186C347.856 356.689 347.841 357.218 347.868 357.398C349.932 369.77 293.809 383.745 255.583 390.121Z" fill="#53A4D6"/>
</svg>
