<svg width="457" height="618" viewBox="0 0 457 618" fill="none" xmlns="http://www.w3.org/2000/svg">
<path d="M367.004 180.035C367.004 278.116 285.394 357.627 184.724 357.627C84.053 357.627 2.44312 278.116 2.44312 180.035C2.44312 81.9546 84.053 2.44397 184.724 2.44397C285.394 2.44397 367.004 81.9546 367.004 180.035Z" fill="#BAEAFF"/>
<path d="M348.238 349.648C340.433 345.315 330.592 348.128 326.258 355.933C312.036 381.696 293.868 406.225 273.681 427.697C259.137 410.673 242.721 387.665 233.453 366.536C231.412 361.773 225.975 359.357 221.025 361.133C215.879 362.976 213.201 368.643 215.045 373.789C220.531 389.097 248.672 433.941 252.956 440.915C255.161 444.511 257.1 447.8 260.565 450.801C270.057 459.34 282.912 455.796 290.575 447.731C314.717 425.587 336.097 400.263 354 372.508C359.035 364.709 356.376 354.125 348.238 349.648Z" fill="#96D8FF"/>
<path d="M224.361 362.995C223.525 362.995 222.679 363.136 221.851 363.433C217.981 364.82 215.959 369.095 217.344 372.965C220.617 382.103 232.771 403.679 253.464 437.091L255.331 440.113C257.375 443.451 259.137 446.333 262.165 448.956C270.632 456.569 281.96 453.248 288.804 446.047C312.991 423.857 334.192 398.709 351.944 371.184C353.984 368.029 354.619 364.107 353.689 360.42C352.747 356.687 350.392 353.621 347.061 351.788L347.053 351.784C340.443 348.113 332.067 350.505 328.393 357.12C314.441 382.396 296.136 407.381 275.46 429.371C274.987 429.877 274.337 430.191 273.624 430.14C272.929 430.124 272.273 429.812 271.823 429.284C263.472 419.509 242.8 393.924 231.215 367.517C230.008 364.7 227.261 362.995 224.361 362.995ZM273.111 458.136C268.201 458.136 263.248 456.5 258.932 452.617C255.368 449.531 253.327 446.195 251.163 442.665L249.311 439.663C241.528 427.101 217.853 388.871 212.745 374.613C210.452 368.205 213.797 361.128 220.203 358.833C226.324 356.633 233.136 359.591 235.697 365.575C246.269 389.671 264.699 413.197 273.769 424.021C293.404 402.817 310.779 378.919 324.12 354.753C329.101 345.776 340.451 342.532 349.423 347.512C353.887 349.968 357.167 354.237 358.424 359.224C359.687 364.22 358.82 369.544 356.051 373.833C338.075 401.708 316.6 427.176 292.225 449.531C287.387 454.628 280.299 458.136 273.111 458.136Z" fill="#329CDB"/>
<path d="M169.038 359.829C146.89 369.857 128.297 387.548 117.291 408.669C106.246 429.769 102.562 454.691 106.815 477.62C108.442 486.397 102.646 494.832 93.8686 496.46C84.738 498.189 75.9446 491.712 74.8713 482.485C70.9932 452.025 77.5124 420.965 92.9108 394.976C108.354 369.013 132.255 348.857 159.928 338.045C166.002 335.672 172.852 338.672 175.225 344.748C177.533 350.648 174.758 357.285 169.038 359.829Z" fill="#96D8FF"/>
<path d="M164.229 339.673C163.076 339.673 161.924 339.888 160.82 340.32C133.469 351.007 110.099 370.86 95.0115 396.225C79.8 421.896 73.5068 452.421 77.2953 482.177C77.7319 485.935 79.7381 489.367 82.8037 491.619C85.9079 493.9 89.6772 494.768 93.4131 494.06C100.861 492.678 105.79 485.504 104.411 478.065C100.055 454.573 103.963 428.865 115.128 407.536C126.384 385.932 145.668 367.731 168.032 357.603L168.045 357.596C172.624 355.561 174.779 350.308 172.948 345.637C172.04 343.307 170.275 341.471 167.984 340.465C166.779 339.939 165.505 339.673 164.229 339.673ZM90.9344 499.178C87.0167 499.178 83.1308 497.922 79.91 495.555C75.7563 492.502 73.0344 487.841 72.4448 482.768C68.5251 451.965 75.0453 420.335 90.8105 393.731C106.454 367.432 130.683 346.849 159.04 335.769C166.361 332.913 174.64 336.537 177.5 343.859C180.28 350.961 177.004 358.955 170.043 362.056C148.657 371.741 130.222 389.141 119.458 409.797C108.789 430.181 105.055 454.737 109.216 477.175C111.087 487.261 104.402 496.99 94.3152 498.862C93.1959 499.073 92.0625 499.178 90.9344 499.178Z" fill="#329CDB"/>
<path d="M166.543 507.595C155.58 503.043 145.532 495.549 138.069 485.935C142.325 528.725 151.729 582.265 154.868 586.66C158.796 592.16 167.045 588.624 165.868 583.125C163.977 574.301 163.775 538.348 166.543 507.595Z" fill="#96D8FF"/>
<path d="M141.304 493.374C145.892 535.107 154.288 581.278 156.864 585.253C158.264 587.213 160.331 587.223 161.681 586.626C162.756 586.152 163.797 585.116 163.48 583.637C161.528 574.54 161.335 539.638 163.955 509.141C155.425 505.353 147.727 499.984 141.304 493.374ZM160.011 591.862C157.481 591.862 154.812 590.785 152.88 588.081C149.099 582.785 139.753 527.547 135.639 486.176C135.531 485.092 136.153 484.068 137.165 483.665C138.169 483.257 139.332 483.575 139.999 484.436C147.111 493.6 156.613 500.826 167.48 505.338C168.465 505.748 169.072 506.749 168.976 507.813C166.101 539.748 166.552 574.66 168.256 582.613C169.012 586.138 167.163 589.548 163.653 591.097C162.553 591.583 161.301 591.862 160.011 591.862Z" fill="#329CDB"/>
<path d="M169.962 515.596C171.404 499.585 173.534 484.783 176.492 474.563C181.522 457.187 134.424 456.272 134.424 456.272C134.7 466.105 135.573 477.856 136.82 490.384C145.506 501.574 157.201 510.298 169.962 515.596Z" fill="#2B9EE0"/>
<path d="M139.181 489.436C146.77 499.035 156.618 506.778 167.845 511.997C169.429 495.672 171.545 482.86 174.144 473.884C174.7 471.964 174.437 470.357 173.313 468.832C168.069 461.709 147.257 459.297 136.95 458.805C137.27 467.367 138.018 477.651 139.181 489.436ZM169.961 518.038C169.644 518.038 169.325 517.977 169.024 517.852C155.533 512.249 143.728 503.269 134.889 491.881C134.608 491.519 134.433 491.083 134.388 490.625C133.054 477.205 132.243 465.669 131.981 456.341C131.964 455.673 132.219 455.027 132.689 454.552C133.16 454.076 133.816 453.803 134.472 453.829C137.988 453.899 169.06 454.819 177.248 465.935C179.258 468.668 179.809 471.885 178.838 475.243C176.188 484.398 173.96 498.428 172.394 515.816C172.325 516.589 171.892 517.284 171.226 517.686C170.84 517.921 170.4 518.038 169.961 518.038Z" fill="#1182C2"/>
<path d="M149.321 579.9C154.611 576.144 162.244 577.629 165.329 583.336C166.981 586.391 165.787 588.385 161.869 592.32C152.921 601.309 123.958 618.483 120.666 614.033C117.97 610.391 134.991 590.077 149.321 579.9Z" fill="#A06ACC"/>
<path d="M155.833 580.273C154.017 580.273 152.233 580.829 150.737 581.892C137.259 591.461 124.101 607.749 122.91 612.355C128.309 612.274 151.317 599.457 160.137 590.597C164.248 586.469 163.889 585.812 163.179 584.498C162.081 582.468 160.192 581.049 157.856 580.505C157.187 580.349 156.508 580.273 155.833 580.273ZM122.612 617.197C122.438 617.197 122.268 617.192 122.106 617.18C120.226 617.041 119.217 616.183 118.702 615.486C118.029 614.579 117.8 613.422 118.017 612.052C119.215 604.548 135.872 586.455 147.908 577.908C151.096 575.641 155.123 574.846 158.964 575.747C162.628 576.6 165.732 578.943 167.479 582.174C170.067 586.96 167.383 590.247 163.601 594.044C156.111 601.567 131.63 617.197 122.612 617.197Z" fill="#582285"/>
<path d="M170.224 507.302C169.833 507.302 169.435 507.209 169.064 507.008C155.969 499.928 144.244 490.756 134.213 479.748C133.305 478.751 133.376 477.207 134.373 476.297C135.376 475.389 136.92 475.46 137.825 476.459C147.484 487.059 158.777 495.89 171.388 502.712C172.576 503.353 173.017 504.835 172.376 506.022C171.932 506.838 171.092 507.302 170.224 507.302Z" fill="#1182C2"/>
<path d="M171.801 497.069C171.417 497.069 171.028 496.978 170.665 496.788C157.665 489.945 145.321 481.737 133.977 472.393C132.935 471.535 132.787 469.995 133.647 468.953C134.5 467.912 136.039 467.761 137.084 468.621C148.171 477.755 160.235 485.777 172.941 492.465C174.135 493.092 174.595 494.571 173.965 495.764C173.528 496.595 172.679 497.069 171.801 497.069Z" fill="#1182C2"/>
<path d="M214.462 506.55C217.33 537.529 217.149 574.201 215.237 583.125C214.058 588.624 222.308 592.16 226.236 586.66C229.429 582.191 239.106 526.877 243.253 483.748C235.478 493.286 225.472 500.824 214.462 506.55Z" fill="#96D8FF"/>
<path d="M217.041 507.949C219.701 538.005 219.611 574.374 217.625 583.637C217.309 585.116 218.347 586.152 219.423 586.626C220.773 587.224 222.839 587.216 224.249 585.24C226.876 581.189 235.581 532.901 240.067 490.955C233.659 497.46 225.943 503.156 217.041 507.949ZM221.092 591.862C219.801 591.862 218.549 591.583 217.449 591.097C213.94 589.547 212.093 586.137 212.849 582.612C214.592 574.472 215.016 539.04 212.029 506.776C211.939 505.786 212.453 504.841 213.336 504.383C224.793 498.425 234.221 490.964 241.359 482.205C242.041 481.371 243.193 481.084 244.181 481.489C245.179 481.899 245.787 482.912 245.684 483.983C241.715 525.272 232.088 582.671 228.224 588.08C226.291 590.785 223.621 591.862 221.092 591.862Z" fill="#329CDB"/>
<path d="M244.852 487.795C245.966 476.201 246.738 465.364 246.996 456.183C246.996 456.183 199.832 457.099 204.868 474.499C207.754 484.472 209.852 498.809 211.293 514.372C224.125 507.698 235.789 498.912 244.852 487.795Z" fill="#2B9EE0"/>
<path d="M244.47 458.715C234.149 459.207 213.301 461.623 208.049 468.757C206.924 470.287 206.658 471.895 207.217 473.819C209.734 482.516 211.8 494.836 213.369 510.478C225.096 503.945 234.877 496 242.49 486.819C243.509 476.113 244.174 466.677 244.47 458.715ZM211.292 516.814C210.888 516.814 210.485 516.714 210.12 516.517C209.406 516.126 208.934 515.408 208.858 514.597C207.278 497.508 205.149 484.247 202.522 475.177C201.55 471.817 202.1 468.596 204.116 465.86C212.313 454.729 243.428 453.808 246.949 453.739C247.564 453.707 248.261 453.985 248.73 454.461C249.201 454.936 249.456 455.583 249.44 456.249C249.192 465.017 248.469 475.709 247.282 488.028C247.237 488.507 247.049 488.964 246.746 489.337C237.966 500.107 226.417 509.26 212.418 516.54C212.065 516.723 211.678 516.814 211.292 516.814Z" fill="#1182C2"/>
<path d="M231.212 579.9C225.922 576.144 218.29 577.629 215.204 583.336C213.553 586.391 214.748 588.385 218.665 592.32C227.613 601.309 256.577 618.483 259.869 614.033C262.564 610.391 245.544 590.077 231.212 579.9Z" fill="#A06ACC"/>
<path d="M224.703 580.273C224.027 580.273 223.347 580.349 222.676 580.505C220.341 581.049 218.452 582.468 217.355 584.498C216.645 585.81 216.288 586.469 220.396 590.598C229.216 599.456 252.221 612.273 257.623 612.355C256.432 607.749 243.277 591.462 229.799 581.892C228.303 580.829 226.517 580.273 224.703 580.273ZM257.921 617.197C248.903 617.198 224.423 601.568 216.932 594.044C213.153 590.247 210.469 586.96 213.055 582.174C214.801 578.943 217.905 576.6 221.569 575.747C225.408 574.853 229.436 575.641 232.628 577.908C244.664 586.456 261.32 604.549 262.516 612.053C262.733 613.424 262.504 614.579 261.831 615.488C261.316 616.183 260.309 617.041 258.429 617.18C258.267 617.192 258.095 617.197 257.921 617.197Z" fill="#582285"/>
<path d="M211.089 507.302C210.221 507.302 209.381 506.838 208.937 506.022C208.296 504.835 208.737 503.353 209.925 502.712C222.536 495.89 233.829 487.059 243.486 476.459C244.396 475.46 245.94 475.389 246.94 476.297C247.937 477.207 248.008 478.751 247.098 479.748C237.069 490.756 225.344 499.928 212.248 507.008C211.878 507.209 211.48 507.302 211.089 507.302Z" fill="#1182C2"/>
<path d="M209.512 497.069C208.635 497.069 207.785 496.595 207.348 495.764C206.719 494.571 207.179 493.092 208.372 492.465C221.085 485.774 233.148 477.752 244.229 468.621C245.272 467.761 246.813 467.912 247.667 468.953C248.525 469.995 248.379 471.535 247.336 472.393C235.999 481.735 223.655 489.943 210.648 496.788C210.285 496.978 209.896 497.069 209.512 497.069Z" fill="#1182C2"/>
<path d="M218.296 331.507H160.077C141.374 377.471 115.332 432.272 131.277 459.379C147.224 486.485 176.562 484.128 189.186 484.128C201.81 484.128 231.149 486.485 247.096 459.379C263.041 432.272 236.998 377.471 218.296 331.507Z" fill="#96D8FF"/>
<path d="M247.093 459.381C231.145 486.476 201.811 484.122 189.187 484.122C188.679 484.122 188.125 484.122 187.548 484.145C202.019 483.823 223.068 480.845 235.692 459.381C251.64 432.263 225.607 377.471 206.912 331.496H218.291C237.008 377.471 263.041 432.263 247.093 459.381Z" fill="#BFEBFF"/>
<path d="M231.053 362.447C216.513 368.124 200.934 371.379 184.732 371.379C171.392 371.379 158.444 369.163 146.189 365.216C150.782 353.815 155.652 342.413 160.082 331.496H218.29C222.374 341.513 226.806 351.968 231.053 362.447Z" fill="#60BDF5"/>
<path d="M161.718 333.951C159.898 338.404 158.016 342.939 156.114 347.517C139.078 388.52 119.768 434.996 133.384 458.14C147.512 482.161 172.729 481.869 186.33 481.707C188.377 481.683 189.992 481.683 192.044 481.707C205.606 481.872 230.86 482.163 244.988 458.14C258.602 434.996 239.296 388.52 222.258 347.516C220.357 342.937 218.476 338.404 216.654 333.951H161.718ZM182.713 486.62C168.262 486.621 143.441 484.876 129.17 460.617C114.321 435.372 133.273 389.756 151.601 345.641C153.717 340.552 155.806 335.517 157.816 330.587C158.188 329.667 159.082 329.064 160.077 329.064H218.296C219.29 329.064 220.185 329.667 220.558 330.587C222.566 335.517 224.657 340.552 226.77 345.641C245.1 389.755 264.052 435.372 249.201 460.617C233.634 487.081 205.501 486.757 191.986 486.593C189.973 486.569 188.396 486.569 186.388 486.593C185.258 486.605 184.028 486.62 182.713 486.62Z" fill="#329CDB"/>
<path d="M328.898 171.195C328.898 243.66 264.349 341.917 184.724 341.917C105.098 341.917 40.5496 243.66 40.5496 171.195C40.5496 80.2826 93.9766 36.2839 184.724 36.2839C264.349 36.2839 328.898 66.9253 328.898 171.195Z" fill="#2CC96B"/>
<path d="M328.905 171.185C328.905 219.099 300.703 278.275 258.581 312.848C287.293 278.483 305.272 233.061 305.272 194.819C305.272 90.5439 240.719 59.8946 161.093 59.8946C121.004 59.8946 88.1845 68.4799 64.0664 85.9279C88.0001 52.6013 129.428 36.2839 184.727 36.2839C264.352 36.2839 328.905 66.9332 328.905 171.185Z" fill="#33E87B"/>
<path d="M184.724 38.7267C92.0031 38.7267 42.9932 84.5333 42.9932 171.195C42.9932 245.372 109.724 339.475 184.724 339.475C259.724 339.475 326.456 245.372 326.456 171.195C326.456 123.497 312.558 88.2906 285.153 66.552C261.874 48.088 228.085 38.7267 184.724 38.7267ZM184.724 344.36C147.328 344.36 110.437 323.36 80.8474 285.228C54.4848 251.253 38.1067 207.56 38.1067 171.195C38.1067 125.959 51.1812 91.1826 76.9662 67.836C101.882 45.2773 138.136 33.8399 184.724 33.8399C282.012 33.8399 331.341 80.0533 331.341 171.195C331.341 207.56 314.964 251.253 288.601 285.228C259.01 323.36 222.121 344.36 184.724 344.36Z" fill="#17733C"/>
<path d="M218.606 259.911C218.312 207.761 261.329 177.708 306.997 197.155C304.934 250.777 250.428 269.045 218.606 259.911Z" fill="black"/>
<path d="M221.058 258.039C239.486 262.625 262.568 257.835 279.125 245.855C289.934 238.031 302.973 223.556 304.473 198.753C284.553 190.783 264.145 192.232 248.234 202.816C231.258 214.108 221.414 234.163 221.058 258.039ZM235.614 264.623C229.47 264.623 223.485 263.853 217.932 262.26C216.89 261.96 216.17 261.009 216.164 259.925C216.016 233.557 226.718 211.26 245.529 198.748C263.25 186.963 286.002 185.56 307.954 194.907C308.886 195.304 309.478 196.236 309.438 197.248C308.369 225.051 293.921 241.179 281.99 249.812C268.793 259.363 251.67 264.623 235.614 264.623Z" fill="black"/>
<path d="M292.928 221.756C292.928 226.191 289.333 229.785 284.9 229.785C280.465 229.785 276.871 226.191 276.871 221.756C276.871 217.321 280.465 213.727 284.9 213.727C289.333 213.727 292.928 217.321 292.928 221.756Z" fill="white"/>
<path d="M277.828 234.683C277.828 237.388 275.634 239.581 272.93 239.581C270.225 239.581 268.032 237.388 268.032 234.683C268.032 231.977 270.225 229.785 272.93 229.785C275.634 229.785 277.828 231.977 277.828 234.683Z" fill="white"/>
<path d="M257.137 207.883C245.26 218.517 236.216 231.352 230.904 246.423C230.071 248.82 226.387 248.221 226.344 245.703C226.057 232.256 232.984 219.043 243.225 210.523C246.679 207.673 250.571 205.332 254.796 203.904C256.029 203.488 257.368 204.151 257.784 205.384C258.093 206.299 257.809 207.272 257.137 207.883Z" fill="#4D4D4D"/>
<path d="M68.0254 194.089C67.7307 246.238 110.748 276.292 156.416 256.845C154.354 203.222 99.8462 184.954 68.0254 194.089Z" fill="black"/>
<path d="M70.1066 198.753C71.6072 223.556 84.6452 238.031 95.455 245.855C112.012 257.836 135.096 262.629 153.521 258.039C153.166 234.164 143.325 214.109 126.348 202.817C110.442 192.237 90.0274 190.781 70.1066 198.753ZM138.966 264.623C122.908 264.623 105.79 259.363 92.59 249.812C80.6588 241.179 66.2108 225.051 65.1421 197.248C65.1014 196.236 65.6932 195.304 66.626 194.907C88.5702 185.561 111.332 186.959 129.054 198.749C147.865 211.261 158.568 233.557 158.417 259.925C158.409 261.009 157.689 261.96 156.649 262.26C151.096 263.852 145.106 264.623 138.966 264.623Z" fill="black"/>
<path d="M138.773 221.756C138.773 226.191 135.179 229.785 130.744 229.785C126.31 229.785 122.715 226.191 122.715 221.756C122.715 217.321 126.31 213.727 130.744 213.727C135.179 213.727 138.773 217.321 138.773 221.756Z" fill="white"/>
<path d="M123.673 234.683C123.673 237.388 121.48 239.581 118.774 239.581C116.069 239.581 113.876 237.388 113.876 234.683C113.876 231.977 116.069 229.785 118.774 229.785C121.48 229.785 123.673 231.977 123.673 234.683Z" fill="white"/>
<path d="M78.8248 205.013C87.2382 217.617 94.0904 231.009 104.655 241.976C106.405 243.779 104.267 246.784 102.004 245.743C94.3326 242.32 88.4633 235.875 83.8836 229.063C79.4606 222.236 76.1045 214.767 74.557 206.773C74.3196 205.493 75.1654 204.261 76.4461 204.024C77.393 203.848 78.3149 204.265 78.8248 205.013Z" fill="#4D4D4D"/>
<path d="M260.814 166.387C251.873 161.713 240.812 161.313 231.557 165.331C222.301 169.347 215.038 177.697 212.342 187.42C225.926 176.383 243.509 169.001 260.814 166.387Z" fill="#128240"/>
<path d="M245.021 165.04C240.722 165.04 236.428 165.879 232.529 167.571C226.665 170.116 221.6 174.632 218.204 180.117C228.125 173.593 239.717 168.593 251.625 165.708C249.456 165.263 247.237 165.04 245.021 165.04ZM212.344 189.864C211.878 189.864 211.413 189.731 211.005 189.465C210.118 188.883 209.705 187.793 209.989 186.768C212.894 176.276 220.593 167.424 230.582 163.088C240.574 158.756 252.297 159.179 261.945 164.22C262.882 164.709 263.398 165.747 263.224 166.789C263.05 167.831 262.224 168.644 261.18 168.801C243.964 171.404 226.725 178.881 213.885 189.316C213.438 189.68 212.893 189.864 212.344 189.864Z" fill="#0E6932"/>
<path d="M108.633 166.387C117.575 161.713 128.635 161.313 137.89 165.331C147.146 169.347 154.409 177.697 157.105 187.42C143.521 176.383 125.938 169.001 108.633 166.387Z" fill="#128240"/>
<path d="M117.824 165.708C129.729 168.593 141.321 173.593 151.243 180.116C147.845 174.631 142.781 170.116 136.917 167.571C131.012 165.007 124.187 164.4 117.824 165.708ZM157.105 189.864C156.556 189.864 156.012 189.68 155.564 189.316C142.721 178.881 125.482 171.404 108.269 168.801C107.224 168.644 106.399 167.831 106.225 166.789C106.05 165.747 106.566 164.709 107.503 164.22C117.154 159.177 128.875 158.756 138.864 163.088C148.851 167.423 156.549 176.275 159.46 186.768C159.744 187.793 159.333 188.883 158.444 189.465C158.035 189.731 157.571 189.864 157.105 189.864Z" fill="#0E6932"/>
<path d="M189.401 284.27C199.926 284.27 210.369 288.919 217.4 296.754C218.301 297.758 218.218 299.303 217.213 300.203C216.212 301.103 214.665 301.024 213.764 300.018C207.646 293.202 198.56 289.156 189.402 289.156L189.085 289.158C179.824 289.251 170.685 293.499 164.641 300.518C163.758 301.546 162.216 301.654 161.197 300.776C160.173 299.895 160.058 298.354 160.938 297.331C167.886 289.263 178.39 284.38 189.038 284.271C189.157 284.27 189.278 284.27 189.401 284.27Z" fill="black"/>
<path d="M148.573 529.644C150.473 539.773 153.873 546.955 148.385 547.984C142.896 549.013 136.906 541.637 135.005 531.508C133.105 521.38 136.013 512.333 141.502 511.304C146.99 510.274 146.672 519.515 148.573 529.644Z" fill="#4AB3F0"/>
<path d="M142.298 513.668C142.208 513.668 142.096 513.677 141.953 513.705C140.245 514.025 138.734 515.861 137.809 518.741C136.704 522.178 136.561 526.552 137.406 531.057C139.172 540.447 144.36 546.265 147.934 545.583C148.216 545.531 148.578 545.428 148.7 545.243C149.394 544.174 148.445 540.177 147.609 536.649C147.134 534.647 146.614 532.449 146.173 530.095C145.74 527.789 145.42 525.531 145.121 523.424C144.54 519.308 143.878 514.645 142.645 513.759C142.602 513.728 142.518 513.668 142.298 513.668ZM147.369 550.521C140.934 550.521 134.633 542.768 132.606 531.96C131.611 526.668 131.806 521.444 133.157 517.247C134.672 512.536 137.474 509.573 141.052 508.902C143.15 508.512 144.628 509.168 145.493 509.789C148.425 511.893 149.101 516.678 149.96 522.738C150.248 524.778 150.556 526.964 150.973 529.193V529.195C151.4 531.467 151.904 533.589 152.362 535.522C153.678 541.073 154.63 545.083 152.796 547.904C151.944 549.217 150.61 550.052 148.836 550.385C148.346 550.477 147.857 550.521 147.369 550.521Z" fill="#329CDB"/>
<path d="M231.856 528.072C229.954 538.201 227.546 546.955 233.034 547.984C238.524 549.013 244.513 541.637 246.414 531.508C248.314 521.38 245.406 512.333 239.918 511.304C234.429 510.274 233.756 517.944 231.856 528.072Z" fill="#4AB3F0"/>
<path d="M238.97 513.653C238.574 513.653 238.398 513.778 238.301 513.844C236.697 514.95 235.757 520.193 234.85 525.264C234.662 526.314 234.466 527.402 234.257 528.521V528.522C234.049 529.629 233.837 530.72 233.626 531.786C232.572 537.161 231.38 543.253 232.628 545.095C232.758 545.289 232.954 545.484 233.486 545.583C237.026 546.243 242.249 540.455 244.014 531.057C245.774 521.665 243.032 514.373 239.468 513.705C239.272 513.668 239.109 513.653 238.97 513.653ZM234.052 550.521C233.562 550.521 233.073 550.477 232.584 550.385C230.881 550.067 229.497 549.184 228.584 547.836C226.193 544.31 227.357 538.369 228.832 530.846C229.04 529.793 229.249 528.716 229.457 527.622C229.661 526.516 229.854 525.44 230.041 524.402C231.32 517.253 232.245 512.086 235.524 509.824C236.905 508.868 238.528 508.56 240.369 508.902C247.285 510.2 250.997 520.328 248.814 531.959C246.786 542.768 240.486 550.521 234.052 550.521Z" fill="#329CDB"/>
<path d="M184.724 4.88663C85.5614 4.88663 4.88593 83.4573 4.88593 180.036C4.88593 276.612 85.5614 355.184 184.724 355.184C283.886 355.184 364.56 276.612 364.56 180.036C364.56 83.4573 283.886 4.88663 184.724 4.88663ZM184.724 360.069C82.8682 360.069 0 279.307 0 180.036C0 80.764 82.8682 -3.05176e-05 184.724 -3.05176e-05C286.58 -3.05176e-05 369.446 80.764 369.446 180.036C369.446 279.307 286.58 360.069 184.724 360.069Z" fill="#329CDB"/>
<path d="M336.049 157.183C334.487 157.183 332.733 156.345 330.776 154.809C326.499 94.7386 297.965 56.8413 245.639 41.564C247.403 40.7106 249.9 40.2747 252.953 40.2747C268.423 40.2747 298.16 51.4866 318.947 76.5146C345.035 107.925 347.144 149.2 338.757 156.165C337.928 156.855 337.025 157.183 336.049 157.183Z" fill="#EAF9FF"/>
<path d="M325.42 149.56C316.537 139.524 304.486 120.897 288.574 101.74C265.834 74.3586 242.713 54.9306 242.71 45.7826C259.384 50.4306 273.569 57.364 285.153 66.552C308.237 84.8613 321.736 112.724 325.42 149.56Z" fill="#C1F8D7"/>
<path d="M330.776 154.809C329.136 153.521 327.353 151.744 325.42 149.56C321.736 112.724 308.237 84.8613 285.153 66.552C273.569 57.364 259.384 50.4307 242.71 45.7827C242.709 44.436 243.209 43.3133 244.285 42.4187C244.672 42.0987 245.124 41.8133 245.638 41.564C297.965 56.8413 326.498 94.7387 330.776 154.809Z" fill="#B9D5C4"/>
<path d="M260.209 430.072C214.654 448.941 163.47 448.941 117.917 430.072C119.689 425.793 121.462 421.512 123.235 417.233C165.384 434.692 212.741 434.692 254.89 417.233C256.664 421.512 258.436 425.793 260.209 430.072Z" fill="#A06ACC"/>
<path d="M121.114 428.735C165.028 446.263 213.093 446.264 257.012 428.735L253.563 420.409C211.876 437.013 166.255 437.013 124.564 420.409L121.114 428.735ZM189.061 446.771C164.644 446.771 140.224 441.957 116.982 432.329C115.737 431.813 115.145 430.384 115.66 429.137L120.978 416.297C121.226 415.7 121.701 415.224 122.3 414.976C122.901 414.728 123.569 414.728 124.17 414.976C166.013 432.309 212.108 432.312 253.956 414.976C254.557 414.728 255.225 414.728 255.827 414.976C256.425 415.224 256.9 415.7 257.148 416.297L262.465 429.137C262.981 430.384 262.389 431.813 261.144 432.329C237.903 441.957 213.483 446.771 189.061 446.771Z" fill="#582285"/>
<path d="M206.457 438.111C206.457 448.555 197.992 457.02 187.548 457.02C177.104 457.02 168.639 448.555 168.639 438.111C168.639 427.668 177.104 419.201 187.548 419.201C197.992 419.201 206.457 427.668 206.457 438.111Z" fill="#A06ACC"/>
<path d="M187.546 421.645C178.466 421.645 171.08 429.031 171.08 438.111C171.08 447.191 178.466 454.577 187.546 454.577C196.626 454.577 204.016 447.191 204.016 438.111C204.016 429.031 196.626 421.645 187.546 421.645ZM187.546 459.464C175.773 459.464 166.194 449.885 166.194 438.111C166.194 426.337 175.773 416.759 187.546 416.759C199.322 416.759 208.901 426.337 208.901 438.111C208.901 449.885 199.322 459.464 187.546 459.464Z" fill="#582285"/>
<path d="M195.7 438.111C195.7 442.613 192.049 446.263 187.548 446.263C183.047 446.263 179.396 442.613 179.396 438.111C179.396 433.609 183.047 429.96 187.548 429.96C192.049 429.96 195.7 433.609 195.7 438.111Z" fill="#96D8FF"/>
<path d="M187.547 432.403C184.4 432.403 181.84 434.963 181.84 438.111C181.84 441.257 184.4 443.819 187.547 443.819C190.696 443.819 193.256 441.257 193.256 438.111C193.256 434.963 190.696 432.403 187.547 432.403ZM187.547 448.705C181.707 448.705 176.955 443.952 176.955 438.111C176.955 432.268 181.707 427.516 187.547 427.516C193.389 427.516 198.141 432.268 198.141 438.111C198.141 443.952 193.389 448.705 187.547 448.705Z" fill="#582285"/>
<path d="M110.653 468.513C109.32 461.215 109.115 453.832 109.854 446.257C100.128 437.835 86.0875 435.319 73.9933 439.707C70.1218 451.673 68.9005 464.488 70.4067 476.973C71.0162 482.023 75.4313 486.826 80.389 487.957C87.6677 489.616 95.4813 488.622 102.295 485.502C108.704 482.567 111.919 475.448 110.653 468.513Z" fill="#2B9EE0"/>
<path d="M75.9521 441.617C72.4974 452.863 71.4166 464.96 72.8338 476.68C73.3157 480.677 76.9469 484.668 80.9333 485.574C87.5343 487.083 94.7635 486.267 101.279 483.281C106.487 480.895 109.355 475.001 108.25 468.952C106.978 461.995 106.668 454.903 107.305 447.315C98.6427 440.387 86.5875 438.199 75.9521 441.617ZM87.575 491.197C84.9605 491.197 82.3671 490.913 79.8453 490.34C73.8146 488.965 68.7135 483.344 67.9813 477.265C66.4329 464.444 67.7094 451.196 71.6698 438.955C71.901 438.236 72.4521 437.667 73.1605 437.409C86.0958 432.717 101.126 435.467 111.452 444.411C112.05 444.929 112.36 445.707 112.284 446.493C111.542 454.116 111.795 461.175 113.055 468.073C114.562 476.324 110.557 484.405 103.311 487.724C98.2917 490.022 92.8933 491.197 87.575 491.197Z" fill="#1182C2"/>
<path d="M109.388 454.225C108.984 454.225 108.577 454.127 108.2 453.916C97.5809 447.988 84.4736 447.089 73.1418 451.519C71.8798 452.004 70.4647 451.389 69.9757 450.132C69.4845 448.876 70.1069 447.459 71.3621 446.967C84.0371 442.015 98.7001 443.013 110.581 449.649C111.76 450.307 112.182 451.796 111.523 452.973C111.077 453.775 110.244 454.225 109.388 454.225Z" fill="#1182C2"/>
<path d="M108.868 461.637C108.498 461.637 108.121 461.552 107.768 461.373C96.7437 455.795 83.0181 455.72 71.9369 461.176C70.7317 461.775 69.2645 461.276 68.6661 460.064C68.0717 458.853 68.5681 457.389 69.7801 456.793C82.2119 450.672 97.6165 450.759 109.972 457.015C111.177 457.624 111.659 459.093 111.05 460.297C110.619 461.148 109.76 461.637 108.868 461.637Z" fill="#1182C2"/>
<path d="M70.4071 471.7C69.5508 471.7 68.7207 471.251 68.2722 470.449C67.6139 469.272 68.0337 467.784 69.2118 467.125C81.5894 460.2 96.9082 459.016 110.197 463.959C111.461 464.429 112.105 465.836 111.635 467.1C111.163 468.367 109.758 469.012 108.493 468.537C96.5311 464.089 82.7389 465.152 71.5978 471.388C71.2207 471.6 70.8107 471.7 70.4071 471.7Z" fill="#1182C2"/>
<path d="M321.592 358.817C318.778 365.681 314.968 372.009 310.26 377.989C313.905 390.328 324.37 400.02 336.922 402.848C346.637 394.86 354.577 384.729 360.044 373.403C362.254 368.824 361.129 362.396 357.564 358.769C352.33 353.447 345.214 350.068 337.794 349.021C330.813 348.036 324.266 352.295 321.592 358.817Z" fill="#2B9EE0"/>
<path d="M312.976 378.475C316.533 388.979 325.501 397.327 336.304 400.183C345.281 392.576 352.713 382.972 357.844 372.341C359.596 368.716 358.687 363.396 355.821 360.483C351.073 355.653 344.552 352.443 337.453 351.44C331.773 350.645 326.187 354.055 323.853 359.745C321.167 366.295 317.603 372.435 312.976 378.475ZM336.921 405.292C336.743 405.292 336.561 405.273 336.385 405.232C322.965 402.207 311.791 391.785 307.916 378.683C307.692 377.923 307.849 377.101 308.339 376.479C313.072 370.468 316.669 364.388 319.335 357.891C322.515 350.132 330.259 345.497 338.136 346.601C346.293 347.753 353.811 351.467 359.305 357.056C363.644 361.468 364.907 368.952 362.244 374.467C356.633 386.095 348.412 396.564 338.472 404.736C338.031 405.099 337.483 405.292 336.921 405.292Z" fill="#1182C2"/>
<path d="M343.534 398.2C343.377 398.2 343.216 398.185 343.053 398.153C329.708 395.487 317.903 386.735 311.479 374.74C310.841 373.551 311.289 372.071 312.48 371.433C313.663 370.796 315.147 371.245 315.787 372.433C321.529 383.155 332.081 390.979 344.012 393.363C345.333 393.625 346.193 394.913 345.928 396.236C345.696 397.397 344.676 398.2 343.534 398.2Z" fill="#1182C2"/>
<path d="M349.964 390.749L349.688 390.735C335.92 389.185 322.993 380.805 315.961 368.867C315.276 367.704 315.662 366.207 316.824 365.523C317.984 364.835 319.484 365.221 320.169 366.385C326.441 377.028 337.961 384.497 350.236 385.88C351.577 386.029 352.541 387.239 352.39 388.58C352.25 389.828 351.19 390.749 349.964 390.749Z" fill="#1182C2"/>
<path d="M355.885 382.345L355.738 382.34C341.584 381.499 328.042 374.231 319.52 362.897C318.709 361.819 318.926 360.288 320.004 359.476C321.082 358.669 322.614 358.884 323.424 359.961C331.096 370.164 343.284 376.707 356.029 377.464C357.374 377.544 358.402 378.7 358.321 380.047C358.245 381.344 357.169 382.345 355.885 382.345Z" fill="#1182C2"/>
<path d="M96.913 472.228C107.961 474.024 133.025 493.644 128.242 499.633C123.459 505.624 113.855 497.892 109.459 493.132C105.064 488.372 96.4938 491.941 90.7651 486.792L96.913 472.228Z" fill="#A06ACC"/>
<path d="M123.733 504.259C116.766 504.26 109.142 496.389 107.666 494.789C106.127 493.124 103.524 492.859 100.513 492.553C96.817 492.179 92.6306 491.753 89.1306 488.608C88.1285 487.707 88.0452 486.162 88.9468 485.159C89.8536 484.156 91.3946 484.076 92.3989 484.974C94.7108 487.053 97.767 487.364 101.005 487.692C104.671 488.065 108.46 488.449 111.254 491.474C114.846 495.365 120.233 499.557 123.883 499.371C124.912 499.333 125.666 498.945 126.334 498.109C126.446 497.968 126.434 497.464 126.136 496.693C123.421 489.647 105.153 476.043 96.5217 474.639C95.188 474.423 94.2864 473.168 94.5009 471.836C94.7181 470.505 95.9822 469.584 97.3041 469.817C106.916 471.38 127.121 485.665 130.695 494.937C131.885 498.025 131.057 500.024 130.151 501.159C128.605 503.096 126.498 504.165 124.06 504.255L123.733 504.259Z" fill="#582285"/>
<path d="M68.1877 551.889C69.8845 552.062 71.5001 551.181 72.5705 549.952C73.6413 548.723 74.2558 547.177 74.8178 545.648C79.0225 534.208 80.9782 521.32 84.2997 511.047C84.6148 511.105 84.5392 511.092 84.8544 511.15C84.7637 524.937 84.7782 538.784 87.122 552.32C87.432 554.109 87.7954 555.926 88.7121 557.496C89.6282 559.064 91.2006 560.367 93.0653 560.532C95.085 560.712 97.0757 559.512 98.2668 557.885C99.4585 556.26 99.972 554.268 100.271 552.31C101.329 545.378 99.7017 538.441 98.6158 531.648C97.4434 524.313 96.2164 517.953 95.8121 510.301C96.0366 510.232 95.9954 510.244 96.22 510.176C99.9522 519.362 104.329 533.12 109.337 544.419C109.996 545.909 110.71 547.41 111.858 548.569C113.006 549.726 114.676 550.501 116.358 550.219C118.18 549.91 119.678 548.407 120.379 546.713C121.079 545.021 121.103 543.167 120.944 541.389C120.38 535.1 117.445 529.422 115.018 523.745C114.167 521.752 113.307 519.498 112.438 517.149C110.01 510.589 108.556 503.725 107.784 496.773C106.731 487.284 102.399 474.009 99.1913 472.92C92.7194 470.721 86.8544 470.585 81.1386 473.699C76.5178 476.216 73.3074 487.262 73.211 496.472C73.1184 505.344 71.8418 514.159 68.834 522.505C68.4886 523.464 68.1465 524.424 67.8074 525.385C65.7544 531.208 63.1929 537.064 63.0386 543.377C62.9954 545.161 63.1386 547.01 63.9476 548.653C64.7564 550.297 66.3486 551.701 68.1877 551.889Z" fill="#A06ACC"/>
<path d="M84.2972 508.604C84.4472 508.604 84.5998 508.616 84.755 508.647L85.2082 508.731C86.3727 508.947 87.3029 509.983 87.2956 511.165C87.2029 525.852 87.3055 539.053 89.5289 551.904C89.8081 553.513 90.118 555.06 90.8196 556.262C91.3014 557.086 92.2035 558.004 93.2816 558.098C94.267 558.197 95.505 557.521 96.2972 556.441C97.0582 555.402 97.5379 554.014 97.8576 551.938C98.6831 546.522 97.7071 540.85 96.7623 535.365C96.5716 534.25 96.3806 533.14 96.204 532.033L95.6055 528.364C94.6322 522.473 93.716 516.91 93.3722 510.429C93.315 509.312 94.0238 508.297 95.0926 507.967C96.3066 507.596 98.003 508.081 98.4827 509.256C99.9925 512.974 101.601 517.413 103.304 522.113C105.788 528.964 108.6 536.728 111.568 543.431C112.153 544.744 112.745 545.995 113.591 546.85C114.147 547.409 115.044 547.974 115.953 547.808C116.793 547.668 117.685 546.832 118.122 545.778C118.553 544.736 118.673 543.448 118.511 541.605C118.074 536.737 116.089 532.245 113.987 527.489C113.577 526.56 113.169 525.633 112.771 524.705C111.843 522.531 110.922 520.095 110.146 517.998C107.811 511.688 106.198 504.639 105.355 497.044C104.282 487.38 100.167 476.357 98.294 475.185C92.027 473.068 87.0617 473.256 82.3071 475.845C78.9196 477.689 75.7488 487.533 75.6535 496.498C75.5508 506.262 74.029 515.292 71.13 523.333L70.1112 526.197C69.7753 527.15 69.4243 528.107 69.0737 529.064C67.2868 533.943 65.5998 538.55 65.4811 543.436C65.4358 545.283 65.6383 546.559 66.1394 547.576C66.6426 548.597 67.5847 549.372 68.4341 549.459C69.3743 549.56 70.2118 548.945 70.7295 548.346C71.5164 547.44 72.0295 546.152 72.5259 544.802C74.8546 538.467 76.491 531.622 78.0754 525.005C79.3227 519.78 80.504 514.845 81.9759 510.295C82.305 509.272 83.2566 508.604 84.2972 508.604ZM93.4675 562.993C93.2603 562.993 93.055 562.984 92.8478 562.965C90.3612 562.744 88.0259 561.161 86.6014 558.729C85.4874 556.823 85.0582 554.724 84.7144 552.738C83.2904 544.508 82.7081 536.205 82.4956 527.519C80.9811 533.843 79.3753 540.331 77.1112 546.489C76.4764 548.212 75.7467 550.021 74.4155 551.553C72.6978 553.526 70.2831 554.571 67.9383 554.319C65.3899 554.06 63.0212 552.301 61.7546 549.733C60.6331 547.452 60.5566 544.978 60.5946 543.319C60.7358 537.625 62.642 532.419 64.4858 527.384C64.8295 526.445 65.1732 525.508 65.5024 524.572L66.5331 521.681C69.2478 514.152 70.6721 505.662 70.7675 496.447C70.8701 486.752 74.1316 474.735 79.9696 471.553C85.9478 468.3 92.306 468 99.9759 470.607C105.423 472.455 109.45 489.647 110.213 496.504C111.01 503.704 112.529 510.365 114.727 516.301C115.483 518.341 116.375 520.708 117.265 522.785C117.652 523.695 118.055 524.603 118.458 525.515C120.627 530.422 122.87 535.498 123.377 541.171C123.537 542.971 123.597 545.331 122.636 547.649C121.54 550.293 119.291 552.201 116.764 552.626C114.45 553.021 111.964 552.145 110.125 550.292C108.694 548.845 107.847 547.088 107.102 545.409C104.84 540.304 102.686 534.648 100.697 529.233L101.028 531.261C101.202 532.35 101.39 533.441 101.579 534.536C102.588 540.405 103.633 546.476 102.686 552.679C102.388 554.628 101.839 557.143 100.238 559.329C98.5519 561.628 96.004 562.993 93.4675 562.993Z" fill="#582285"/>
<path d="M345.798 343.799C336.722 346.759 324.605 353.699 324.19 357.06C323.353 363.844 324.412 369.615 328.622 374.579C332.026 378.591 343.494 379.488 352.532 377.711C361.237 375.999 352.449 341.629 345.798 343.799Z" fill="#A06ACC"/>
<path d="M346.424 346.164C337.22 349.195 327.354 355.415 326.589 357.479C325.79 364.047 326.985 368.871 330.485 372.999C332.98 375.941 343.272 377.045 352.058 375.313C352.762 375.176 353.578 373.532 353.71 370.252C354.116 360.211 348.857 347.121 346.424 346.164ZM343.241 381.044C336.306 381.044 329.672 379.592 326.758 376.159C322.361 370.972 320.774 364.808 321.765 356.763C322.469 351.052 338.481 343.615 345.042 341.476C346.061 341.141 348.122 340.907 350.36 343.089C355.917 348.501 360.294 366.965 357.918 374.955C356.825 378.631 354.642 379.785 353.004 380.108C349.928 380.712 346.55 381.044 343.241 381.044Z" fill="#582285"/>
<path d="M332.061 318.504C339.772 326.727 349.585 365.348 346.7 378.228C343.814 391.109 380.558 383.848 379.037 369.267C377.517 354.687 370.486 326.22 363.256 317.177C356.025 308.136 332.061 318.504 332.061 318.504Z" fill="#FCD242"/>
<path d="M335.932 319.605C343.89 332.151 351.852 366.408 349.081 378.763C348.76 380.201 349.244 380.791 349.816 381.212C352.874 383.473 362.597 382.757 370.07 378.481C372.705 376.976 377.054 373.809 376.608 369.521C375.076 354.825 367.993 327.013 361.346 318.703C357.076 313.355 343.301 316.932 335.932 319.605ZM355.437 387.371C352.049 387.371 349.014 386.695 346.913 385.144C344.552 383.4 343.628 380.755 344.314 377.693C347.101 365.26 337.014 327.356 330.28 320.175C329.736 319.596 329.509 318.787 329.669 318.008C329.832 317.229 330.361 316.577 331.09 316.261C333.72 315.125 357.002 305.451 365.164 315.652C372.702 325.079 379.854 353.553 381.465 369.015C382.012 374.235 378.826 379.103 372.497 382.723C367.604 385.521 361.038 387.371 355.437 387.371Z" fill="#F07E04"/>
<path d="M454.164 260.521L306.014 326.183L302.274 317.743L450.424 252.081L454.164 260.521Z" fill="#F22A4E"/>
<path d="M305.497 318.987L307.257 322.96L450.94 259.277L449.182 255.305L305.497 318.987ZM306.017 328.627C305.08 328.627 304.185 328.084 303.781 327.172L300.041 318.733C299.778 318.14 299.761 317.469 299.996 316.864C300.226 316.259 300.692 315.772 301.284 315.511L449.434 249.849C450.026 249.587 450.697 249.571 451.305 249.803C451.909 250.036 452.396 250.5 452.658 251.093L456.396 259.532C456.942 260.765 456.386 262.208 455.153 262.755L307.005 328.416C306.682 328.559 306.346 328.627 306.017 328.627Z" fill="#A61530"/>
<path d="M412.158 274.089C418.192 287.701 403.968 307.208 380.388 317.659C356.809 328.109 332.804 325.547 326.77 311.935C320.738 298.323 334.961 278.816 358.541 268.365C382.121 257.915 406.126 260.477 412.158 274.089Z" fill="#FCD242"/>
<path d="M386.707 264.377C378.188 264.377 368.721 266.527 359.531 270.599C348.513 275.483 339.276 282.516 333.524 290.404C328.061 297.899 326.456 305.195 329.004 310.945C334.484 323.303 357.091 325.316 379.4 315.427C390.417 310.543 399.652 303.508 405.404 295.621C410.869 288.127 412.473 280.832 409.925 275.08C407.377 269.328 400.892 265.617 391.672 264.633C390.061 264.461 388.403 264.377 386.707 264.377ZM352.067 326.607C338.952 326.607 328.512 321.891 324.537 312.925C321.249 305.511 323.041 296.489 329.579 287.525C335.827 278.956 345.761 271.357 357.551 266.132C369.341 260.907 381.644 258.648 392.189 259.775C403.221 260.952 411.105 265.685 414.391 273.1C417.679 280.515 415.889 289.536 409.352 298.5C403.104 307.069 393.171 314.668 381.38 319.892C371.173 324.417 360.999 326.605 352.067 326.607Z" fill="#F07E04"/>
<path d="M430.965 282.405L426.969 284.177C425.643 284.765 424.091 284.167 423.503 282.84L413.295 259.808C412.708 258.483 413.307 256.931 414.632 256.343L418.629 254.572C419.956 253.984 421.507 254.583 422.095 255.908L432.303 278.94C432.891 280.267 432.292 281.817 430.965 282.405Z" fill="#F22A4E"/>
<path d="M418.58 257.485C418.253 257.485 417.926 257.553 417.621 257.689C416.426 258.219 415.884 259.623 416.414 260.817L424.85 279.852C425.38 281.045 426.786 281.588 427.977 281.057C429.173 280.528 429.714 279.125 429.185 277.931L420.746 258.897C420.489 258.319 420.024 257.875 419.434 257.647C419.156 257.54 418.866 257.485 418.58 257.485ZM427.028 286.147C424.244 286.147 421.584 284.536 420.384 281.833L411.948 262.796C410.328 259.137 411.984 254.844 415.641 253.224C417.412 252.437 419.384 252.391 421.192 253.088C423.001 253.785 424.428 255.145 425.213 256.917L433.65 275.951C435.27 279.609 433.614 283.904 429.957 285.524C429.006 285.947 428.008 286.147 427.028 286.147Z" fill="#A61530"/>
<path d="M325.196 329.284L321.198 331.056C319.872 331.643 318.321 331.044 317.733 329.719L307.525 306.687C306.937 305.36 307.536 303.809 308.862 303.221L312.858 301.449C314.185 300.863 315.737 301.46 316.324 302.787L326.532 325.819C327.12 327.145 326.521 328.696 325.196 329.284Z" fill="#F22A4E"/>
<path d="M312.804 304.367C312.485 304.367 312.16 304.431 311.848 304.569C310.657 305.097 310.116 306.5 310.643 307.696L319.081 326.731C319.339 327.308 319.804 327.752 320.393 327.98C320.983 328.209 321.624 328.191 322.207 327.936L322.209 327.935C322.787 327.68 323.231 327.213 323.456 326.623C323.685 326.032 323.669 325.388 323.413 324.808L314.977 305.775C314.587 304.892 313.716 304.367 312.804 304.367ZM321.249 333.029C320.367 333.029 319.484 332.867 318.635 332.539C316.827 331.841 315.4 330.481 314.615 328.709L306.177 309.675C304.557 306.017 306.213 301.723 309.871 300.101C313.528 298.485 317.821 300.141 319.444 303.793L327.88 322.829C328.665 324.603 328.712 326.573 328.016 328.381C327.319 330.189 325.96 331.617 324.187 332.403C323.247 332.82 322.249 333.029 321.249 333.029Z" fill="#A61530"/>
<path d="M316.396 333.184L312.4 334.955C311.073 335.543 309.521 334.944 308.935 333.619L298.727 310.587C298.139 309.26 298.737 307.709 300.063 307.121L304.06 305.349C305.385 304.761 306.937 305.36 307.525 306.687L317.733 329.719C318.321 331.044 317.723 332.596 316.396 333.184Z" fill="#F22A4E"/>
<path d="M304.01 308.264C303.684 308.264 303.36 308.332 303.052 308.468C301.858 308.999 301.317 310.401 301.844 311.596L310.28 330.629C310.812 331.827 312.225 332.363 313.408 331.837C314.604 331.305 315.142 329.903 314.614 328.709L306.177 309.675C305.918 309.096 305.453 308.652 304.865 308.424C304.588 308.317 304.3 308.264 304.01 308.264ZM312.461 336.925C309.677 336.925 307.014 335.315 305.814 332.611L297.378 313.575C295.758 309.917 297.414 305.624 301.072 304.003C302.844 303.217 304.812 303.169 306.622 303.865C308.432 304.563 309.858 305.923 310.642 307.696L319.081 326.731C320.701 330.388 319.045 334.681 315.388 336.303C314.436 336.725 313.438 336.925 312.461 336.925Z" fill="#A61530"/>
<path d="M446.14 275.68L442.143 277.452C440.817 278.04 439.265 277.441 438.677 276.115L428.469 253.083C427.881 251.757 428.48 250.205 429.807 249.617L433.803 247.847C435.129 247.259 436.681 247.857 437.269 249.183L447.477 272.215C448.064 273.541 447.465 275.092 446.14 275.68Z" fill="#F22A4E"/>
<path d="M433.749 250.763C433.429 250.763 433.104 250.827 432.792 250.965C431.598 251.493 431.06 252.896 431.586 254.092L440.025 273.127C440.284 273.705 440.748 274.149 441.337 274.376C441.926 274.605 442.57 274.589 443.15 274.332L443.153 274.331C443.73 274.076 444.174 273.609 444.401 273.019C444.629 272.428 444.613 271.784 444.358 271.205L435.922 252.172C435.53 251.289 434.66 250.763 433.749 250.763ZM442.194 279.425C441.312 279.425 440.429 279.263 439.58 278.936C437.77 278.237 436.344 276.877 435.56 275.105L427.121 256.071C425.501 252.413 427.157 248.119 430.814 246.499C434.472 244.884 438.766 246.536 440.388 250.191L448.824 269.225C449.609 270.999 449.657 272.971 448.96 274.777C448.264 276.587 446.901 278.015 445.129 278.8C444.189 279.216 443.192 279.425 442.194 279.425Z" fill="#A61530"/>
<path d="M377.532 328.109L370.925 331.039C368.733 332.009 366.168 331.02 365.196 328.828L340.062 272.12C339.092 269.928 340.081 267.363 342.273 266.391L348.88 263.463C351.072 262.491 353.637 263.48 354.608 265.673L379.742 322.381C380.713 324.573 379.724 327.139 377.532 328.109Z" fill="#F22A4E"/>
<path d="M348.797 266.685C348.039 266.685 347.28 266.844 346.567 267.16C343.788 268.392 342.528 271.655 343.759 274.432L365.965 324.535C366.563 325.881 367.648 326.913 369.021 327.444C370.396 327.973 371.892 327.936 373.24 327.341C376.019 326.108 377.276 322.847 376.045 320.068L353.839 269.967C353.243 268.62 352.157 267.587 350.783 267.057C350.139 266.809 349.468 266.685 348.797 266.685ZM371.009 332.705C369.744 332.705 368.477 332.471 367.264 332.003C364.671 331.003 362.623 329.053 361.5 326.513L339.293 276.413C336.969 271.171 339.345 265.017 344.587 262.693C347.125 261.568 349.951 261.499 352.544 262.499C355.135 263.499 357.181 265.448 358.305 267.987L380.512 318.088C382.835 323.331 380.461 329.484 375.22 331.807C373.872 332.405 372.44 332.705 371.009 332.705Z" fill="#A61530"/>
<path d="M357.584 336.951L354.24 338.433C353.131 338.925 351.832 338.424 351.34 337.315L324.469 276.685C323.977 275.576 324.479 274.277 325.588 273.787L328.932 272.304C330.041 271.812 331.34 272.313 331.832 273.423L358.703 334.052C359.195 335.161 358.693 336.46 357.584 336.951Z" fill="#F22A4E"/>
<path d="M328.892 275.143C328.672 275.143 328.454 275.188 328.249 275.279C327.862 275.451 327.565 275.761 327.414 276.156C327.261 276.551 327.272 276.981 327.442 277.368L352.832 334.652C353.188 335.452 354.129 335.813 354.921 335.46C355.721 335.104 356.081 334.168 355.728 333.371L330.34 276.085C330.168 275.699 329.854 275.401 329.461 275.248C329.276 275.177 329.082 275.143 328.892 275.143ZM354.289 340.48C351.809 340.48 349.434 339.044 348.366 336.632L322.977 279.348C322.276 277.768 322.233 276.009 322.856 274.399C323.478 272.785 324.69 271.511 326.269 270.812C327.849 270.112 329.606 270.067 331.22 270.691C332.83 271.312 334.104 272.524 334.805 274.104L360.194 331.389C360.896 332.969 360.938 334.727 360.316 336.34C359.693 337.951 358.481 339.225 356.902 339.925C356.053 340.303 355.165 340.48 354.289 340.48Z" fill="#A61530"/>
<path d="M384.349 330.935C383.845 328.245 382.136 326.333 380.409 326.517C372.343 327.381 364.288 328.473 356.664 331.536C355.577 331.972 354.481 332.463 353.615 333.484C352.747 334.505 352.133 336.157 352.273 338.019C352.424 340.033 353.441 341.92 354.621 342.984C355.801 344.048 357.121 344.413 358.393 344.569C362.895 345.119 367.048 343.005 371.183 341.44C374.956 340.011 378.703 338.477 382.421 336.837C384.017 336.133 384.845 333.58 384.349 330.935Z" fill="#A06ACC"/>
<path d="M380.6 328.945C373.077 329.76 365.043 330.804 357.572 333.803C356.692 334.157 355.976 334.475 355.477 335.064C355.063 335.552 354.615 336.569 354.709 337.833C354.817 339.264 355.585 340.565 356.256 341.168C356.864 341.719 357.592 342.009 358.692 342.144C361.84 342.533 364.964 341.281 368.265 339.961C368.952 339.687 369.635 339.413 370.317 339.156C374.056 337.74 377.795 336.208 381.435 334.601C381.704 334.436 382.287 333.188 381.949 331.385L381.948 331.384C381.656 329.821 380.876 329.017 380.6 328.945ZM359.856 347.1C359.276 347.1 358.689 347.067 358.097 346.995C356.764 346.831 354.787 346.425 352.985 344.797C351.229 343.216 350.024 340.688 349.839 338.2C349.661 335.877 350.377 333.521 351.753 331.903C352.971 330.467 354.457 329.789 355.752 329.268C363.801 326.037 372.219 324.939 380.149 324.089C383.227 323.74 385.993 326.451 386.752 330.485C387.465 334.293 386.059 337.905 383.405 339.072C379.688 340.713 375.867 342.279 372.049 343.725C371.393 343.973 370.737 344.235 370.081 344.497C367.003 345.728 363.571 347.1 359.856 347.1Z" fill="#582285"/>
<path d="M388.302 358.347C387.798 355.657 386.089 353.745 384.362 353.929C376.296 354.793 368.24 355.885 360.616 358.948C359.531 359.384 358.434 359.875 357.566 360.896C356.7 361.917 356.086 363.571 356.225 365.431C356.377 367.445 357.393 369.332 358.573 370.396C359.753 371.46 361.075 371.825 362.347 371.981C366.848 372.531 371.001 370.417 375.136 368.852C378.908 367.423 382.654 365.889 386.373 364.249C387.97 363.545 388.798 360.992 388.302 358.347Z" fill="#A06ACC"/>
<path d="M384.553 356.357C377.028 357.172 368.993 358.217 361.528 361.215C360.494 361.629 359.886 361.937 359.43 362.476C359.016 362.964 358.568 363.981 358.66 365.249C358.768 366.676 359.541 367.977 360.209 368.58C360.817 369.131 361.545 369.421 362.645 369.556C365.789 369.948 368.917 368.692 372.218 367.373C372.905 367.099 373.588 366.825 374.27 366.568C378.009 365.152 381.746 363.62 385.388 362.013C385.654 361.848 386.237 360.597 385.901 358.796C385.609 357.233 384.829 356.429 384.553 356.357ZM363.809 374.512C363.229 374.512 362.642 374.479 362.05 374.407C360.717 374.243 358.738 373.837 356.937 372.209C355.184 370.629 353.977 368.103 353.789 365.615C353.614 363.285 354.333 360.932 355.706 359.315C356.926 357.876 358.41 357.2 359.708 356.68C367.75 353.451 376.169 352.351 384.101 351.501C387.189 351.16 389.949 353.863 390.705 357.897V357.899C391.416 361.705 390.009 365.316 387.358 366.484C383.641 368.125 379.82 369.691 376.002 371.137C375.346 371.385 374.69 371.647 374.034 371.909C370.956 373.14 367.524 374.512 363.809 374.512Z" fill="#582285"/>
<path d="M386.894 345.155C386.366 342.469 384.357 340.599 382.265 340.836C372.486 341.947 362.714 343.287 353.405 346.592C352.08 347.063 350.74 347.588 349.66 348.641C348.581 349.693 347.789 351.371 347.902 353.235C348.025 355.255 349.197 357.119 350.59 358.152C351.985 359.184 353.57 359.512 355.104 359.629C360.529 360.047 365.614 357.799 370.66 356.101C375.264 354.553 379.84 352.899 384.385 351.14C386.336 350.385 387.414 347.796 386.894 345.155Z" fill="#A06ACC"/>
<path d="M382.62 343.26L382.538 343.264C373.276 344.315 363.456 345.616 354.222 348.893C353.085 349.297 352.082 349.692 351.362 350.391C350.824 350.919 350.269 351.904 350.341 353.085C350.422 354.417 351.254 355.603 352.045 356.188C352.834 356.772 353.834 357.083 355.289 357.193C359.305 357.495 363.245 356.117 367.4 354.651C368.226 354.357 369.054 354.064 369.88 353.787C374.42 352.26 379.004 350.603 383.505 348.863C384.221 348.585 384.802 347.189 384.497 345.628C384.216 344.193 383.305 343.26 382.62 343.26ZM356.452 362.124C355.945 362.124 355.432 362.104 354.914 362.065C353.412 361.951 351.172 361.623 349.137 360.113C347.028 358.553 345.62 355.973 345.465 353.383C345.317 350.984 346.248 348.556 347.953 346.892C349.377 345.504 351.024 344.847 352.586 344.291C362.308 340.839 372.442 339.492 381.99 338.409C385.364 338.028 388.51 340.723 389.293 344.683V344.685C390.049 348.549 388.357 352.224 385.268 353.419C380.7 355.187 376.048 356.868 371.438 358.417C370.637 358.688 369.833 358.972 369.026 359.257C365.034 360.668 360.92 362.124 356.452 362.124Z" fill="#582285"/>
<path d="M324.225 358.992C323.449 340.647 354.105 324.404 358.616 330.603C363.126 336.8 353.129 344.016 347.377 346.996C341.624 349.975 342.798 359.185 336.317 363.347L324.225 358.992Z" fill="#A06ACC"/>
<path d="M336.318 365.789C335.514 365.789 334.726 365.393 334.26 364.667C333.532 363.531 333.861 362.02 334.996 361.291C337.613 359.611 338.72 356.744 339.894 353.709C341.222 350.272 342.597 346.72 346.252 344.827C350.957 342.389 356.392 338.193 357.209 334.736C357.444 333.736 357.269 332.904 356.64 332.04C356.394 331.705 354.413 331.248 350.189 332.723C340.269 336.185 326.184 347.495 326.665 358.888C326.722 360.236 325.676 361.375 324.328 361.432L324.222 361.435C322.922 361.435 321.838 360.407 321.784 359.093C321.169 344.551 337.408 332.007 348.578 328.111C354.354 326.092 358.626 326.465 360.59 329.165C362.05 331.169 362.525 333.484 361.965 335.857C360.342 342.728 350.462 348.148 348.5 349.165C346.486 350.208 345.544 352.647 344.45 355.471C343.113 358.933 341.594 362.86 337.634 365.401C337.226 365.664 336.769 365.789 336.318 365.789Z" fill="#582285"/>
<path d="M184.724 363.876C168.564 363.876 152.498 361.929 136.973 358.089C130.786 356.56 127.011 350.304 128.542 344.117C130.07 337.929 136.324 334.163 142.513 335.684C171.038 342.74 201.81 342.449 230.177 334.851C236.346 333.199 242.662 336.856 244.312 343.011C245.958 349.167 242.305 355.495 236.15 357.144C219.476 361.611 202.173 363.876 184.724 363.876Z" fill="#2B9EE0"/>
<path d="M139.753 337.792C135.664 337.792 131.936 340.567 130.912 344.703C129.707 349.573 132.692 354.515 137.561 355.719C169.451 363.603 203.799 363.283 235.519 354.784C240.363 353.485 243.249 348.488 241.953 343.641C240.653 338.8 235.66 335.905 230.809 337.209C202.239 344.865 170.671 345.165 141.927 338.055C141.2 337.876 140.472 337.792 139.753 337.792ZM184.724 366.319C168.368 366.319 152.104 364.348 136.388 360.461C128.903 358.611 124.318 351.016 126.169 343.532C128.016 336.057 135.607 331.467 143.096 333.311C171.055 340.228 201.759 339.935 229.545 332.491C236.991 330.499 244.673 334.931 246.672 342.377C248.664 349.828 244.227 357.509 236.784 359.503C219.903 364.027 202.388 366.319 184.724 366.319Z" fill="#1182C2"/>
<path d="M185.767 365.227C184.439 365.227 183.351 364.163 183.324 362.829L182.921 341.172C182.897 339.823 183.971 338.709 185.319 338.684C186.631 338.719 187.78 339.733 187.807 341.081L188.211 362.736C188.233 364.085 187.163 365.2 185.812 365.227H185.767Z" fill="#1182C2"/>
<path d="M165.868 365.253C165.076 365.253 164.3 364.871 163.83 364.163C161.198 360.199 160.065 355.224 160.717 350.515C161.364 345.808 163.801 341.325 167.406 338.223C168.422 337.34 169.966 337.453 170.852 338.477C171.732 339.5 171.617 341.043 170.593 341.923C167.881 344.261 166.044 347.636 165.554 351.181C165.066 354.731 165.92 358.476 167.9 361.459C168.646 362.584 168.34 364.1 167.216 364.845C166.8 365.123 166.33 365.253 165.868 365.253Z" fill="#1182C2"/>
<path d="M147.629 362.288C146.808 362.288 146.007 361.876 145.547 361.125C143.081 357.12 142.223 352.184 143.192 347.585C144.157 342.987 146.928 338.813 150.792 336.14C151.901 335.369 153.421 335.648 154.192 336.759C154.96 337.868 154.684 339.389 153.575 340.157C150.725 342.128 148.684 345.201 147.972 348.591C147.259 351.98 147.891 355.615 149.707 358.565C150.413 359.713 150.055 361.219 148.908 361.925C148.507 362.171 148.065 362.288 147.629 362.288Z" fill="#1182C2"/>
<path d="M204.57 365.253C204.108 365.253 203.638 365.123 203.224 364.845C202.1 364.1 201.792 362.584 202.538 361.459C204.518 358.476 205.373 354.731 204.884 351.183C204.394 347.636 202.557 344.261 199.845 341.923C198.821 341.043 198.706 339.5 199.588 338.477C200.47 337.453 202.012 337.34 203.032 338.223C206.637 341.325 209.076 345.808 209.722 350.516C210.373 355.224 209.24 360.199 206.609 364.163C206.138 364.871 205.364 365.253 204.57 365.253Z" fill="#1182C2"/>
<path d="M222.81 362.288C222.373 362.288 221.932 362.171 221.532 361.925C220.384 361.219 220.024 359.713 220.732 358.565C222.548 355.615 223.18 351.98 222.466 348.592C221.756 345.201 219.713 342.128 216.865 340.157C215.756 339.389 215.478 337.868 216.246 336.759C217.014 335.648 218.532 335.369 219.646 336.14C223.512 338.813 226.281 342.987 227.248 347.587C228.216 352.184 227.357 357.12 224.893 361.125C224.432 361.876 223.63 362.288 222.81 362.288Z" fill="#1182C2"/>
</svg>
