<svg width="353" height="550" viewBox="0 0 353 550" fill="none" xmlns="http://www.w3.org/2000/svg">
<path d="M63.2855 394.789C61.6642 394.789 60.0082 394.641 58.3242 394.303C42.4989 391.132 36.2389 374.344 34.1829 368.828C26.3402 347.796 22.4788 325.751 22.7041 303.309C22.7588 297.912 27.1908 293.596 32.5735 293.635C37.9708 293.689 42.3015 298.108 42.2482 303.504C42.0455 323.543 45.4935 343.221 52.4948 362C55.4495 369.92 58.7909 374.465 62.1602 375.14C64.7122 375.656 68.5028 374.232 72.1775 372.743C98.4695 362.072 123.695 348.58 147.153 332.639C151.615 329.604 157.692 330.767 160.728 335.229C163.762 339.693 162.601 345.771 158.137 348.805C133.541 365.519 107.092 379.664 79.5255 390.851C74.7002 392.809 69.2175 394.789 63.2855 394.789Z" fill="#2CC96B"/>
<path d="M32.4961 296.079C28.4814 296.079 25.1867 299.323 25.1467 303.333C24.9241 325.475 28.7347 347.224 36.472 367.975C38.4107 373.175 44.312 389.004 58.8027 391.908C60.252 392.199 61.76 392.347 63.2867 392.347C68.8774 392.347 74.1253 390.408 78.6067 388.587C106.02 377.463 132.317 363.399 156.764 346.784C160.107 344.513 160.979 339.944 158.708 336.604C157.607 334.984 155.94 333.889 154.017 333.523C152.095 333.155 150.145 333.56 148.528 334.66C124.932 350.695 99.5534 364.269 73.0961 375.008C68.8974 376.708 64.8667 378.176 61.6774 377.536C57.3774 376.675 53.5173 371.735 50.2067 362.855C43.0987 343.795 39.6 323.82 39.804 303.481C39.8453 299.44 36.5894 296.119 32.548 296.079H32.4961ZM63.2867 397.233C61.4374 397.233 59.6067 397.053 57.8414 396.699C40.6854 393.261 34.0681 375.513 31.8934 369.683C23.9467 348.367 20.0334 326.027 20.2614 303.285C20.3294 296.599 25.812 291.192 32.5027 291.192H32.592C39.3334 291.261 44.7574 296.796 44.6907 303.529C44.4921 323.265 47.888 342.652 54.784 361.147C58.5334 371.2 61.7453 372.567 62.64 372.745C64.6573 373.156 68.7907 371.481 71.2601 370.48C97.3974 359.871 122.469 346.46 145.781 330.619C148.476 328.784 151.732 328.109 154.933 328.724C158.137 329.335 160.913 331.157 162.748 333.856C166.535 339.427 165.081 347.037 159.511 350.825C134.779 367.633 108.177 381.861 80.444 393.115C75.536 395.107 69.7574 397.233 63.2867 397.233Z" fill="#17733C"/>
<path d="M76.1389 510.82C77.5469 497.764 66.2389 448.887 137.76 461.153C152.927 463.755 121.128 432.045 121.128 432.045C45.8629 429.967 57.5309 484.011 64.5802 509.605C66.4482 516.387 75.5322 516.444 76.1389 510.82Z" fill="#2CC96B"/>
<path d="M117.005 434.431C94.2735 434.431 78.4041 439.985 69.7975 450.964C57.4441 466.724 61.7801 490.236 66.9348 508.956C67.6454 511.536 69.8188 512.58 71.5348 512.42C72.2788 512.361 73.5495 512.038 73.7095 510.557C73.8761 509.011 73.8455 506.769 73.8095 504.173C73.6695 493.857 73.4335 476.589 85.8468 465.98C96.3255 457.021 113.935 454.588 138.173 458.747C138.739 458.841 139.134 458.861 139.394 458.861C138.812 455.509 130.384 444.828 120.091 434.464C119.05 434.44 118.019 434.431 117.005 434.431ZM71.2415 517.318C67.7148 517.318 63.5841 515.188 62.2255 510.254C56.7655 490.426 52.2535 465.426 65.9508 447.951C76.0695 435.044 94.6388 428.908 121.196 429.603C121.819 429.621 122.412 429.875 122.853 430.316C134.004 441.436 146.694 455.857 143.819 461.421C143.115 462.783 141.42 464.26 137.348 463.561C114.605 459.663 98.3455 461.724 89.0215 469.694C78.3508 478.814 78.5588 494.033 78.6962 504.106C78.7335 506.861 78.7655 509.24 78.5668 511.083C78.1988 514.502 75.5308 516.999 71.9295 517.289C71.7028 517.309 71.4735 517.318 71.2415 517.318Z" fill="#17733C"/>
<path d="M66.2267 504.314C73.0934 504.344 78.744 510.329 77.8787 517.141C77.416 520.788 75.1587 521.768 69.3627 522.737C56.1214 524.952 20.6121 521.866 20.5241 516.009C20.4507 511.213 47.6201 504.233 66.2267 504.314Z" fill="#2CC96B"/>
<path d="M23.2533 515.959C27.5159 519.293 55.6253 522.563 68.9586 520.326C75.1439 519.293 75.2546 518.42 75.4559 516.835C75.7679 514.369 75.004 511.943 73.3026 510.004C71.5026 507.952 68.92 506.769 66.216 506.757H65.8733C48.0839 506.757 26.7266 512.749 23.2533 515.959ZM57.836 525.876C43.896 525.876 25.0919 523.809 19.9146 519.495C18.4239 518.25 18.0946 516.935 18.08 516.047C18.064 514.889 18.5626 513.788 19.5693 512.773C24.748 507.537 48.8933 501.871 65.9066 501.871H66.2373C70.3399 501.889 74.2546 503.678 76.9759 506.783C79.5746 509.744 80.7866 513.632 80.3039 517.449C79.5906 523.068 75.2986 524.22 69.7653 525.145C66.8746 525.631 62.644 525.876 57.836 525.876Z" fill="#17733C"/>
<path d="M279.531 492.454C266.4 492.309 218.84 508.275 224.157 435.904C225.285 420.557 196.788 455.264 196.788 455.264C201.971 530.378 254.639 513.559 279.435 504.075C286.005 501.561 285.187 492.516 279.531 492.454Z" fill="#2CC96B"/>
<path d="M199.295 456.063C201.128 480.383 208.283 496.689 220.567 504.533C237.443 515.312 260.423 508.73 278.561 501.795C281.061 500.837 281.872 498.576 281.568 496.883C281.437 496.148 280.993 494.914 279.504 494.897H279.503C277.937 494.937 275.717 495.126 273.136 495.412C262.88 496.542 245.719 498.443 233.963 487.111C224.037 477.544 219.919 460.255 221.723 435.724C221.764 435.156 221.748 434.763 221.72 434.5C218.439 435.4 208.62 444.819 199.295 456.063ZM241.929 515.124C233.491 515.124 225.273 513.336 217.936 508.651C204.113 499.824 196.179 481.919 194.351 455.431C194.308 454.809 194.504 454.195 194.9 453.712C204.892 441.543 218.019 427.529 223.84 429.848C225.264 430.419 226.897 431.961 226.593 436.083C224.904 459.095 228.524 475.081 237.355 483.593C247.46 493.335 262.587 491.663 272.6 490.555C275.337 490.252 277.676 489.995 279.557 490.012C283 490.049 285.74 492.464 286.377 496.021C287.024 499.633 285.401 504.407 280.308 506.356C268.631 510.823 255.015 515.124 241.929 515.124Z" fill="#17733C"/>
<path d="M274.011 502.947C273.379 496.108 278.791 489.908 285.655 490.112C289.329 490.221 290.521 492.373 292.045 498.049C295.527 511.016 295.877 546.656 290.055 547.309C285.288 547.844 275.723 521.473 274.011 502.947Z" fill="#2CC96B"/>
<path d="M276.443 502.723C278.084 520.502 286.192 541.428 289.743 544.597C292.648 540.028 293.192 511.743 289.687 498.681C288.062 492.628 287.18 492.602 285.582 492.555C283.067 492.44 280.76 493.476 278.994 495.354C277.124 497.343 276.195 500.029 276.443 502.723ZM289.902 549.761C288.896 549.761 287.898 549.361 286.926 548.572C281.178 543.888 273.144 520.129 271.578 503.171C271.202 499.084 272.606 495.016 275.434 492.005C278.131 489.138 281.867 487.625 285.728 487.668C291.387 487.837 292.951 491.996 294.406 497.414C297.37 508.457 298.688 540.09 293.583 547.581C292.49 549.184 291.21 549.637 290.328 549.738C290.186 549.752 290.043 549.761 289.902 549.761Z" fill="#17733C"/>
<path d="M168.073 303.801L228.572 315.527C238.749 367.057 254.773 429.251 232.744 454.206C210.713 479.163 180.701 470.804 167.583 468.261C154.464 465.718 123.501 462.259 112.391 430.879C101.28 399.499 139.381 347.796 168.073 303.801Z" fill="#2CC96B"/>
<path d="M112.392 430.881C123.508 462.25 154.464 465.712 167.584 468.256C168.111 468.357 168.687 468.469 169.281 468.609C154.309 465.359 133.036 458.025 124.24 433.177C113.131 401.785 151.22 350.092 179.907 306.083L168.083 303.791C139.372 347.796 101.283 399.489 112.392 430.881Z" fill="#33E87B"/>
<path d="M148.585 333.381C162.552 342.211 178.085 348.729 194.921 351.993C208.784 354.68 222.685 354.985 236.215 353.353C233.739 340.58 230.975 327.752 228.569 315.515L168.083 303.791C161.82 313.377 155.109 323.349 148.585 333.381Z" fill="#0DA14D"/>
<path d="M169.221 306.511C166.417 310.799 163.531 315.155 160.615 319.556C134.632 358.763 105.183 403.201 114.693 430.063C124.568 457.952 150.919 462.74 165.076 465.312C166.143 465.505 167.137 465.687 168.048 465.863C168.957 466.04 169.947 466.242 171.009 466.461C185.097 469.363 211.329 474.772 230.913 452.589C249.769 431.229 239.057 379.008 229.607 332.935C228.547 327.76 227.496 322.639 226.496 317.612L169.221 306.511ZM192.703 474.063C183.687 474.063 175.639 472.405 170.023 471.248C168.981 471.033 168.009 470.832 167.117 470.659C166.225 470.487 165.249 470.308 164.203 470.118C150.149 467.566 120.908 462.253 110.087 431.695C99.7641 402.536 128.628 358.977 156.541 316.856C159.764 311.993 162.949 307.187 166.028 302.467C166.569 301.635 167.567 301.209 168.54 301.403L229.037 313.129C230.012 313.317 230.777 314.079 230.969 315.055C232.061 320.581 233.221 326.236 234.393 331.952C244.547 381.452 255.045 432.635 234.575 455.824C221.733 470.372 206.145 474.063 192.703 474.063Z" fill="#17733C"/>
<path d="M346.695 171.951C334.085 247.612 249.592 338.969 166.455 325.115C83.3187 311.259 33.0201 197.437 45.6307 121.776C61.4494 26.8547 124.889 -9.78796 219.637 6.00272C302.775 19.8587 364.839 63.0827 346.695 171.951Z" fill="#2CC96B"/>
<path d="M346.704 171.941C338.367 221.968 298.623 278.847 248.628 307.615C284.585 276.729 311.261 232.435 317.916 192.505C336.06 83.6321 273.993 40.3988 190.857 26.5428C149 19.5668 113.239 22.8201 85.0215 36.8414C115.809 6.20941 161.904 -3.61856 219.641 6.00412C302.777 19.8588 364.844 63.0934 346.704 171.941Z" fill="#33E87B"/>
<path d="M179.276 4.88797C149.719 4.88797 124.622 11.4186 104.355 24.4279C74.6149 43.5186 55.6682 76.4053 48.0402 122.176C41.8868 159.097 51.1789 206.337 72.2882 245.463C95.7935 289.025 129.378 316.46 166.858 322.705C204.334 328.941 245.002 313.892 281.366 280.308C314.023 250.144 338.132 208.469 344.286 171.551C352.592 121.703 344.197 82.4866 319.333 54.9866C298.22 31.632 264.543 15.9627 219.236 8.41199C205.135 6.06265 191.804 4.88797 179.276 4.88797ZM183.696 328.975C177.762 328.975 171.874 328.496 166.053 327.524C127.054 321.024 92.2255 292.705 67.9882 247.781C46.3882 207.749 36.8975 159.312 43.2215 121.373C51.0855 74.1813 70.7655 40.1826 101.715 20.3173C131.623 1.11728 171.433 -4.51068 220.04 3.59332C321.524 20.508 364.948 77.2853 349.104 172.352C342.783 210.291 318.096 253.032 284.68 283.897C252.78 313.363 217.523 328.975 183.696 328.975Z" fill="#17733C"/>
<path d="M198.159 242.397C206.925 187.896 257.069 164.003 301.367 192.253C289.883 247.883 229.793 257.471 198.159 242.397Z" fill="black"/>
<path d="M200.883 240.953C219.371 249.02 244.411 248.047 263.858 238.377C276.548 232.069 292.742 219.172 298.615 193.416C279.146 181.553 257.492 179.5 238.97 187.809C219.207 196.677 205.398 215.987 200.883 240.953ZM228.71 251.239C217.438 251.239 206.423 249.041 197.107 244.601C196.128 244.136 195.575 243.079 195.747 242.008C200.172 214.501 215.198 193.12 236.971 183.351C257.478 174.148 281.431 176.639 302.68 190.195C303.536 190.739 303.964 191.755 303.76 192.748C297.818 221.532 279.964 235.829 266.034 242.752C254.69 248.392 241.535 251.239 228.71 251.239Z" fill="black"/>
<path d="M282.398 215.492C281.626 220.121 277.247 223.249 272.618 222.477C267.987 221.707 264.86 217.328 265.632 212.697C266.403 208.068 270.782 204.94 275.411 205.712C280.042 206.484 283.168 210.863 282.398 215.492Z" fill="white"/>
<path d="M264.381 226.361C263.911 229.187 261.24 231.095 258.415 230.624C255.591 230.153 253.683 227.481 254.153 224.657C254.624 221.832 257.295 219.924 260.12 220.395C262.944 220.865 264.852 223.537 264.381 226.361Z" fill="white"/>
<path d="M247.443 194.779C233.191 203.815 221.515 215.643 213.345 230.455C212.059 232.812 208.316 231.545 208.709 228.909C210.751 214.819 220.282 202.229 232.458 195.115C236.559 192.74 241.029 190.973 245.689 190.217C247.051 189.997 248.332 190.921 248.552 192.283C248.716 193.292 248.249 194.257 247.443 194.779Z" fill="#4D4D4D"/>
<path d="M132.764 231.499C142.147 177.1 102.463 138.236 51.3961 150.593C44.2187 206.94 97.9507 235.497 132.764 231.499Z" fill="black"/>
<path d="M53.6227 152.587C50.8254 178.853 61.9601 196.307 71.9188 206.389C87.1788 221.841 110.532 230.867 130.656 229.252C134.483 204.168 127.681 181.425 111.861 166.627C97.0361 152.753 75.8827 147.676 53.6227 152.587ZM125.996 234.321C105.76 234.321 83.4067 224.972 68.4427 209.823C57.5107 198.755 45.2587 179.443 48.9721 150.287C49.1001 149.28 49.8361 148.459 50.8201 148.22C75.3227 142.289 98.7827 147.699 115.2 163.057C132.627 179.361 139.907 204.457 135.172 231.915C134.988 232.983 134.12 233.801 133.044 233.925C130.735 234.191 128.379 234.321 125.996 234.321Z" fill="black"/>
<path d="M121.444 188.668C120.672 193.297 116.293 196.425 111.664 195.653C107.035 194.881 103.907 190.503 104.677 185.873C105.449 181.244 109.828 178.116 114.457 178.888C119.088 179.66 122.215 184.037 121.444 188.668Z" fill="white"/>
<path d="M103.428 199.537C102.958 202.361 100.287 204.271 97.4616 203.799C94.6376 203.328 92.7296 200.657 93.2002 197.832C93.6709 195.008 96.3416 193.1 99.1669 193.571C101.991 194.041 103.899 196.713 103.428 199.537Z" fill="white"/>
<path d="M61.7655 160.756C68.3575 175.379 73.1815 190.553 82.3028 203.843C83.8175 206.029 81.0628 208.795 78.8801 207.313C71.4655 202.407 66.4588 194.655 62.8628 186.745C59.4321 178.848 57.2281 170.465 57.0041 161.851C56.9788 160.472 58.0761 159.333 59.4534 159.308C60.4734 159.291 61.3642 159.885 61.7655 160.756Z" fill="#4D4D4D"/>
<path d="M258.503 152.092C249.979 145.657 238.5 143.316 228.137 145.899C217.775 148.481 208.739 155.937 204.233 165.62C220.336 156.459 239.979 151.812 258.503 152.092Z" fill="#128240"/>
<path d="M236.567 147.324C233.918 147.324 231.277 147.633 228.728 148.271C221.932 149.963 215.658 154.001 211.1 159.405C222.907 154.092 236.317 150.78 249.661 149.884C245.523 148.204 241.03 147.324 236.567 147.324ZM204.234 168.063C203.634 168.063 203.04 167.843 202.576 167.416C201.795 166.696 201.568 165.553 202.017 164.589C206.863 154.177 216.407 146.305 227.547 143.528C238.684 140.753 250.81 143.225 259.975 150.144C260.819 150.78 261.158 151.888 260.814 152.887C260.468 153.887 259.435 154.548 258.466 154.536C240.011 154.288 220.688 159.068 205.44 167.743C205.063 167.957 204.647 168.063 204.234 168.063Z" fill="#0E6932"/>
<path d="M99.6094 125.612C109.759 122.288 121.376 123.796 130.341 129.6C139.305 135.404 145.436 145.387 146.559 156.008C134.297 142.12 117.223 131.353 99.6094 125.612Z" fill="#128240"/>
<path d="M108.687 126.389C121.019 131.564 132.632 139.048 142.079 147.901C139.519 141.312 134.894 135.457 129.014 131.652C123.091 127.817 115.793 125.995 108.687 126.389ZM146.56 158.451C145.874 158.451 145.201 158.161 144.728 157.625C133.117 144.475 116.397 133.653 98.8508 127.935C97.8468 127.605 97.1669 126.671 97.1655 125.613C97.1642 124.556 97.8442 123.619 98.8495 123.289C109.762 119.72 122.031 121.312 131.669 127.548C141.308 133.789 147.782 144.332 148.988 155.749C149.1 156.807 148.515 157.816 147.542 158.243C147.226 158.384 146.891 158.451 146.56 158.451Z" fill="#0E6932"/>
<path d="M212.309 272.036C208.789 282.737 197.409 292.163 181.675 292.996C171.684 293.552 161.128 290.479 153.381 283.769C144.851 276.387 145.633 263.229 158.972 263.235C167.424 263.263 174.641 267.948 190.113 264.433C196.859 262.839 199.608 260.835 203.588 260.223C210.6 259.145 214.961 264.001 212.309 272.036Z" fill="#6E0E1F"/>
<path d="M158.958 265.677C148.111 265.677 148.382 275.527 154.29 281.277C159.383 286.344 168.88 290.545 179.095 290.608C192.271 290.685 204.139 284.477 209.379 272.857C210.598 270.047 211.49 265.916 209.284 263.811C208.158 262.737 206.166 262.293 203.96 262.637C201.703 262.981 199.514 263.984 196.946 264.933C188.174 268.129 179.147 268.82 170.859 267.483C166.939 266.849 162.736 265.677 158.958 265.677ZM151.782 285.617C141.139 276.284 143.772 260.791 158.966 260.791C163.327 260.791 167.583 262.001 171.639 262.659C179.33 263.899 187.471 263.189 195.267 260.343C197.698 259.459 200.278 258.259 203.219 257.809C212.442 256.388 218.69 263.723 213.846 274.836C203.234 298.368 170.192 301.561 151.782 285.617Z" fill="black"/>
<path d="M212.309 272.036C208.541 283.493 195.995 293.159 179.08 293.051C179.845 284.5 185.071 276.261 192.875 272.547C198.908 269.664 206.073 269.679 212.309 272.036Z" fill="#DB1A47"/>
<path d="M181.924 290.533C194.204 289.765 204.264 283.457 209.052 273.555C195.994 270.083 184.54 278.159 181.924 290.533ZM179.067 295.493C177.624 295.484 176.52 294.247 176.647 292.833C177.515 283.145 183.472 274.316 191.826 270.339C198.256 267.268 206.037 267.053 213.173 269.752C214.397 270.215 215.039 271.557 214.63 272.801C214.395 273.516 214.128 274.187 213.846 274.836C208.38 286.955 195.988 295.493 179.067 295.493Z" fill="black"/>
<path d="M324.771 419.739C323.946 419.739 323.106 419.635 322.27 419.412C317.052 418.033 313.939 412.687 315.318 407.469C320.435 388.095 321.927 368.169 319.751 348.251C318.834 339.847 316.708 334.621 313.608 333.14C311.271 332.021 307.24 332.46 303.308 333.004C275.21 336.885 247.444 343.771 220.782 353.464C215.706 355.299 210.103 352.691 208.259 347.616C206.414 342.544 209.031 336.937 214.103 335.093C242.059 324.933 271.172 317.713 300.634 313.644C307.206 312.732 314.819 312.06 322.034 315.504C336.594 322.464 338.539 340.276 339.18 346.128C341.616 368.441 339.946 390.757 334.212 412.46C333.055 416.843 329.1 419.739 324.771 419.739Z" fill="#2CC96B"/>
<path d="M309.519 329.999C311.463 329.999 313.22 330.247 314.663 330.936C318.621 332.828 321.151 338.565 322.179 347.987C324.388 368.204 322.875 388.425 317.68 408.093C316.648 412 318.987 416.019 322.893 417.051C326.747 418.068 330.84 415.663 331.851 411.839C337.507 390.427 339.156 368.407 336.751 346.393C336.147 340.871 334.309 324.08 320.98 317.709C314.359 314.548 307.179 315.2 300.968 316.064C271.688 320.109 242.743 327.284 214.939 337.389C211.14 338.771 209.173 342.984 210.555 346.781C211.932 350.576 216.147 352.544 219.951 351.167C246.777 341.415 274.712 334.488 302.973 330.585C305.26 330.268 307.489 329.999 309.519 329.999ZM324.771 422.183C323.717 422.183 322.664 422.044 321.643 421.775C318.491 420.943 315.849 418.929 314.208 416.111C312.567 413.291 312.121 410.001 312.956 406.845C317.997 387.759 319.467 368.135 317.321 348.516C316.157 337.852 313.379 335.739 312.555 335.345C310.685 334.448 306.105 335.083 303.643 335.424C275.72 339.281 248.124 346.124 221.616 355.76C215.276 358.055 208.26 354.772 205.961 348.452C203.661 342.123 206.939 335.099 213.268 332.799C241.397 322.575 270.679 315.316 300.299 311.225C307.212 310.261 315.245 309.56 323.087 313.301C338.869 320.844 340.931 339.671 341.607 345.856C344.077 368.476 342.384 391.092 336.575 413.087C335.16 418.441 330.305 422.183 324.771 422.183Z" fill="#17733C"/>
<path d="M295.209 425.18C299.751 417.612 305.367 411.319 311.131 404.716C316.64 398.408 321.787 400.495 328.561 403.889C331.101 405.161 333.681 406.504 335.617 408.583C339.776 413.052 337.297 418.375 336.136 423.577C334.799 429.56 332.919 435.421 330.523 441.064C329.201 444.175 327.508 447.441 324.459 448.897C320.976 450.561 316.848 449.348 313.269 447.903C308.315 445.899 303.528 443.479 298.977 440.676C296.305 439.031 293.513 436.973 292.792 433.919C292.079 430.899 293.612 427.84 295.209 425.18Z" fill="#2CC96B"/>
<path d="M297.303 426.436C295.899 428.777 294.668 431.235 295.169 433.357C295.681 435.527 298.029 437.225 300.259 438.596C304.683 441.321 309.368 443.691 314.184 445.637C317.069 446.801 320.723 447.977 323.405 446.693C325.689 445.604 327.095 442.884 328.273 440.109C330.605 434.621 332.448 428.88 333.751 423.044C333.952 422.145 334.189 421.243 334.428 420.341C335.636 415.78 336.252 412.852 333.828 410.249C332.233 408.535 330.004 407.344 327.468 406.075C320.411 402.536 317.124 401.568 312.971 406.325L312.064 407.36C306.629 413.58 301.495 419.453 297.303 426.436ZM320.707 452.14C317.749 452.14 314.816 451.163 312.353 450.165C307.285 448.119 302.353 445.625 297.696 442.757C294.615 440.859 291.337 438.389 290.415 434.481C289.509 430.649 291.271 426.992 293.113 423.923C297.529 416.564 302.803 410.533 308.385 404.147L309.291 403.111C316.341 395.031 323.724 398.733 329.656 401.704C332.624 403.191 335.256 404.609 337.405 406.921C341.788 411.628 340.325 417.153 339.152 421.591C338.931 422.431 338.707 423.271 338.52 424.108C337.152 430.235 335.219 436.259 332.771 442.017C331.291 445.503 329.272 449.308 325.511 451.102C323.952 451.847 322.325 452.14 320.707 452.14Z" fill="#17733C"/>
<path d="M47.5468 281.251C47.7535 290.073 46.3708 298.393 45.0281 307.055C43.7441 315.332 38.2774 316.319 30.7374 317.071C27.9108 317.353 25.0135 317.597 22.2668 316.875C16.3628 315.321 15.6121 309.497 13.8135 304.48C11.7455 298.708 10.2015 292.749 9.21081 286.7C8.66547 283.365 8.34944 279.699 10.1481 276.837C12.2028 273.571 16.3401 272.389 20.1374 271.699C25.3961 270.744 30.7348 270.231 36.0788 270.167C39.2161 270.129 42.6775 270.376 44.9188 272.572C47.1362 274.743 47.4748 278.148 47.5468 281.251Z" fill="#2CC96B"/>
<path d="M36.616 272.608C36.4467 272.608 36.2773 272.608 36.1093 272.609C30.9133 272.672 25.6853 273.175 20.5733 274.103C17.5147 274.657 13.8013 275.619 12.2173 278.137C10.8693 280.28 11.1347 283.329 11.6227 286.304C12.584 292.189 14.096 298.027 16.1134 303.655C16.4227 304.521 16.7054 305.411 16.9854 306.301C18.4027 310.803 19.4467 313.607 22.888 314.513C25.1454 315.104 27.6681 314.92 30.4961 314.639C38.3507 313.856 41.6453 312.916 42.612 306.68L42.8187 305.352C44.092 297.18 45.2947 289.46 45.1054 281.308C45.0414 278.579 44.7667 275.843 43.2093 274.317C41.7173 272.856 39.0907 272.608 36.616 272.608ZM26.3294 319.792C24.7494 319.792 23.2054 319.647 21.644 319.236C15.4227 317.6 13.7054 312.148 12.324 307.768C12.064 306.94 11.8027 306.111 11.5134 305.301C9.39737 299.397 7.81069 293.271 6.80003 287.093C6.18803 283.36 5.86137 279.065 8.08004 275.537C10.6814 271.403 15.656 270.028 19.7 269.293C25.0814 268.319 30.5827 267.791 36.0494 267.724C39.6787 267.691 43.756 268.015 46.628 270.825C49.44 273.581 49.9053 277.613 49.9893 281.193C50.1893 289.783 48.9547 297.711 47.648 306.105L47.4414 307.429C45.7974 318.024 37.5827 318.843 30.98 319.501C29.368 319.661 27.8334 319.792 26.3294 319.792Z" fill="#17733C"/>
<path d="M3.53879 258.44C3.19612 267.796 3.11744 277.177 5.35878 286.389C5.67878 287.7 6.0588 289.033 7.0828 290.193C8.1068 291.351 9.89209 292.324 12.0401 292.471C14.3668 292.631 16.6895 291.78 18.0988 290.608C19.5081 289.435 20.1428 287.987 20.5295 286.56C21.8988 281.509 20.1708 276.417 19.0628 271.437C18.0521 266.893 16.9174 262.361 15.6561 257.843C15.1161 255.904 12.4788 253.329 9.38013 253.521C6.50813 253.7 3.61212 256.439 3.53879 258.44Z" fill="#2CC96B"/>
<path d="M5.98013 258.539C5.65747 267.365 5.52812 276.744 7.73346 285.812C7.99612 286.891 8.26547 287.84 8.91347 288.575C9.47213 289.209 10.6334 289.925 12.2094 290.033C13.9601 290.159 15.6508 289.465 16.5361 288.731C17.3268 288.072 17.8161 287.229 18.1734 285.917C19.1561 282.291 18.2348 278.473 17.2588 274.435C17.0588 273.609 16.8614 272.787 16.6788 271.965C15.6748 267.459 14.5388 262.928 13.3028 258.499C13.0441 257.563 11.3495 255.905 9.52948 255.96C7.76548 256.069 6.07213 257.883 5.98013 258.539ZM12.5975 294.933C12.3561 294.933 12.1134 294.927 11.8734 294.909C9.2841 294.731 6.80811 293.571 5.25077 291.811C3.86677 290.24 3.35614 288.487 2.98547 286.967C0.630807 277.291 0.762786 267.524 1.09745 258.353C1.22279 254.932 5.24812 251.332 9.22812 251.084C13.3548 250.821 17.1294 254.032 18.0094 257.187C19.2681 261.697 20.4254 266.313 21.4481 270.904C21.6241 271.699 21.8161 272.491 22.0081 273.288C23.0855 277.749 24.2001 282.36 22.8881 287.199C22.4961 288.641 21.7348 290.759 19.6615 292.485C17.8095 294.024 15.1588 294.933 12.5975 294.933Z" fill="#17733C"/>
<path d="M35.4987 256.465C35.1561 265.821 35.0774 275.201 37.3187 284.413C37.6374 285.725 38.0187 287.059 39.0414 288.217C40.0654 289.376 41.8521 290.349 44.0001 290.496C46.3267 290.655 48.6481 289.804 50.0574 288.632C51.4667 287.46 52.1027 286.012 52.4894 284.584C53.8587 279.533 52.1294 274.441 51.0227 269.461C50.012 264.917 48.8761 260.385 47.6161 255.868C47.0761 253.929 44.104 251.235 41.0174 251.56C38.3494 251.84 35.5721 254.464 35.4987 256.465Z" fill="#2CC96B"/>
<path d="M37.9388 256.559C37.6175 265.388 37.4855 274.769 39.6921 283.837C39.9535 284.913 40.2228 285.865 40.8735 286.6C41.4348 287.235 42.5935 287.952 44.1641 288.057C45.9401 288.191 47.6095 287.489 48.4962 286.755C49.2882 286.093 49.7775 285.255 50.1308 283.947C51.1148 280.316 50.1948 276.499 49.2175 272.46C49.0188 271.635 48.8201 270.811 48.6375 269.991C47.6401 265.508 46.5055 260.977 45.2628 256.525C45.0242 255.669 43.1028 253.781 41.2748 253.989C39.6722 254.159 38.0148 255.857 37.9388 256.559ZM44.5575 292.957C44.3148 292.957 44.0721 292.951 43.8335 292.933C41.2455 292.757 38.7695 291.6 37.2108 289.835C35.8242 288.265 35.3135 286.512 34.9455 284.992C32.5921 275.315 32.7215 265.548 33.0561 256.377C33.1788 253.055 36.9228 249.533 40.7628 249.132C44.9455 248.664 49.0668 251.976 49.9708 255.213C51.2348 259.745 52.3908 264.363 53.4068 268.931C53.5828 269.723 53.7748 270.515 53.9681 271.312C55.0441 275.773 56.1588 280.385 54.8481 285.223C54.4575 286.661 53.6988 288.78 51.6201 290.509C49.7681 292.049 47.1188 292.957 44.5575 292.957Z" fill="#17733C"/>
<path d="M25.2134 248.636C22.0588 248.787 19.5921 250.652 19.5188 252.931C19.1761 263.584 19.0974 274.265 21.3388 284.753C21.6574 286.248 22.0388 287.765 23.0628 289.085C24.0868 290.404 25.8721 291.512 28.0201 291.68C30.3467 291.86 32.6694 290.892 34.0787 289.557C35.4881 288.223 36.1227 286.573 36.5094 284.948C37.8787 279.197 36.1494 273.399 35.0427 267.729C34.0321 262.555 32.8961 257.395 31.6361 252.251C31.0961 250.043 28.3148 248.487 25.2134 248.636Z" fill="#2CC96B"/>
<path d="M25.3283 251.076C23.2776 251.175 21.9843 252.267 21.9603 253.009C21.6363 263.109 21.5056 273.841 23.7283 284.243C24.0043 285.539 24.2909 286.683 24.9923 287.588C25.5536 288.311 26.6923 289.127 28.2096 289.243C29.9056 289.363 31.531 288.607 32.399 287.783C33.235 286.991 33.7536 285.975 34.1336 284.381C35.1536 280.096 34.2163 275.676 33.2229 270.995C33.0243 270.06 32.8269 269.127 32.6456 268.196C31.6483 263.088 30.5096 257.919 29.2643 252.832C29.043 251.923 27.3763 250.991 25.3296 251.076H25.3283ZM28.5789 294.144C28.3283 294.144 28.0789 294.133 27.831 294.115C25.1936 293.909 22.6896 292.591 21.1336 290.584C19.799 288.867 19.323 287.012 18.9496 285.264C16.6123 274.325 16.743 263.253 17.0776 252.851C17.1923 249.271 20.639 246.408 25.0963 246.195C29.4443 246.033 33.1803 248.289 34.0096 251.668C35.2749 256.831 36.4283 262.077 37.4403 267.261C37.6176 268.165 37.8096 269.072 38.003 269.981C39.0643 274.984 40.1616 280.159 38.8856 285.515C38.5096 287.099 37.7749 289.423 35.7589 291.331C33.8896 293.101 31.1963 294.144 28.5789 294.144Z" fill="#17733C"/>
<path d="M45.6561 300.837C47.2588 282.44 16.8041 264.552 11.9415 270.552C7.08014 276.551 16.9268 284.313 22.6454 287.601C28.3641 290.889 26.7601 300.085 33.1681 304.599L45.6561 300.837Z" fill="#2CC96B"/>
<path d="M33.1653 307.04C32.68 307.04 32.188 306.895 31.7613 306.595C27.8613 303.848 26.4947 299.831 25.288 296.288C24.3 293.387 23.448 290.88 21.4267 289.72C19.4693 288.595 9.63862 282.62 8.33728 275.625C7.89062 273.228 8.48132 270.943 10.044 269.012C11.5413 267.165 14.892 265.593 22.328 268.6C33.464 273.101 49.3547 286.525 48.0907 301.051C47.9733 302.393 46.8107 303.421 45.444 303.271C44.1013 303.155 43.1066 301.971 43.2226 300.625C44.2146 289.236 30.4146 277.137 20.4973 273.129C16.1853 271.385 14.1106 271.76 13.84 272.089C13.1706 272.915 12.9546 273.731 13.14 274.733C13.796 278.26 19.1587 282.777 23.8627 285.483C27.48 287.564 28.7173 291.197 29.9133 294.713C30.9733 297.827 31.9746 300.771 34.5733 302.601C35.6773 303.376 35.9427 304.9 35.1653 306.005C34.6893 306.68 33.9333 307.04 33.1653 307.04Z" fill="#17733C"/>
</svg>
