<svg width="917" height="1239" viewBox="0 0 917 1239" fill="none" xmlns="http://www.w3.org/2000/svg">
<path d="M562.495 701.847C547.639 700.929 532.898 698.811 518.498 695.465C509.285 693.326 503.549 684.123 505.688 674.91C507.83 665.699 517.027 659.977 526.243 662.102C579.995 674.584 639.114 667.558 688.443 642.819C737.77 618.076 778.757 574.897 800.896 524.353C804.693 515.687 814.779 511.74 823.456 515.537C832.119 519.332 836.066 529.429 832.271 538.095C806.976 595.839 760.154 645.171 703.799 673.433C660.662 695.07 610.972 704.849 562.495 701.847Z" fill="#2CC96B"/>
<path d="M562.797 696.966C610.529 699.928 659.837 690.012 701.604 669.06C756.95 641.302 802.944 592.854 827.788 536.133C830.493 529.953 827.668 522.724 821.491 520.019C815.311 517.316 808.079 520.142 805.377 526.319C782.79 577.891 740.97 621.949 690.636 647.193C640.305 672.435 579.981 679.6 525.137 666.87C518.589 665.374 511.983 669.46 510.455 676.019C508.93 682.588 513.035 689.174 519.607 690.701C533.587 693.949 548.12 696.056 562.797 696.966ZM579.407 707.264C573.658 707.264 567.913 707.085 562.191 706.732C546.974 705.792 531.902 703.602 517.393 700.235C511.662 698.902 506.794 695.42 503.683 690.429C500.572 685.438 499.591 679.533 500.924 673.802C503.667 661.993 515.521 654.607 527.343 657.333C580.006 669.567 637.926 662.68 686.251 638.445C734.574 614.207 774.728 571.907 796.415 522.39C801.286 511.276 814.296 506.183 825.416 511.057C836.536 515.925 841.621 528.936 836.753 540.058C811.004 598.836 763.346 649.044 705.992 677.808C667.71 697.009 623.348 707.264 579.407 707.264Z" fill="#17733C"/>
<path d="M868.371 484.6C880.648 455.937 894.267 433.46 908.461 403.903C910.127 400.434 911.332 396.674 911.46 392.823C911.588 388.975 910.242 384.862 907.086 382.456C903.667 379.85 898.74 379.751 894.764 381.321C890.79 382.891 887.618 385.882 884.867 389.055C875.133 400.29 853.299 455.256 845.37 469.439C844.892 469.309 844.978 469.333 844.5 469.202C839.733 455.937 839.153 410.261 839.308 402.319C839.426 396.263 840.887 389.29 838.115 383.602C835.068 377.35 829.011 374.1 822.201 377.099C811.984 381.593 812.28 392.764 812.505 402.079C812.83 415.541 813.808 469.162 808.606 480.164C799.958 498.465 792.529 527.079 797.05 532.661C806.173 543.92 816.537 550.794 830.309 551.672C841.442 552.38 859.687 536.199 870.27 519.792C880.469 503.985 868.871 485.062 868.371 484.6Z" fill="#2CC96B"/>
<path d="M827.256 380.867C826.332 380.867 825.307 381.075 824.172 381.575C817.482 384.52 817.146 391.528 817.394 401.887C818.006 427.208 818.249 471.215 813.03 482.255C803.748 501.894 798.946 525.744 800.965 529.747C809.898 540.747 819.079 546.054 830.618 546.788C838.921 547.279 855.809 533.184 866.16 517.14C874.406 504.356 865.167 488.672 864.51 487.604C863.431 486.216 863.166 484.328 863.874 482.675C871.239 465.479 878.976 450.693 887.166 435.038C892.649 424.554 898.321 413.714 904.049 401.785C905.63 398.495 906.476 395.427 906.57 392.657C906.642 390.564 906.036 387.805 904.118 386.347C902.335 384.982 899.298 384.795 896.561 385.874C893.971 386.897 891.506 388.865 888.565 392.26C882.88 398.821 871.338 424.639 862.91 443.493C857.411 455.799 852.658 466.427 849.643 471.827C848.545 473.792 846.249 474.756 844.072 474.158L843.461 473.99C841.912 473.576 840.435 472.366 839.893 470.855C834.643 456.237 834.288 408.87 834.413 402.229C834.445 400.72 834.549 399.16 834.659 397.579C834.969 393.122 835.262 388.919 833.716 385.746C832.91 384.093 830.875 380.867 827.256 380.867ZM830.96 556.586C830.637 556.586 830.317 556.575 829.999 556.554C815.693 555.646 804.015 549.028 793.247 535.74C785.479 526.15 798.738 489.591 804.18 478.073C807.225 471.64 808.571 441.856 807.615 402.194C807.385 392.684 807.04 378.424 820.23 372.621C828.941 368.78 838.109 372.42 842.513 381.46C845.205 386.982 844.788 392.973 844.422 398.255C844.323 399.67 844.224 401.069 844.2 402.415C844.024 411.479 844.604 438.416 846.74 455.54C848.938 450.773 851.421 445.213 853.977 439.498C863.612 417.942 874.537 393.507 881.168 385.853C883.668 382.969 887.607 378.888 892.966 376.771C898.951 374.407 905.496 375.094 910.052 378.563C914.194 381.719 916.547 387.111 916.352 392.988C916.21 397.12 915.041 401.505 912.87 406.018C907.069 418.104 901.36 429.019 895.837 439.575C888.095 454.367 880.765 468.382 873.835 484.295C877.619 491.241 883.863 507.745 874.382 522.444C863.396 539.473 844.377 556.583 830.96 556.586Z" fill="#17733C"/>
<path d="M846.19 510.063C836.32 510.023 829.641 519.434 822.316 524.671C818.558 527.357 813.471 529.958 808.942 530.888C803.777 531.951 797.841 528.089 795.109 523.995C791.829 519.076 791.367 512.568 793.266 506.968C795.856 499.333 802.677 495.255 809.815 492.491C818.371 489.177 826.93 486.533 835.967 484.856C846.348 482.928 857.166 481.601 867.73 482.477C872.687 482.888 882.458 483.887 883.409 490.304C885.796 506.38 859.924 510.117 846.19 510.063Z" fill="#2CC96B"/>
<path d="M860.79 487.089C853.903 487.089 846.252 487.922 836.859 489.666C828.845 491.151 820.575 493.57 811.583 497.053C803.791 500.073 799.571 503.617 797.9 508.541C796.399 512.966 796.893 517.845 799.181 521.279C801.016 524.03 805.163 526.655 807.959 526.097C811.38 525.395 815.789 523.322 819.472 520.689C821.296 519.386 823.149 517.728 825.109 515.968C830.763 510.905 837.169 505.168 846.129 505.168H846.209C857.577 505.256 871.934 502.639 876.925 496.876C878.388 495.186 878.912 493.327 878.57 491.025C878.444 490.192 877.104 488.163 867.33 487.353C865.207 487.18 863.038 487.089 860.79 487.089ZM807.19 535.957C800.682 535.957 794.244 531.516 791.039 526.709C787.041 520.713 786.141 512.745 788.636 505.395C792.115 495.135 801.382 490.513 808.047 487.928C817.613 484.221 826.453 481.644 835.073 480.042C843.362 478.506 855.801 476.581 868.136 477.601C873.213 478.02 886.699 479.139 888.25 489.586C889.009 494.703 887.65 499.437 884.322 503.283C874.607 514.499 850.677 514.817 846.171 514.956H846.131C840.911 514.956 836.405 518.988 831.639 523.261C829.566 525.117 827.422 527.034 825.163 528.65C820.369 532.079 814.673 534.707 809.927 535.681C809.02 535.868 808.104 535.957 807.19 535.957Z" fill="#17733C"/>
<path d="M353.868 701.847C368.721 700.929 383.462 698.811 397.864 695.465C407.078 693.326 412.814 684.123 410.672 674.91C408.533 665.699 399.333 659.977 390.117 662.102C336.368 674.584 277.246 667.558 227.918 642.819C178.592 618.076 137.604 574.897 115.465 524.353C111.669 515.687 101.583 511.74 92.9062 515.537C84.2439 519.332 80.2967 529.429 84.0917 538.095C109.385 595.839 156.209 645.171 212.564 673.433C255.698 695.07 305.39 704.849 353.868 701.847Z" fill="#2CC96B"/>
<path d="M99.7588 518.996C98.122 518.996 96.4591 519.325 94.8672 520.019C88.6917 522.724 85.8679 529.953 88.5728 536.135C113.417 592.851 159.409 641.302 214.756 669.06C256.522 690.007 305.828 699.917 353.566 696.966C368.243 696.056 382.776 693.949 396.759 690.701C403.328 689.174 407.432 682.588 405.908 676.019C404.383 669.457 397.797 665.337 391.215 666.872C336.381 679.608 276.057 672.435 225.724 647.193C175.392 621.949 133.57 577.891 110.983 526.319C108.973 521.733 104.473 518.996 99.7588 518.996ZM336.955 707.264C293.012 707.264 248.655 697.009 210.369 677.808C153.015 649.044 105.354 598.836 79.608 540.061C74.7394 528.936 79.8227 515.925 90.9429 511.057C102.074 506.186 115.078 511.276 119.947 522.39C141.633 571.907 181.788 614.207 230.11 638.445C278.439 662.682 336.357 669.575 389.011 657.336C400.847 654.617 412.699 661.999 415.439 673.802C416.771 679.533 415.791 685.438 412.68 690.429C409.569 695.42 404.701 698.902 398.972 700.235C384.461 703.602 369.389 705.792 354.172 706.732C348.452 707.085 342.705 707.264 336.955 707.264Z" fill="#17733C"/>
<path d="M47.9896 484.6C35.7136 455.937 22.0942 433.46 7.9019 403.903C6.23495 400.434 5.03111 396.674 4.90178 392.823C4.77242 388.975 6.1202 384.862 9.27576 382.456C12.6953 379.85 17.6221 379.751 21.5976 381.321C25.5731 382.891 28.7444 385.882 31.4953 389.055C41.229 400.29 63.0632 455.256 70.9914 469.439C71.4713 469.309 71.3837 469.333 71.8636 469.202C76.6275 455.937 77.2086 410.261 77.0543 402.319C76.9375 396.263 75.476 389.29 78.2488 383.602C81.2947 377.35 87.3514 374.1 94.1612 377.099C104.377 381.593 104.083 392.764 103.857 402.079C103.532 415.541 102.554 469.162 107.756 480.164C116.405 498.465 123.833 527.079 119.312 532.661C110.19 543.92 99.8245 550.794 86.0536 551.672C74.9211 552.38 56.6751 536.199 46.0911 519.792C35.8941 503.985 47.49 485.062 47.9896 484.6Z" fill="#2CC96B"/>
<path d="M51.8535 487.604C51.1963 488.67 41.9548 504.354 50.202 517.14C60.5502 533.179 77.3912 547.349 85.7437 546.788C97.2811 546.054 106.462 540.747 115.51 529.582C117.416 525.747 112.612 501.897 103.331 482.255C98.1145 471.218 98.3586 427.211 98.968 401.959C99.2182 391.533 98.8812 384.52 92.1895 381.575C86.5991 379.115 83.6575 383.676 82.6475 385.746C81.1016 388.916 81.3927 393.117 81.7014 397.568C81.8111 399.155 81.9164 400.717 81.9465 402.226C82.0761 408.862 81.7297 456.21 76.4669 470.858C75.9264 472.366 74.679 473.512 73.131 473.929L72.4235 474.118C70.2401 474.708 67.818 473.79 66.7185 471.827C63.7006 466.427 58.949 455.796 53.4494 443.49C45.0229 424.637 33.4834 398.821 27.7971 392.26C24.8585 388.868 22.3924 386.897 19.8002 385.874C17.065 384.793 14.0304 384.982 12.2435 386.347C10.3272 387.805 9.72111 390.564 9.79207 392.66C9.88593 395.429 10.734 398.495 12.3134 401.783C18.0424 413.714 23.7141 424.554 29.197 435.038C37.3869 450.693 45.123 465.479 52.4888 482.675C53.1959 484.328 52.9332 486.216 51.8535 487.604ZM85.4027 556.586C71.9824 556.586 52.9644 539.473 41.9788 522.444C32.4985 507.748 38.744 491.241 42.5286 484.295C35.5979 468.382 28.2676 454.367 20.5273 439.575C15.0027 429.019 9.29343 418.104 3.49239 406.018C1.32053 401.507 0.150099 397.12 0.0113581 392.988C-0.184757 387.111 2.16862 381.719 6.30894 378.563C10.8603 375.091 17.404 374.407 23.3939 376.771C28.7526 378.888 32.6948 382.969 35.1941 385.853C41.8255 393.507 52.7476 417.939 62.3833 439.495C64.9389 445.215 67.4238 450.775 69.6238 455.548C71.7642 438.416 72.3402 411.474 72.1618 402.415C72.1346 401.064 72.0366 399.668 71.9396 398.244C71.5735 392.965 71.1583 386.98 73.8507 381.457C78.2559 372.42 87.4253 368.78 96.1317 372.621C109.322 378.426 108.978 392.689 108.751 402.13C107.793 441.859 109.138 471.643 112.18 478.073C117.622 489.594 130.882 526.153 123.112 535.74C112.345 549.031 100.668 555.646 86.3643 556.554C86.0474 556.575 85.725 556.583 85.4027 556.586Z" fill="#17733C"/>
<path d="M70.1723 510.063C80.0425 510.023 86.7198 519.434 94.046 524.671C97.8034 527.357 102.891 529.958 107.418 530.888C112.584 531.951 118.52 528.089 121.252 523.995C124.532 519.076 124.994 512.568 123.095 506.968C120.505 499.333 113.685 495.255 106.546 492.491C97.9912 489.177 89.4301 486.533 80.3953 484.856C70.0148 482.928 59.196 481.601 48.6299 482.477C43.6738 482.888 33.9046 483.887 32.9523 490.304C30.5664 506.38 56.4358 510.117 70.1723 510.063Z" fill="#2CC96B"/>
<path d="M70.233 505.168C79.1928 505.168 85.5998 510.905 91.2528 515.97C93.215 517.728 95.0686 519.386 96.891 520.689C100.573 523.322 104.983 525.395 108.402 526.097C111.202 526.663 115.35 524.025 117.183 521.279C119.471 517.845 119.964 512.966 118.463 508.541C116.79 503.617 112.571 500.073 104.778 497.053C95.7894 493.57 87.5234 491.153 79.5036 489.666C67.0388 487.353 57.6451 486.646 49.0338 487.353C39.2605 488.163 37.9178 490.192 37.7936 491.025C37.4515 493.327 37.9752 495.186 39.44 496.876C44.4282 502.639 58.8468 505.166 70.1515 505.168H70.233ZM109.169 535.957C108.256 535.957 107.341 535.868 106.434 535.681C101.689 534.709 95.9961 532.079 91.2007 528.65C88.9401 527.034 86.7973 525.117 84.7258 523.261C79.9573 518.991 75.4509 514.956 70.2287 514.956H70.1903C65.6942 515.004 41.7567 514.502 32.0406 503.283C28.7121 499.437 27.3528 494.703 28.1123 489.586C29.6654 479.139 43.1493 478.02 48.2265 477.601C60.5431 476.575 73.0026 478.506 81.2905 480.042C89.9124 481.647 98.752 484.224 108.314 487.928C114.982 490.513 124.247 495.133 127.728 505.395C130.222 512.745 129.322 520.713 125.325 526.709C122.118 531.516 115.677 535.957 109.169 535.957Z" fill="#17733C"/>
<path d="M343.415 898.367C345.912 987.484 375.063 1162.38 383.39 1174.04C391.719 1185.7 409.208 1178.21 406.711 1166.55C400.911 1139.48 402.602 991.912 420.037 931.681C429.197 900.033 343.415 898.367 343.415 898.367Z" fill="#2CC96B"/>
<path d="M348.476 903.449C351.998 997.173 380.834 1161.31 387.385 1171.21C390.464 1175.52 395.004 1175.54 397.95 1174.23C400.334 1173.18 402.634 1170.88 401.923 1167.57C396.043 1140.11 397.61 991.559 415.337 930.322C416.307 926.968 415.847 924.167 413.89 921.507C404.519 908.779 367.335 904.389 348.476 903.449ZM394.302 1184.78C389.017 1184.78 383.443 1182.53 379.411 1176.88C370.131 1163.9 340.977 985.999 338.523 898.506C338.486 897.168 338.996 895.875 339.941 894.925C340.881 893.974 342.115 893.541 343.509 893.475C349.937 893.603 406.73 895.285 421.768 915.701C425.52 920.796 426.548 926.792 424.735 933.043C407.758 991.693 405.897 1139.4 411.494 1165.52C413.067 1172.86 409.211 1179.96 401.899 1183.19C399.605 1184.2 396.991 1184.78 394.302 1184.78Z" fill="#17733C"/>
<path d="M371.635 1159.71C382.848 1151.75 399.029 1154.89 405.571 1166.99C409.072 1173.47 406.541 1177.7 398.235 1186.04C379.264 1205.1 317.861 1241.5 310.881 1232.07C305.166 1224.35 341.25 1181.28 371.635 1159.71Z" fill="#2CC96B"/>
<path d="M315.268 1228.81L315.538 1228.81C326.893 1228.81 375.814 1201.63 394.769 1182.59C403.627 1173.69 402.789 1172.14 401.267 1169.32C398.9 1164.94 394.823 1161.88 389.791 1160.71C384.472 1159.47 378.88 1160.56 374.465 1163.7C345.306 1184.4 317.191 1219.47 315.268 1228.81ZM315.023 1238.5C314.654 1238.5 314.296 1238.48 313.955 1238.46C310.077 1238.17 308.005 1236.41 306.947 1234.98C305.569 1233.12 305.099 1230.75 305.551 1227.92C307.89 1213.25 340.991 1175.47 368.799 1155.72C375.502 1150.96 383.956 1149.31 392.013 1151.18C399.699 1152.97 406.21 1157.89 409.876 1164.67C415.268 1174.64 409.631 1181.53 401.702 1189.49C385.852 1205.41 334.077 1238.5 315.023 1238.5Z" fill="#17733C"/>
<path d="M574.673 898.367C572.173 987.484 543.024 1162.38 534.695 1174.04C526.366 1185.7 508.877 1178.21 511.376 1166.55C517.177 1139.48 515.486 991.912 498.051 931.681C488.888 900.033 574.673 898.367 574.673 898.367Z" fill="#2CC96B"/>
<path d="M569.609 903.449C550.753 904.389 513.569 908.779 504.196 921.507C502.238 924.167 501.779 926.968 502.748 930.322C520.478 991.554 522.045 1140.11 516.162 1167.57C515.452 1170.88 517.751 1173.18 520.138 1174.23C523.084 1175.54 527.624 1175.52 530.716 1171.2C537.254 1161.31 566.087 997.175 569.609 903.449ZM523.786 1184.78C521.097 1184.78 518.483 1184.2 516.186 1183.19C508.874 1179.96 505.018 1172.86 506.591 1165.52C512.191 1139.4 510.327 991.687 493.351 933.043C491.54 926.792 492.566 920.796 496.318 915.701C511.358 895.285 568.149 893.603 574.577 893.475C576.04 893.541 577.207 893.974 578.144 894.925C579.09 895.875 579.6 897.168 579.562 898.506C577.108 985.999 547.957 1163.9 538.677 1176.88C534.645 1182.53 529.069 1184.78 523.786 1184.78Z" fill="#17733C"/>
<path d="M545.244 1159.71C534.03 1151.75 517.85 1154.89 511.307 1166.99C507.806 1173.47 510.34 1177.7 518.643 1186.04C537.614 1205.1 599.017 1241.5 605.997 1232.07C611.712 1224.35 575.628 1181.28 545.244 1159.71Z" fill="#2CC96B"/>
<path d="M531.437 1160.21C529.984 1160.21 528.526 1160.38 527.084 1160.71C522.053 1161.88 517.978 1164.94 515.612 1169.32C514.089 1172.14 513.251 1173.69 522.109 1182.59C541.219 1201.78 590.92 1229.43 601.61 1228.81C599.687 1219.47 571.569 1184.4 542.41 1163.7C539.189 1161.41 535.347 1160.21 531.437 1160.21ZM601.853 1238.5C582.799 1238.5 531.023 1205.41 515.176 1189.49C507.248 1181.53 501.61 1174.64 507.002 1164.67C510.666 1157.89 517.177 1152.97 524.862 1151.18C532.924 1149.31 541.379 1150.96 548.077 1155.72C575.887 1175.47 608.988 1213.26 611.325 1227.92C611.779 1230.75 611.306 1233.12 609.928 1234.99C608.873 1236.41 606.798 1238.17 602.924 1238.46C602.579 1238.48 602.221 1238.5 601.853 1238.5Z" fill="#17733C"/>
<path d="M517.863 633.106H394.435C354.786 730.55 299.574 846.73 333.38 904.197C367.186 961.666 429.384 956.667 456.148 956.667C482.912 956.667 545.113 961.666 578.919 904.197C612.725 846.73 557.512 730.55 517.863 633.106Z" fill="#2CC96B"/>
<path d="M578.913 904.202C545.102 961.647 482.914 956.656 456.148 956.656C455.072 956.656 453.897 956.656 452.674 956.704C483.352 956.02 527.976 949.707 554.743 904.202C588.551 846.712 533.36 730.55 493.727 633.082H517.85C557.531 730.55 612.725 846.712 578.913 904.202Z" fill="#33E87B"/>
<path d="M544.907 698.696C514.081 710.735 481.053 717.633 446.705 717.633C418.424 717.633 390.974 712.935 364.993 704.569C374.73 680.398 385.054 656.227 394.449 633.082H517.85C526.51 654.318 535.905 676.483 544.907 698.696Z" fill="#0DA14D"/>
<path d="M456.148 951.775C458.004 951.775 460.028 951.799 462.199 951.823C491.014 952.17 544.656 952.792 574.699 901.719C603.637 852.531 562.674 753.939 526.534 666.947C522.472 657.176 518.456 647.503 514.573 637.999H397.725C393.845 647.501 389.826 657.17 385.769 666.939C349.627 753.931 308.659 852.528 337.596 901.719C367.642 952.789 421.258 952.146 450.096 951.823C452.267 951.799 454.292 951.775 456.148 951.775ZM469.858 961.666C467.073 961.666 464.472 961.637 462.084 961.607C457.822 961.559 454.473 961.559 450.211 961.607C421.599 961.962 362.082 962.643 329.163 906.678C297.75 853.284 337.901 756.641 376.73 663.184C381.216 652.39 385.649 641.719 389.903 631.261C390.654 629.419 392.446 628.214 394.435 628.214H517.863C519.852 628.214 521.644 629.419 522.395 631.261C526.649 641.722 531.087 652.398 535.571 663.195C574.397 756.649 614.546 853.284 583.135 906.678C552.961 957.975 500.438 961.666 469.858 961.666Z" fill="#17733C"/>
<path d="M727.558 248.162C750.613 400.052 646.573 626.537 479.675 651.869C312.777 677.199 146.222 491.784 123.169 339.894C94.2475 149.338 192.236 40.1168 382.444 11.2487C549.343 -14.081 694.388 29.6111 727.558 248.162Z" fill="#2CC96B"/>
<path d="M727.572 248.138C742.812 348.567 702.522 481.574 625.235 567.441C674.482 486.277 697.718 385.353 685.551 305.193C652.381 86.6313 507.322 42.9258 340.427 68.2555C256.397 81.0098 190.337 109.445 145.335 153.69C184.899 76.2216 266.543 28.8417 382.452 11.2484C549.348 -14.0812 694.407 29.624 727.572 248.138Z" fill="#33E87B"/>
<path d="M461.502 9.77979C437.019 9.77979 410.899 11.8815 383.179 16.0875C188.647 45.6099 100.411 157.328 128.008 339.162C139.256 413.276 186.327 497.434 250.854 558.794C322.698 627.116 403.705 658.452 478.941 647.03C554.179 635.611 622.237 581.651 670.578 495.089C713.985 417.357 733.965 323.013 722.72 248.896C707.533 148.83 667.157 79.3862 602.718 42.496C564.672 20.7154 517.364 9.77979 461.502 9.77979ZM448.224 659.12C379.491 659.12 308.127 626.761 244.109 565.884C178.087 503.101 129.891 416.791 118.332 340.628C103.953 245.895 120.277 168.92 166.844 111.844C211.84 56.6926 284.133 21.2228 381.713 6.41217C474.897 -7.73346 550.892 1.55194 607.581 34.0038C674.744 72.4537 716.738 144.258 732.398 247.43C743.956 323.59 723.542 420.316 679.121 499.859C629.274 589.12 558.703 644.822 480.407 656.705C469.773 658.321 459.029 659.12 448.224 659.12Z" fill="#17733C"/>
<path d="M524.606 469.202C507.4 359.986 588.004 283.311 689.913 309.541C702.648 422.594 594.21 478.223 524.606 469.202Z" fill="black"/>
<path d="M528.897 464.758C569.107 468.63 616.177 451.187 647.185 420.687C667.424 400.784 690.23 366.153 685.391 313.466C640.954 303.001 598.448 312.542 568.351 339.891C536.239 369.069 521.962 414.419 528.897 464.758ZM540.007 475.063C534.572 475.063 529.215 474.732 523.978 474.051C521.823 473.774 520.112 472.107 519.775 469.963C511.088 414.841 526.395 364.79 561.771 332.648C595.088 302.368 642.233 292.212 691.128 304.803C693.096 305.308 694.546 306.974 694.773 308.993C701.364 367.491 676.264 405.815 654.048 427.665C624.122 457.091 580.024 475.063 540.007 475.063Z" fill="black"/>
<path d="M668.249 365.584C669.659 374.877 663.269 383.556 653.976 384.966C644.68 386.376 636.003 379.986 634.593 370.692C633.18 361.396 639.571 352.72 648.867 351.307C658.16 349.897 666.839 356.288 668.249 365.584Z" fill="white"/>
<path d="M640.711 397.483C641.571 403.152 637.672 408.448 632.003 409.308C626.333 410.168 621.038 406.269 620.178 400.599C619.318 394.93 623.217 389.635 628.886 388.775C634.556 387.912 639.851 391.811 640.711 397.483Z" fill="white"/>
<path d="M588.818 347.889C567.305 373.958 552.43 403.737 546.09 437.017C545.108 442.307 537.195 442.222 536.303 436.961C531.427 408.864 541.743 378.965 560.495 357.85C566.829 350.778 574.24 344.631 582.644 340.297C585.098 339.031 588.113 339.992 589.379 342.447C590.316 344.265 590.031 346.396 588.818 347.889Z" fill="#4D4D4D"/>
<path d="M393.327 489.126C377.355 379.724 277.627 330.416 188.093 385.703C209.474 497.445 329.534 518.392 393.327 489.126Z" fill="black"/>
<path d="M193.571 388.112C204.585 439.864 236.641 466.166 261.875 479.168C300.541 499.096 350.652 501.766 387.911 486.16C379.598 436.026 352.503 396.954 313.183 378.621C276.327 361.431 232.906 364.927 193.571 388.112ZM334.397 505.964C307.919 505.964 280.683 499.867 257.39 487.866C229.693 473.595 194.352 444.444 183.286 386.625C182.905 384.63 183.794 382.608 185.522 381.54C228.472 355.017 276.511 350.728 317.319 369.75C360.64 389.95 390.106 433.204 398.169 488.419C398.481 490.569 397.338 492.668 395.367 493.573C377.283 501.87 356.092 505.964 334.397 505.964Z" fill="black"/>
<path d="M350.003 413.885C351.413 423.178 345.023 431.857 335.727 433.267C326.434 434.677 317.757 428.287 316.344 418.994C314.934 409.698 321.325 401.021 330.621 399.611C339.914 398.198 348.593 404.592 350.003 413.885Z" fill="white"/>
<path d="M322.465 445.785C323.325 451.454 319.426 456.75 313.757 457.61C308.088 458.469 302.792 454.57 301.932 448.901C301.069 443.231 304.968 437.936 310.641 437.076C316.31 436.216 321.606 440.115 322.465 445.785Z" fill="white"/>
<path d="M214.155 398.602C235.799 422.343 254.422 448.233 280.055 467.859C284.298 471.079 280.773 478.06 275.697 476.597C258.528 471.865 244.175 460.221 232.409 447.4C220.966 434.499 211.555 419.91 205.77 403.649C204.865 401.04 206.245 398.191 208.853 397.285C210.783 396.615 212.848 397.195 214.155 398.602Z" fill="#4D4D4D"/>
<path d="M583.325 259.741C563.093 252.79 539.785 255.474 521.663 266.837C503.541 278.2 490.971 298.012 488.415 319.251C513.376 291.795 547.882 270.73 583.325 259.741Z" fill="#128240"/>
<path d="M560.292 260.866C547.623 260.866 534.882 264.324 524.262 270.981C512.375 278.435 502.943 290.025 497.623 303.145C516.8 285.688 540.274 271.043 565.12 261.037C563.518 260.924 561.905 260.866 560.292 260.866ZM488.413 324.143C487.729 324.143 487.035 323.999 486.38 323.7C484.444 322.816 483.304 320.778 483.56 318.666C486.306 295.831 499.578 274.907 519.062 262.692C538.549 250.472 563.168 247.639 584.911 255.113C586.914 255.802 588.247 257.698 588.217 259.814C588.183 261.931 586.794 263.787 584.772 264.415C549.466 275.364 515.665 296.549 492.037 322.543C491.089 323.585 489.764 324.143 488.413 324.143Z" fill="#0E6932"/>
<path d="M264.345 308.155C281.601 295.515 304.656 291.16 325.333 296.634C346.011 302.109 363.893 317.301 372.636 336.823C340.654 318.009 301.451 308.131 264.345 308.155Z" fill="#128240"/>
<path d="M282.114 303.992C308.808 306.171 335.572 313.194 359.065 324.175C350.094 313.226 337.647 304.956 324.084 301.364C310.421 297.748 295.397 298.821 282.114 303.992ZM372.636 341.715C371.781 341.715 370.924 341.494 370.155 341.04C339.906 323.249 301.39 313.047 264.464 313.047H264.347H264.345C262.228 313.047 260.353 311.688 259.696 309.677C259.036 307.666 259.746 305.458 261.454 304.208C280.007 290.618 304.362 286.014 326.586 291.905C348.818 297.788 367.701 313.835 377.101 334.823C377.972 336.764 377.486 339.05 375.899 340.468C374.978 341.293 373.811 341.715 372.636 341.715Z" fill="#0E6932"/>
<path d="M536.815 492.953C543.182 534.907 515.433 573.909 474.833 580.07C434.236 586.234 396.163 557.219 389.794 515.268C389.794 515.268 422.943 524.185 463.542 518.021C504.139 511.86 536.815 492.953 536.815 492.953Z" fill="white"/>
<path d="M396.067 521.65C404.994 556.986 438.571 580.623 474.102 575.234C492.413 572.454 508.519 562.461 519.449 547.095C529.071 533.571 533.675 517.311 532.711 500.673C521.03 506.551 495.03 518.192 464.277 522.86C434.188 527.429 408.333 523.979 396.067 521.65ZM463.98 585.785C425.317 585.785 391.11 556.543 384.958 516.002C384.709 514.37 385.302 512.723 386.533 511.622C387.764 510.52 389.468 510.116 391.062 510.541C391.383 510.629 423.781 519.105 462.811 513.185C501.952 507.246 534.046 488.902 534.367 488.718C535.761 487.906 537.472 487.836 538.936 488.544C540.391 489.246 541.409 490.619 541.654 492.219C544.926 513.77 539.871 535.275 527.423 552.77C514.941 570.315 496.526 581.728 475.568 584.909C471.677 585.499 467.805 585.785 463.98 585.785Z" fill="black"/>
<path d="M495.329 542.082C508.698 538.501 521.917 533.614 534.45 527.346L495.329 542.082Z" fill="white"/>
<path d="M495.327 546.978C493.166 546.978 491.19 545.533 490.605 543.348C489.905 540.736 491.454 538.053 494.063 537.356C507.536 533.748 520.386 528.909 532.26 522.97C534.684 521.76 537.617 522.745 538.824 525.16C540.033 527.576 539.053 530.517 536.636 531.724C524.176 537.957 510.703 543.031 496.595 546.807C496.17 546.921 495.746 546.978 495.327 546.978Z" fill="black"/>
<path d="M401.167 545.714C413.994 548.628 428.5 549.96 443.783 549.578L401.167 545.714Z" fill="white"/>
<path d="M438.613 554.535C424.871 554.535 411.932 553.176 400.083 550.487C397.447 549.888 395.794 547.266 396.395 544.63C396.996 541.997 399.608 540.344 402.252 540.945C414.819 543.8 428.743 545.044 443.66 544.689C446.414 544.617 448.609 546.756 448.673 549.456C448.74 552.158 446.606 554.402 443.903 554.468C442.128 554.514 440.362 554.535 438.613 554.535Z" fill="black"/>
</svg>
